<svg width="24" height="24" fill="none" xmlns="http://www.w3.org/2000/svg"><g clip-path="url(#clip0_1046_3551)"><path d="M17.218 1.19A11.952 11.952 0 0012 0c-1.87 0-3.64.428-5.217 1.19L5.739 12l1.044 10.81A11.953 11.953 0 0012 24c1.87 0 3.64-.428 5.218-1.19L18.26 12 17.218 1.19z" fill="#D80027"/><path d="M6.783 1.191A12 12 0 000 12.001a12 12 0 006.783 10.808V1.191z" fill="#000"/><path d="M17.218 1.191V22.81A12 12 0 0024 12a12 12 0 00-6.782-10.809z" fill="#496E2D"/><path d="M12 7.827a4.174 4.174 0 100 8.347 4.174 4.174 0 000-8.347zm0 6.782a2.609 2.609 0 110-5.217 2.609 2.609 0 010 5.217z" fill="#FFDA44"/><path d="M12 10.436c-.576 0-1.043.467-1.043 1.044v1.565h2.087V11.48c0-.577-.467-1.044-1.043-1.044z" fill="#FFDA44"/></g><defs><clipPath id="clip0_1046_3551"><path fill="#fff" d="M0 0h24v24H0z"/></clipPath></defs></svg>