<svg width="24" height="24" fill="none" xmlns="http://www.w3.org/2000/svg"><g clip-path="url(#clip0_1046_3558)"><path d="M24 12c0 6.627-5.373 12-12 12S0 18.627 0 12C0 12.003 12 .001 12 0c6.627 0 12 5.373 12 12z" fill="#0052B4"/><path d="M11.968 12H12v-.032l-.032.033z" fill="#F0F0F0"/><path d="M12 6.26V0h-.002C5.371.001 0 5.373 0 12h6.26V8.474L9.787 12h2.182l.032-.032V9.786L8.474 6.261H12z" fill="#F0F0F0"/><path d="M6.07 1.565a12.057 12.057 0 00-4.506 4.506V12h3.13V4.696H12v-3.13H6.07z" fill="#D80027"/><path d="M11.999 10.525L7.735 6.26H6.26L11.999 12v-1.476z" fill="#D80027"/><path d="M20.294 13.757a2.926 2.926 0 00.576-1.756V6.783a2.605 2.605 0 01-3.652-.522 2.605 2.605 0 01-3.653.522v5.218c0 .702.23 1.282.576 1.756h6.153z" fill="#F3F3F3"/><path d="M19.208 11.032c.166-.405.295-.998.295-1.292 0-.474-.617-.858-.617-.858s-.618.384-.618.858c0 .294.13.887.296 1.292l-.357.805a1.798 1.798 0 001.358 0l-.357-.805zm-2.412-2.605c-.434.059-1.012.243-1.267.39-.41.237-.434.964-.434.964s.641.343 1.051.106c.256-.148.704-.556.972-.902l.875-.094a1.8 1.8 0 00-.679-1.175l-.518.71zm-1.051 3.393c.267.347.716.755.971.902.41.237 1.052-.106 1.052-.106s-.024-.726-.434-.963c-.256-.148-.833-.332-1.267-.39l-.52-.712a1.803 1.803 0 00-.678 1.176l.876.094z" fill="#FF9811"/><path d="M14.012 13.566c.974 1.563 3.206 2.086 3.206 2.086s2.23-.523 3.205-2.086h-6.411z" fill="#338AF3"/></g><defs><clipPath id="clip0_1046_3558"><path fill="#fff" d="M0 0h24v24H0z"/></clipPath></defs></svg>