<svg width="24" height="24" fill="none" xmlns="http://www.w3.org/2000/svg"><g clip-path="url(#clip0_1046_3557)"><path d="M0 12C0 5.373 5.373 0 12 0s12 5.373 12 12c-.522 0-12 1.565-12 1.565L0 12z" fill="#D80027"/><path d="M24 12c0 6.628-5.373 12-12 12S0 18.628 0 12" fill="#000"/><path d="M10.354 9.544l1.017.738-.388 1.196 1.017-.74 1.017.738-.39-1.195 1.017-.74-1.257.001-.389-1.195-.387 1.196h-1.258z" fill="#FFDA44"/><path d="M15 6.803a5.961 5.961 0 00-3-.802v1.565a4.405 4.405 0 012.217.593 4.44 4.44 0 011.623 6.058 4.44 4.44 0 01-6.058 1.623A4.406 4.406 0 018.3 14.442l-1.307.863A5.962 5.962 0 009 17.195 6.007 6.007 0 0017.195 15 6.007 6.007 0 0015 6.803z" fill="#FFDA44"/><path d="M8.539 10.956a1.565 1.565 0 00.622 2.124l5.084 2.778c-.346.632-.162 1.401.47 1.747l1.373.751a1.304 1.304 0 001.77-.518l.751-1.373-10.07-5.509z" fill="#FFDA44"/></g><defs><clipPath id="clip0_1046_3557"><path fill="#fff" d="M0 0h24v24H0z"/></clipPath></defs></svg>