<svg width="24" height="24" fill="none" xmlns="http://www.w3.org/2000/svg"><g clip-path="url(#clip0_1046_3562)"><path d="M12 24c6.627 0 12-5.373 12-12S18.627 0 12 0 0 5.373 0 12s5.373 12 12 12z" fill="#FFDA44"/><path d="M12 24c3.637 0 6.896-1.618 9.096-4.174H2.903A11.972 11.972 0 0012 24zm12-12c0-6.627-5.373-12-12-12S0 5.373 0 12c0 1.083.144 2.132.413 3.13h23.174A12.01 12.01 0 0024 12zM.954 16.696c.231.544.502 1.066.808 1.565h20.477c.306-.499.576-1.021.808-1.565H.954z" fill="#338AF3"/><path d="M5.499 7.569L3.154 6.534 5.5 5.5l1.034-2.345L7.568 5.5l2.345 1.034L7.568 7.57 6.533 9.914 5.5 7.569z" fill="#F0F0F0"/><path d="M6.533 4.447l.64 1.448 1.447.64-1.448.638-.639 1.448-.639-1.448-1.448-.639 1.448-.639.64-1.448z" fill="#D80027"/></g><defs><clipPath id="clip0_1046_3562"><path fill="#fff" d="M0 0h24v24H0z"/></clipPath></defs></svg>