<svg width="24" height="24" fill="none" xmlns="http://www.w3.org/2000/svg"><g clip-path="url(#clip0_1046_3552)"><path d="M23.587 15.13A12.01 12.01 0 0024 12c0-1.084-.144-2.133-.413-3.131L10.957.045A11.939 11.939 0 004.696 2.48L.413 8.869A12.013 12.013 0 000 11.999c0 1.077.143 2.12.409 3.114l4.287 6.407a11.938 11.938 0 006.26 2.434l12.63-8.824z" fill="#FFDA44"/><path d="M.413 15.13a12.01 12.01 0 004.282 6.39v-6.39H.413zm10.543 8.824c.344.03.692.046 1.043.046 5.545 0 10.21-3.76 11.587-8.87h-12.63v8.824zM23.586 8.87C22.21 3.76 17.544 0 12 0c-.352 0-.7.016-1.044.046V8.87h12.63zM4.695 2.48A12.01 12.01 0 00.413 8.87h4.282V2.48z" fill="#0052B4"/><path d="M23.898 10.434H9.391V.284a11.97 11.97 0 00-3.13 1.176v8.975H.1a12.104 12.104 0 000 3.13h6.16v8.976c.97.53 2.021.928 3.13 1.174v-10.15h14.507a12.118 12.118 0 000-3.13z" fill="#D80027"/></g><defs><clipPath id="clip0_1046_3552"><path fill="#fff" d="M0 0h24v24H0z"/></clipPath></defs></svg>