<svg width="24" height="24" fill="none" xmlns="http://www.w3.org/2000/svg"><g clip-path="url(#clip0_1046_3565)"><path d="M24 12c0-1.468-.264-2.874-.746-4.174L12 7.304.746 7.826A11.975 11.975 0 000 12c0 1.468.264 2.874.746 4.174L12 16.696l11.254-.522c.482-1.3.746-2.706.746-4.174z" fill="#D80027"/><path d="M12 24c5.16 0 9.559-3.257 11.254-7.826H.747C2.443 20.744 6.841 24 12.001 24z" fill="#6DA544"/><path d="M.747 7.825h22.507C21.56 3.255 17.16 0 12.001 0 6.84-.001 2.443 3.256.747 7.825z" fill="#338AF3"/><path d="M12.26 15.391a3.391 3.391 0 111.614-6.375 4.174 4.174 0 100 5.967c-.48.26-1.03.408-1.613.408z" fill="#F0F0F0"/><path d="M14.87 9.65l.449 1.264 1.21-.576-.575 1.211 1.263.45-1.263.449.575 1.21-1.21-.575-.45 1.263-.449-1.263-1.21.576.575-1.211-1.264-.45 1.264-.449-.576-1.21 1.211.575.45-1.263z" fill="#F0F0F0"/></g><defs><clipPath id="clip0_1046_3565"><path fill="#fff" d="M0 0h24v24H0z"/></clipPath></defs></svg>