<svg width="24" height="24" fill="none" xmlns="http://www.w3.org/2000/svg"><g clip-path="url(#clip0_1046_3578)"><path d="M12 24c6.627 0 12-5.373 12-12S18.627 0 12 0 0 5.373 0 12s5.373 12 12 12z" fill="#F0F0F0"/><path d="M12 0A11.99 11.99 0 001.877 5.552L18.15 22.305A11.993 11.993 0 0024 11.999c0-6.627-5.373-12-12-12z" fill="#FFDA44"/><path d="M24 12a11.96 11.96 0 00-3.13-8.083v16.165A11.956 11.956 0 0024 11.999zm-9.01 10.587h1.257l.388-1.197.389 1.196h.63c.387-.208.76-.435 1.12-.682L2.095 5.224c-.274.401-.525.82-.75 1.254l.148.456 1.257-.001-1.016.74.389 1.194-1.018-.738-.606.442A11.996 11.996 0 000 11.999c0 6.627 5.373 12 12 12 1.401 0 2.746-.24 3.996-.682l-1.006-.73zM2.677 11.477l.387-1.195-1.017-.739h1.257l.388-1.196.389 1.195h1.257l-1.017.739.39 1.195-1.018-.738-1.016.74zm2.588 2.61l.388-1.197-1.017-.738h1.257l.387-1.196.39 1.195h1.256l-1.016.739.39 1.195-1.018-.738-1.017.74zm2.589 2.608l.387-1.196-1.017-.738h1.257l.388-1.197.389 1.196 1.257-.001-1.016.74.389 1.194-1.018-.738-1.016.74zm3.605 1.87l-1.017.738.388-1.195-1.017-.739h1.257l.387-1.196.39 1.195h1.257l-1.017.739.39 1.195-1.018-.738zm1.572 3.347l.388-1.195-1.018-.739h1.257l.388-1.196.39 1.195h1.256l-1.016.739.389 1.195-1.017-.738-1.017.74z" fill="#0052B4"/></g><defs><clipPath id="clip0_1046_3578"><path fill="#fff" d="M0 0h24v24H0z"/></clipPath></defs></svg>