<svg width="24" height="24" fill="none" xmlns="http://www.w3.org/2000/svg"><g clip-path="url(#clip0_1046_3586)"><path d="M12 24c6.627 0 12-5.373 12-12S18.627 0 12 0 0 5.373 0 12s5.373 12 12 12z" fill="#F0F0F0"/><path d="M19.307 2.48a12.006 12.006 0 00-14.614 0L12 9.787l7.307-7.307zM12 14.214l-7.307 7.307a12.006 12.006 0 0014.614 0L12 14.214z" fill="#D80027"/><path d="M9.787 12L2.48 4.694a12.006 12.006 0 000 14.613L9.787 12zm4.428 0l7.306 7.307a12.006 12.006 0 000-14.613L14.215 12z" fill="#6DA544"/><path d="M12 17.218a5.217 5.217 0 100-10.435 5.217 5.217 0 000 10.435z" fill="#F0F0F0"/><path d="M12 8.348l.452.783h.903l-.451.782.451.783h-.903L12 11.48l-.452-.783h-.903l.451-.783-.451-.782h.903L12 8.348zm-2.297 3.653l.452.783h.904l-.452.782.452.783h-.904l-.452.782-.452-.782h-.903l.451-.783-.451-.782h.903L9.703 12zm4.594 0l.452.783h.903l-.451.782.451.783h-.903l-.452.782-.452-.782h-.904l.452-.783-.452-.782h.904l.452-.783z" fill="#D80027"/></g><defs><clipPath id="clip0_1046_3586"><path fill="#fff" d="M0 0h24v24H0z"/></clipPath></defs></svg>