<svg width="24" height="24" fill="none" xmlns="http://www.w3.org/2000/svg"><g clip-path="url(#clip0_1046_3710)"><path d="M12 24c6.627 0 12-5.373 12-12S18.627 0 12 0 0 5.373 0 12s5.373 12 12 12z" fill="#F0F0F0"/><path d="M21.427 9.652h-3.948c0-.72-.584-1.304-1.305-1.304l-1.043 2.087s1.113 3.13 1.078 3.13h1.305c.72 0 1.304-.583 1.304-1.304.72 0 1.304-.584 1.304-1.304h-.043c.72 0 1.348-.584 1.348-1.305zm-18.853 0h3.948c0-.72.584-1.304 1.304-1.304l1.044 2.087s-1.113 3.13-1.078 3.13H6.487c-.72 0-1.304-.584-1.304-1.304-.72 0-1.304-.584-1.304-1.304h.043c-.72 0-1.348-.584-1.348-1.305z" fill="#ACABB1"/><path d="M16.174 16.696v.521H7.826v-.521H5.74v2.087h2.087v.521h8.348v-.521h2.087v-2.087h-2.087z" fill="#FFDA44"/><path d="M7.826 8.349v5.217C7.826 16.76 12 17.74 12 17.74s4.174-.98 4.174-4.174V8.349L12 7.827l-4.174.522z" fill="#0052B4"/><path d="M16.174 10.434H7.826v3.13h8.348v-3.13z" fill="#D80027"/><path d="M14.087 5.739v.782l-.522.261-.521-.521V4.695h-2.087v1.566l-.522.521-.522-.26v-.783H7.826v2.608h8.348V5.74h-2.087z" fill="#FFDA44"/></g><defs><clipPath id="clip0_1046_3710"><path fill="#fff" d="M0 0h24v24H0z"/></clipPath></defs></svg>