<svg width="24" height="24" fill="none" xmlns="http://www.w3.org/2000/svg"><g clip-path="url(#clip0_1046_3574)"><path d="M24 12c0 6.627-5.373 12-12 12S0 18.627 0 12C0 12.003 12 .001 12 0c6.627 0 12 5.373 12 12z" fill="#D80027"/><path d="M12 5.739v4.047L7.826 5.74H12zM6.261 12h3.525L6.261 7.304l-.522 3.652L6.261 12z" fill="#0052B4"/><path d="M11.969 12.001H12v-.032l-.032.032zm.03-5.74V.001h-.002C5.37 0-.001 5.373-.001 12h6.26V8.474L9.785 12h2.182l.032-.033v-2.18L8.473 6.261H12z" fill="#F0F0F0"/><path d="M6.07 1.565a12.057 12.057 0 00-4.506 4.506v6.45h3.13V4.697h7.827v-3.13h-6.45z" fill="#D80027"/><path d="M12.476 11l-4.74-4.74H6.26l6.216 6.216V11z" fill="#D80027"/><path d="M13.565 6.26v5.739c0 2.796 7.305 2.796 7.305 0v-5.74h-7.305z" fill="#F3F3F3"/><path d="M13.565 12c0 2.796 3.653 3.653 3.653 3.653S20.87 14.796 20.87 12h-7.305z" fill="#6DA544"/><path d="M17.217 9.704l-1.695.73V12l1.695 1.044L18.913 12v-1.565l-1.696-.73z" fill="#A2001D"/><path d="M18.913 8.869H15.52v1.565h3.392V8.869z" fill="#338AF3"/></g><defs><clipPath id="clip0_1046_3574"><path fill="#fff" d="M0 0h24v24H0z"/></clipPath></defs></svg>