<svg width="24" height="24" fill="none" xmlns="http://www.w3.org/2000/svg"><g clip-path="url(#clip0_1046_3583)"><path d="M12 23.998c6.627 0 11.998-5.372 11.998-11.999C23.998 5.373 18.627.002 12 .002 5.374.001.002 5.373.002 12c0 6.627 5.372 11.999 11.998 11.999z" fill="#F0F0F0"/><path d="M1.61 6.001A12.007 12.007 0 00.401 8.918l20.066 11.585A12.008 12.008 0 0022.391 18L1.609 6z" fill="#000"/><path d="M17.998 1.61c-4.8-2.774-10.72-1.85-14.467 1.886l20.066 11.585c1.362-5.113-.798-10.701-5.599-13.473zM6 22.39c4.801 2.772 10.72 1.848 14.467-1.888L.402 8.917C-.96 14.03 1.199 19.618 6 22.39z" fill="#FFDA44"/><path d="M15.39 10.696a3.39 3.39 0 11-6.374-1.613 4.173 4.173 0 105.966 0c.26.48.408 1.03.408 1.613z" fill="#D80027"/><path d="M12.783 6.784h-1.565v7.824h1.565V6.784z" fill="#D80027"/><path d="M14.608 8.348H9.392c0 .36.313.652.673.652h-.021c0 .36.292.652.652.652 0 .36.292.653.652.653h1.304c.36 0 .652-.292.652-.653.36 0 .652-.291.652-.652h-.021c.36 0 .673-.292.673-.652zm1.044 6.782H8.349v1.565h7.303V15.13z" fill="#D80027"/><path d="M16.694 15.651h-3.13v1.565h3.13v-1.565zm-6.259 0h-3.13v1.565h3.13v-1.565z" fill="#D80027"/></g><defs><clipPath id="clip0_1046_3583"><path fill="#fff" d="M0 0h24v24H0z"/></clipPath></defs></svg>