<svg width="24" height="24" fill="none" xmlns="http://www.w3.org/2000/svg"><g clip-path="url(#clip0_1046_3576)"><path d="M24 12a11.98 11.98 0 00-.746-4.173L12 7.305.746 7.827A11.973 11.973 0 000 12c0 1.468.264 2.874.746 4.173L12 16.696l11.254-.521c.482-1.3.746-2.707.746-4.174z" fill="#FFDA44"/><path d="M12 24c5.16 0 9.558-3.257 11.253-7.826H.746C2.442 20.744 6.84 24 12 24z" fill="#6DA544"/><path d="M.746 7.826h22.507C21.558 3.256 17.16 0 12 0S2.442 3.257.746 7.826z" fill="#D80027"/></g><defs><clipPath id="clip0_1046_3576"><path fill="#fff" d="M0 0h24v24H0z"/></clipPath></defs></svg>