<svg width="24" height="24" fill="none" xmlns="http://www.w3.org/2000/svg"><g clip-path="url(#clip0_1046_3762)"><path d="M5.237 21.913A11.944 11.944 0 0012.001 24c2.509 0 4.837-.77 6.763-2.087l-6.763-1.044-6.764 1.044zM18.764 2.087A11.944 11.944 0 0012.001 0C9.49 0 7.163.77 5.237 2.087l6.764 1.044 6.763-1.044z" fill="#D80027"/><path d="M5.237 21.913A11.944 11.944 0 0012.001 24c2.509 0 4.837-.77 6.763-2.087l-6.763-1.044-6.764 1.044zM18.764 2.087A11.944 11.944 0 0012.001 0C9.49 0 7.163.77 5.237 2.087l6.764 1.044 6.763-1.044z" fill="#D80027"/><path d="M23.97 11.216c-.284-3.703-2.534-7.304-5.205-9.13H5.238a11.99 11.99 0 00-5.212 9.13L12.001 12l11.97-.783zM.025 12.782a11.99 11.99 0 005.212 9.13h13.527a11.99 11.99 0 005.21-9.13L12 12l-11.975.782z" fill="#0052B4"/><path d="M23.97 11.217H12.782V1.565h-1.566v9.652H.025a12.194 12.194 0 000 1.566h11.192v9.652h1.566v-9.652h11.192c.016-.26.025-.52.025-.783 0-.261-.01-.522-.03-.783z" fill="#D80027"/><path d="M4.696 12l7.305-4.592L19.305 12l-7.304 4.591L4.696 12z" fill="#F0F0F0"/><path d="M7.826 14.087h9.391l-2.086-3.13L14.086 12l-1.043-.521L12 13.044H9.913L8.87 12l-1.044 2.087z" fill="#6DA544"/><path d="M12 8.869l.26.797h.838l-.679.493.26.797-.679-.493-.678.493.26-.797-.679-.493h.838l.26-.797z" fill="#FFDA44"/><path d="M12 6.097l-9.39 5.902L12 17.902 21.393 12l-9.391-5.902zm-6.45 5.902L12 7.945 18.45 12 12 16.053 5.55 12z" fill="#D80027"/></g><defs><clipPath id="clip0_1046_3762"><path fill="#fff" d="M0 0h24v24H0z"/></clipPath></defs></svg>