<svg width="24" height="24" fill="none" xmlns="http://www.w3.org/2000/svg"><g clip-path="url(#clip0_1046_3566)"><path d="M12 24c6.627 0 12-5.373 12-12S18.627 0 12 0 0 5.373 0 12s5.373 12 12 12z" fill="#FFDA44"/><path d="M7.306 7.825h15.95C21.56 3.255 17.16 0 12 0a11.96 11.96 0 00-8.484 3.515l3.789 4.311zm-.001 8.347h15.95C21.558 20.742 17.16 24 12 24a11.961 11.961 0 01-8.485-3.515l3.789-4.312z" fill="#338AF3"/><path d="M3.515 3.514c-4.687 4.687-4.687 12.285 0 16.97L12 12 3.515 3.514z" fill="#000"/></g><defs><clipPath id="clip0_1046_3566"><path fill="#fff" d="M0 0h24v24H0z"/></clipPath></defs></svg>