<svg width="24" height="24" fill="none" xmlns="http://www.w3.org/2000/svg"><g clip-path="url(#clip0_1046_3579)"><path d="M.567 8.348A11.989 11.989 0 000 12c0 1.274.199 2.5.567 3.652L12 16.174l11.433-.522C23.801 14.5 24 13.273 24 12c0-1.274-.2-2.5-.567-3.652L12 7.826.567 8.348z" fill="#F0F0F0"/><path d="M24 12c0-.711-.062-1.409-.181-2.086H.18a12.063 12.063 0 000 4.173h23.64a12.07 12.07 0 00.18-2.086z" fill="#000"/><path d="M12 24c5.354 0 9.888-3.507 11.433-8.348H.566C2.112 20.493 6.646 24 12 24zm0-24C6.646 0 2.112 3.505.566 8.346h22.867C21.888 3.506 17.353 0 12 0z" fill="#338AF3"/></g><defs><clipPath id="clip0_1046_3579"><path fill="#fff" d="M0 0h24v24H0z"/></clipPath></defs></svg>