<svg width="24" height="24" fill="none" xmlns="http://www.w3.org/2000/svg"><g clip-path="url(#clip0_1046_3570)"><path d="M12 24c6.627 0 12-5.373 12-12S18.627 0 12 0 0 5.373 0 12s5.373 12 12 12z" fill="#FCFCFC"/><path d="M4.957 11.129L3.652 8.762l1.305-2.329 1.304 2.33-1.304 2.366zm-2.61 0L1.043 8.762l1.304-2.329 1.305 2.33-1.305 2.366zm2.61 6.435l-1.305-2.366 1.305-2.33 1.304 2.33-1.304 2.366zm-2.61 0l-1.304-2.366 1.304-2.33 1.305 2.33-1.305 2.366zM6.26 2.329l-.369-.66c-.662.393-1.283.847-1.856 1.355l.921 1.671L6.26 2.33zM4.956 19.304l-.93 1.662c.571.51 1.192.964 1.854 1.357l.38-.69-1.304-2.329z" fill="#A2001D"/><path d="M7.304 15.13v7.916c1.442.614 3.029.954 4.695.954 5.16 0 9.559-3.256 11.254-7.826l-15.95-1.043z" fill="#6DA544"/><path d="M23.253 16.174c.482-1.3.746-2.706.746-4.174 0-6.627-5.372-12-12-12-1.666 0-3.253.34-4.695.954v15.22h15.949z" fill="#A2001D"/></g><defs><clipPath id="clip0_1046_3570"><path fill="#fff" d="M0 0h24v24H0z"/></clipPath></defs></svg>