<svg width="24" height="24" fill="none" xmlns="http://www.w3.org/2000/svg"><g clip-path="url(#clip0_1046_3572)"><path d="M24 12c0-4.119-2.075-7.752-5.236-9.913L12 1.565l-6.763.522A11.987 11.987 0 000 12c0 4.119 2.075 7.752 5.237 9.913l6.763.522 6.764-.522A11.987 11.987 0 0024 12z" fill="#0052B4"/><path d="M18.764 2.087A11.943 11.943 0 0012.001 0C9.49 0 7.163.77 5.237 2.087h13.527zM5.236 21.913A11.943 11.943 0 0012 24c2.509 0 4.837-.77 6.763-2.087H5.236z" fill="#A2001D"/><path d="M12 17.738A5.74 5.74 0 1012 6.26a5.74 5.74 0 000 11.478z" fill="#F0F0F0"/><path d="M12 16.695a4.696 4.696 0 100-9.39 4.696 4.696 0 000 9.39z" fill="#6DA544"/><path d="M12 15.13a3.13 3.13 0 100-6.261 3.13 3.13 0 000 6.26z" fill="#F0F0F0"/><path d="M12 11.217L10.303 12v1.304l1.695 1.043 1.696-1.043V12l-1.696-.783z" fill="#0052B4"/><path d="M13.695 10.436h-3.391V12h3.391v-1.565z" fill="#FFDA44"/></g><defs><clipPath id="clip0_1046_3572"><path fill="#fff" d="M0 0h24v24H0z"/></clipPath></defs></svg>