<svg width="24" height="24" fill="none" xmlns="http://www.w3.org/2000/svg"><g clip-path="url(#clip0_1046_3589)"><path d="M12 24c6.627 0 12-5.373 12-12S18.627 0 12 0 0 5.373 0 12s5.373 12 12 12z" fill="#F0F0F0"/><path d="M24 12.001a12 12 0 00-6.782-10.81v21.62A12 12 0 0024 12zM0 12a12 12 0 006.783 10.81V1.19A12 12 0 000 12.001zm14.087 1.566l2.087-1.043L15.131 12v-1.043L13.043 12l1.044-2.087h-1.043L12 8.35l-1.043 1.565H9.913l1.044 2.087-2.087-1.043V12l-1.044.522 2.087 1.043-.522 1.044h2.087v1.565h1.044V14.61h2.087l-.522-1.044z" fill="#D80027"/></g><defs><clipPath id="clip0_1046_3589"><path fill="#fff" d="M0 0h24v24H0z"/></clipPath></defs></svg>