<svg width="24" height="24" fill="none" xmlns="http://www.w3.org/2000/svg"><g clip-path="url(#clip0_1046_3596)"><path d="M12 24c6.627 0 12-5.373 12-12S18.627 0 12 0 0 5.373 0 12s5.373 12 12 12z" fill="#6DA544"/><path d="M18.42 17.218l.33.688.744-.171-.333.686.598.474-.745.168.002.764-.595-.478-.595.477.002-.763-.745-.168.598-.474-.333-.686.744.171.329-.688zm-3.063-7.306l.33.689.743-.172-.333.687.598.474-.744.168.002.763-.596-.478-.595.478.002-.763-.744-.168.598-.474-.334-.687.744.172.33-.689zm3.063-4.174l.33.689.744-.172-.333.687.598.474-.745.168.002.763-.595-.478-.596.478.003-.763-.745-.168.598-.474-.333-.687.744.172.329-.689zm2.678 3.132l.329.689.744-.172-.333.687.598.474-.745.168.002.763-.595-.478-.596.478.002-.763-.744-.168.598-.474-.333-.687.743.172.33-.689zm-1.914 3.651l.26.797h.837l-.678.493.26.797-.679-.492-.678.492.259-.797-.678-.493h.838l.26-.797z" fill="#FFDA44"/><path d="M13.305 15.391a3.391 3.391 0 111.613-6.375 4.174 4.174 0 100 5.967c-.48.26-1.03.408-1.613.408zM7.547 4.695a2.086 2.086 0 00-3.614 0h3.614zm.006.012L5.74 6.521 3.925 4.707a2.087 2.087 0 103.628 0z" fill="#FFDA44"/><path d="M5.218 6v1.76a2.092 2.092 0 001.043 0V6H5.218z" fill="#A2001D"/></g><defs><clipPath id="clip0_1046_3596"><path fill="#fff" d="M0 0h24v24H0z"/></clipPath></defs></svg>