<svg width="24" height="24" fill="none" xmlns="http://www.w3.org/2000/svg"><g clip-path="url(#clip0_1046_3591)"><path d="M12 24c6.627 0 12-5.373 12-12S18.627 0 12 0 0 5.373 0 12s5.373 12 12 12z" fill="#F0F0F0"/><path d="M22.54 6.26A12.027 12.027 0 0015.13.412l-.522 5.848h7.933zm-21.081 0h7.932L8.87.413a12.027 12.027 0 00-7.41 5.849z" fill="#0052B4"/><path d="M14.608 12.002v5.739h7.933A11.964 11.964 0 0024 12h-9.392zM9.391 12H0c0 2.08.529 4.035 1.46 5.74h7.93V12z" fill="#6DA544"/><path d="M1.459 17.74a12.028 12.028 0 007.41 5.848l.522-5.115-7.932-.733zm13.671 5.848a12.027 12.027 0 007.41-5.848l-7.932.734.522 5.114z" fill="#FFDA44"/><path d="M14.608 18.474l7.933-.734h-7.933v.734zm-5.217-.734H1.46l7.932.733v-.733z" fill="#FFDA44"/><path d="M12 0a12.01 12.01 0 00-3.13.414v23.173A12.01 12.01 0 0012 24c1.084 0 2.133-.144 3.131-.413V.414A12.013 12.013 0 0012.001 0z" fill="#D80027"/><path d="M6.454 2.61l.324.996h1.048l-.848.615.324.997-.848-.616-.847.616.324-.997-.848-.615h1.048l.323-.997z" fill="#FFDA44"/></g><defs><clipPath id="clip0_1046_3591"><path fill="#fff" d="M0 0h24v24H0z"/></clipPath></defs></svg>