<svg width="24" height="24" fill="none" xmlns="http://www.w3.org/2000/svg"><g clip-path="url(#clip0_1046_3599)"><path d="M24 12c0 6.627-5.373 12-12 12S0 18.627 0 12C0 12.003 12 .001 12 0c6.627 0 12 5.373 12 12z" fill="#0052B4"/><path d="M11.968 12.001H12v-.032l-.032.032z" fill="#F0F0F0"/><path d="M12 6.262V0h-.002C5.371.002 0 5.374 0 12.001h6.26V8.475l3.526 3.526h2.182l.032-.032V9.787L8.474 6.262H12z" fill="#F0F0F0"/><path d="M6.071 1.565A12.057 12.057 0 001.565 6.07V12h3.13V4.694H12v-3.13H6.071z" fill="#D80027"/><path d="M12 10.524L7.736 6.26H6.261L12 12v-1.476z" fill="#D80027"/><path d="M16.175 12l.222.683h.718l-.581.422.222.684-.581-.422-.582.422.223-.684-.582-.422h.719l.222-.683zm-2.952 1.223l.64.326.508-.508-.112.71.64.326-.71.112-.112.71-.326-.64-.71.112.508-.508-.326-.64zM12 16.173l.683-.222v-.718l.422.58.684-.221-.422.581.422.581-.684-.222-.422.581v-.718L12 16.173zm1.223 2.952l.326-.64-.508-.508.71.113.326-.64.112.71.71.111-.64.327.112.71-.508-.509-.64.326zm2.951 1.223l-.222-.683h-.719l.582-.422-.222-.684.58.423.582-.423-.222.684.581.422h-.718l-.222.683zm2.951-1.223l-.64-.326-.508.508.112-.71-.64-.325.71-.113.112-.71.326.64.71-.112-.508.508.326.64zm1.223-2.952l-.683.222v.718l-.422-.58-.683.221.422-.58-.422-.582.683.222.422-.581v.718l.683.222zm-1.223-2.95l-.326.64.508.508-.71-.112-.326.64-.112-.71-.71-.112.64-.326-.112-.71.508.508.64-.326z" fill="#F0F0F0"/></g><defs><clipPath id="clip0_1046_3599"><path fill="#fff" d="M0 0h24v24H0z"/></clipPath></defs></svg>