<svg width="24" height="24" fill="none" xmlns="http://www.w3.org/2000/svg"><g clip-path="url(#clip0_1046_3588)"><path d="M17.218 1.191A11.952 11.952 0 0012 .001c-1.87 0-3.64.427-5.217 1.19l-1.044 10.81L6.783 22.81A11.952 11.952 0 0012 24c1.87 0 3.64-.427 5.218-1.19L18.26 12 17.218 1.191z" fill="#D80027"/><path d="M12 7.825l1.036 3.189h3.353l-2.713 1.97 1.036 3.19L12 14.202l-2.712 1.97 1.036-3.188-2.713-1.971h3.353L12 7.825z" fill="#FFDA44"/><path d="M6.783 1.192A12 12 0 000 12a12 12 0 006.783 10.808V1.192z" fill="#496E2D"/><path d="M17.218 1.192v21.617A12 12 0 0024 12a12 12 0 00-6.782-10.808z" fill="#FFDA44"/></g><defs><clipPath id="clip0_1046_3588"><path fill="#fff" d="M0 0h24v24H0z"/></clipPath></defs></svg>