<svg width="24" height="24" fill="none" xmlns="http://www.w3.org/2000/svg"><g clip-path="url(#clip0_1046_3603)"><path d="M12 24c6.627 0 12-5.373 12-12S18.627 0 12 0 0 5.373 0 12s5.373 12 12 12z" fill="#FFDA44"/><path d="M12 24c3.938 0 7.432-1.896 9.62-4.825H2.38A11.982 11.982 0 0012 24zm12-12c0-6.627-5.373-12-12-12S0 5.373 0 12c0 1.419.247 2.78.7 4.044h22.6c.453-1.264.7-2.625.7-4.044z" fill="#0052B4"/><path d="M8.215 7.696l.647 1.993h2.096L9.262 10.92l.648 1.992-1.695-1.231-1.696 1.231.648-1.992-1.695-1.232h2.095l.648-1.993zm-3.6-2.086l.389 1.195H6.26l-1.017.74.389 1.195L4.615 8l-1.017.74.389-1.196-1.017-.739h1.257l.388-1.196z" fill="#F0F0F0"/></g><defs><clipPath id="clip0_1046_3603"><path fill="#fff" d="M0 0h24v24H0z"/></clipPath></defs></svg>