<svg width="24" height="24" fill="none" xmlns="http://www.w3.org/2000/svg"><g clip-path="url(#clip0_1046_3595)"><path d="M20.485 20.486c-4.686 4.686-12.284 4.686-16.97 0-4.687-4.687-4.687-12.285 0-16.97.369.368 9.592 7.378 9.592 7.378l7.378 9.592z" fill="#0052B4"/><path d="M3.515 3.514c4.686-4.686 12.284-4.686 16.97 0 4.687 4.686 4.687 12.285 0 16.97" fill="#6DA544"/><path d="M12 15.131a3.13 3.13 0 100-6.26 3.13 3.13 0 000 6.26z" fill="#FFDA44"/><path d="M4.469 17.218l.33.688.743-.172-.333.687.598.474-.745.168.002.763-.595-.477-.596.477.002-.763-.744-.168.598-.474-.333-.687.743.172.33-.688zm-2.155-5.741l.33.688.743-.171-.333.686.598.475-.744.167.002.764-.596-.478-.595.478.002-.764-.744-.167.598-.475-.333-.687.743.172.33-.688zm2.155-4.695l.329.688.744-.172-.333.687.598.475-.745.167.002.764-.595-.478-.596.478.002-.764-.744-.167.598-.475-.333-.687.743.172.33-.688zm2.675 3.653l.33.688.743-.172-.333.687.598.474-.744.168.002.763-.596-.477-.595.477.002-.763-.744-.168.598-.474-.333-.687.743.172.33-.688zm-1.914 3.13l.26.797h.838l-.678.492.259.798-.678-.493-.678.492.259-.797-.678-.492h.838l.259-.797z" fill="#F0F0F0"/><path d="M12 14.087h1.043s.453-.8 0-1.565l1.044-1.044-.522-1.043h-.521s-.261.783-1.305.783c-1.043 0-1.304-.783-1.304-.783h-.522l.522 1.043-.522 1.044.522.522S10.956 12 12 12.522c0 0 .443.652 0 1.565z" fill="#6DA544"/><path d="M19.789 6.573a2.088 2.088 0 00-1.406-2.381 3.897 3.897 0 01.352 2.337 2.142 2.142 0 00-3.003-.655 4 4 0 011.64.78c.39.31.704.73.945 1.134l-3.186.997c3.13.522 5.739-1.565 5.739-1.565-.29-.578-.738-.675-1.081-.647z" fill="#FFDA44"/></g><defs><clipPath id="clip0_1046_3595"><path fill="#fff" d="M0 0h24v24H0z"/></clipPath></defs></svg>