<svg width="24" height="24" fill="none" xmlns="http://www.w3.org/2000/svg"><g clip-path="url(#clip0_1046_3604)"><path d="M12 24c6.627 0 12-5.373 12-12S18.627 0 12 0 0 5.373 0 12s5.373 12 12 12z" fill="#FCFCFC"/><path d="M18.783 10.434h-1.565a5.217 5.217 0 11-10.435 0H5.218a6.785 6.785 0 004.93 6.527 1.736 1.736 0 00.182 1.895l1.705-1.367 1.706 1.367c.45-.562.494-1.317.172-1.913a6.785 6.785 0 004.87-6.509z" fill="#6DA544"/><path d="M7.826 9.913s0 2.608 2.609 2.608l.522.522H12s.522-1.565 1.565-1.565c0 0 0-1.043 1.044-1.043h1.565s-.522-2.087 2.087-3.653l-1.044-.521s-3.652 2.608-6.26 2.087V9.39H9.913l-.522-.522-1.565 1.044z" fill="#FFDA44"/></g><defs><clipPath id="clip0_1046_3604"><path fill="#fff" d="M0 0h24v24H0z"/></clipPath></defs></svg>