<svg width="24" height="24" fill="none" xmlns="http://www.w3.org/2000/svg"><g clip-path="url(#clip0_1046_3608)"><path d="M10.957 13.044s-7.435-9.53-7.442-9.529A11.962 11.962 0 0112 0c6.627 0 12 5.373 12 12l-13.043 1.044z" fill="#338AF3"/><path d="M10.957 12s-7.435 8.486-7.442 8.485A11.963 11.963 0 0012 23.999c6.627 0 12-5.372 12-12H10.957z" fill="#6DA544"/><path d="M3.515 3.515c-4.687 4.686-4.687 12.284 0 16.97L12 12 3.515 3.515z" fill="#F0F0F0"/><path d="M4.856 8.87l.777 2.39h2.515l-2.035 1.48.777 2.391-2.034-1.478-2.034 1.478.777-2.391-2.035-1.478H4.08l.777-2.392z" fill="#D80027"/></g><defs><clipPath id="clip0_1046_3608"><path fill="#fff" d="M0 0h24v24H0z"/></clipPath></defs></svg>