<svg width="24" height="24" fill="none" xmlns="http://www.w3.org/2000/svg"><g clip-path="url(#clip0_1046_3609)"><path d="M12 24c6.627 0 12-5.373 12-12S18.627 0 12 0 0 5.373 0 12s5.373 12 12 12z" fill="#F0F0F0"/><path d="M14.349 23.77a12.013 12.013 0 009.421-9.423h-9.42v9.422zM.23 14.347a12.013 12.013 0 009.422 9.422v-9.422H.23zm23.54-4.695A12.013 12.013 0 0014.35.23v9.422h9.421zM9.652.23A12.013 12.013 0 00.23 9.652h9.422V.23z" fill="#496E2D"/><path d="M11.217 14.348H9.652v9.422c.511.101 1.034.17 1.566.204v-9.626zm0-4.695V.027A12.04 12.04 0 009.652.23v9.422h1.566z" fill="#FFDA44"/><path d="M12.782.027a12.122 12.122 0 00-1.565 0v9.626h1.565V.027zm-1.565 23.947a12.074 12.074 0 001.565 0v-9.626h-1.565v9.626z" fill="#000"/><path d="M9.652 11.218V9.653H.231c-.102.51-.17 1.033-.205 1.565h9.626zm4.697 0h9.626a12.004 12.004 0 00-.204-1.565h-9.422v1.565z" fill="#FFDA44"/><path d="M14.348 12.783h9.626a12.222 12.222 0 000-1.565h-9.626v1.565zM.026 11.218a12.155 12.155 0 000 1.565h9.626v-1.565H.026z" fill="#000"/><path d="M12 17.739A5.74 5.74 0 1012 6.26a5.74 5.74 0 000 11.478z" fill="#D80027"/><path d="M13.307 12.64c-.426-.853-.981-1.718-.981-1.718s.013-.394.013-.629a.64.64 0 00-1.277-.055.505.505 0 00-.2.951.727.727 0 01.431-.401.63.63 0 00.102.069l.082.039s-.304.857-.304 1.318c0 1.295.854 1.694.854 1.694v.014l-.427.426h.854v-.853l.427.427c.003-.008.808-.518.426-1.281zM12 7.304l.194.598h.628l-.508.37.194.598L12 8.5l-.509.37.194-.598-.508-.37h.628L12 7.304zm-2.76.898l.509.37.508-.37-.194.598.509.37h-.63l-.193.597-.195-.598h-.628l.508-.37-.194-.597zM7.534 10.55h.629l.194-.599.194.598h.629l-.509.37.195.598-.509-.37-.509.37.195-.598-.509-.37zm0 2.901l.509-.37-.195-.597.509.37.509-.37-.195.598.509.37h-.629l-.194.597-.194-.598h-.629zm1.706 2.348l.194-.598-.508-.37h.628l.195-.597.194.598h.629l-.509.37.194.597-.508-.37-.509.37zm2.76.897l-.195-.597h-.628l.508-.37-.194-.598.509.37.508-.37-.194.598.508.37h-.628l-.194.597zm2.76-.897l-.508-.37-.509.37.194-.598-.508-.37h.628l.195-.597.194.598h.629l-.51.37.195.597zm1.706-2.348h-.629l-.194.598-.194-.598h-.629l.509-.37-.194-.597.508.37.509-.37-.194.598.508.37zm0-2.901l-.508.369.194.597-.509-.37-.508.37.194-.597-.509-.37h.629l.194-.598.194.598h.63zM14.76 8.202l-.194.598.508.37h-.628l-.194.597-.195-.598h-.628l.508-.37-.194-.597.509.37.508-.37z" fill="#496E2D"/></g><defs><clipPath id="clip0_1046_3609"><path fill="#fff" d="M0 0h24v24H0z"/></clipPath></defs></svg>