<svg width="24" height="24" fill="none" xmlns="http://www.w3.org/2000/svg"><g clip-path="url(#clip0_1046_3610)"><path d="M12 24c6.627 0 12-5.373 12-12S18.627 0 12 0 0 5.373 0 12s5.373 12 12 12z" fill="#F0F0F0"/><path d="M.414 15.131a12.021 12.021 0 008.456 8.456v-8.456H.414z" fill="#D80027"/><path d="M8.87.413A12.02 12.02 0 00.412 8.87H8.87V.413z" fill="#0052B4"/><path d="M23.587 8.87A12.021 12.021 0 0015.131.414V8.87h8.456z" fill="#D80027"/><path d="M15.13 23.587a12.022 12.022 0 008.457-8.456h-8.456v8.456z" fill="#0052B4"/><path d="M15.131 12a3.13 3.13 0 11-6.26 0c0-1.73 3.13-3.13 3.13-3.13s3.13 1.4 3.13 3.13z" fill="#496E2D"/><path d="M8.87 12a3.13 3.13 0 016.261 0" fill="#0052B4"/><path d="M10.24 10.434v1.957a1.76 1.76 0 103.521 0v-1.957h-3.522z" fill="#D80027"/></g><defs><clipPath id="clip0_1046_3610"><path fill="#fff" d="M0 0h24v24H0z"/></clipPath></defs></svg>