<svg width="24" height="24" fill="none" xmlns="http://www.w3.org/2000/svg"><g clip-path="url(#clip0_1046_3713)"><path d="M1.19 6.783A11.952 11.952 0 000 12c0 1.87.428 3.64 1.19 5.217L12 18.261l10.81-1.044A11.953 11.953 0 0024 12c0-1.87-.428-3.64-1.19-5.217L12 5.739 1.19 6.783z" fill="#F0F0F0"/><path d="M1.191 17.217a12 12 0 0010.81 6.782 12 12 0 0010.808-6.782H1.191z" fill="#000"/><path d="M1.191 6.783H22.81A12 12 0 0012 0 12 12 0 001.191 6.783z" fill="#D80027"/><path d="M3.515 3.514c-4.687 4.686-4.687 12.284 0 16.97L12 12 3.515 3.514z" fill="#496E2D"/></g><defs><clipPath id="clip0_1046_3713"><path fill="#fff" d="M0 0h24v24H0z"/></clipPath></defs></svg>