<svg width="24" height="24" fill="none" xmlns="http://www.w3.org/2000/svg"><g clip-path="url(#clip0_1046_3780)"><path d="M1.19 6.782A11.952 11.952 0 000 11.999c0 1.87.428 3.64 1.19 5.218L12 18.26l10.81-1.043A11.953 11.953 0 0024 11.999c0-1.87-.428-3.64-1.19-5.217L12 5.738 1.19 6.782z" fill="#F0F0F0"/><path d="M1.191 17.218A12 12 0 0012.001 24a12 12 0 0010.808-6.782H1.191z" fill="#496E2D"/><path d="M1.191 6.782H22.81A12 12 0 0012 0 12 12 0 001.191 6.782z" fill="#000"/><path d="M3.515 3.515c-4.687 4.686-4.687 12.284 0 16.97L12 12 3.515 3.515zM15.13 12A3.653 3.653 0 0118 8.433a3.652 3.652 0 100 7.134A3.653 3.653 0 0115.13 12z" fill="#D80027"/><path d="M18.153 9.652l.518 1.595h1.677l-1.357.985.519 1.594-1.357-.985-1.356.985.518-1.594-1.356-.986h1.676l.518-1.594z" fill="#D80027"/></g><defs><clipPath id="clip0_1046_3780"><path fill="#fff" d="M0 0h24v24H0z"/></clipPath></defs></svg>