<svg width="24" height="24" fill="none" xmlns="http://www.w3.org/2000/svg"><g clip-path="url(#clip0_1046_3616)"><path d="M10.957 10.957s-7.435 9.53-7.442 9.528A11.962 11.962 0 0012 24c6.627 0 12-5.373 12-12l-13.043-1.043z" fill="#338AF3"/><path d="M10.957 12S3.522 3.513 3.514 3.514A11.962 11.962 0 0112 0c6.627 0 12 5.372 12 12H10.957z" fill="#6DA544"/><path d="M3.514 3.515c-4.687 4.687-4.687 12.285 0 16.971 0 .002 20.485-8.485 20.485-8.485L3.514 3.515z" fill="#D80027"/><path d="M6.26 7.043a4.179 4.179 0 00-4.173 4.174v1.565a4.179 4.179 0 004.174 4.174 4.179 4.179 0 004.174-4.174v-1.565A4.179 4.179 0 006.26 7.043zm2.61 5.74a2.613 2.613 0 01-1.827 2.488v-1.706l1.108-1.107-1.107-1.107v-.916H5.477V12l-1.106 1.106 1.106 1.107v1.058a2.613 2.613 0 01-1.826-2.489v-1.565a2.612 2.612 0 012.61-2.607 2.612 2.612 0 012.608 2.608v1.565z" fill="#FFDA44"/></g><defs><clipPath id="clip0_1046_3616"><path fill="#fff" d="M0 0h24v24H0z"/></clipPath></defs></svg>