<svg width="24" height="24" fill="none" xmlns="http://www.w3.org/2000/svg"><g clip-path="url(#clip0_1046_3618)"><path d="M0 12c0 1.468.264 2.874.746 4.174L12 17.217l11.254-1.043c.482-1.3.746-2.706.746-4.174 0-1.448-.256-2.836-.726-4.12L12 6.782.726 7.879A11.975 11.975 0 000 12z" fill="#FFDA44"/><path d="M12 24c5.16 0 9.558-3.256 11.253-7.826H.746C2.442 20.744 6.84 24 12 24z" fill="#D80027"/><path d="M12 0C6.84 0 2.442 3.256.746 7.826h22.507C21.558 3.256 17.16 0 12 0z" fill="#6DA544"/><path d="M12 17.74a5.74 5.74 0 100-11.478 5.74 5.74 0 000 11.478z" fill="#0052B4"/><path d="M11.999 7.556l1.036 3.189h3.358l-2.718 1.97 1.044 3.199-2.72-1.98-2.716 1.976 1.04-3.194-2.716-1.971h3.356l1.036-3.189z" fill="#FFDA44"/><path d="M16.13 12.794l-3.286-1.068 2.031-2.796-.844-.613L12 11.113 9.969 8.317l-.845.613 2.032 2.796-3.287 1.068.323.992 3.286-1.068v3.456h1.044v-3.456l3.286 1.068.323-.992z" fill="#FFDA44"/></g><defs><clipPath id="clip0_1046_3618"><path fill="#fff" d="M0 0h24v24H0z"/></clipPath></defs></svg>