<svg width="24" height="24" fill="none" xmlns="http://www.w3.org/2000/svg"><g clip-path="url(#clip0_1046_3742)"><path d="M12 24c6.627 0 12-5.373 12-12S18.627 0 12 0 0 5.373 0 12s5.373 12 12 12z" fill="#338AF3"/><path d="M12.001 5.217l.518 1.595h1.676l-1.356.985.518 1.594-1.356-.985-1.356.985.518-1.594-1.356-.985h1.676l.518-1.595zM5.218 12l1.594-.518V9.805l.985 1.357 1.595-.519L8.406 12l.986 1.356-1.595-.518-.985 1.356v-1.676L5.218 12zm6.783 6.783l-.518-1.594H9.807l1.356-.986-.518-1.594 1.356.985 1.356-.985-.518 1.594 1.356.986H12.52l-.518 1.594zM18.783 12l-1.594.518v1.676l-.985-1.356-1.595.518.986-1.357-.986-1.356 1.595.518.985-1.356v1.677l1.594.518z" fill="#F0F0F0"/></g><defs><clipPath id="clip0_1046_3742"><path fill="#fff" d="M0 0h24v24H0z"/></clipPath></defs></svg>