<svg width="24" height="24" fill="none" xmlns="http://www.w3.org/2000/svg"><g clip-path="url(#clip0_1046_3620)"><path d="M12 24c6.627 0 12-5.373 12-12S18.627 0 12 0 0 5.373 0 12s5.373 12 12 12z" fill="#F0F0F0"/><path d="M23.478 12l.42-1.565a11.979 11.979 0 00-.311-1.565h-12.63V.046a11.97 11.97 0 00-1.566.24l-2.087 1.28-1.043-.106c-.55.3-1.073.64-1.566 1.02v6.39H.413C.276 9.379.171 9.9.102 10.435L.522 12l-.42 1.565c.07.534.174 1.056.311 1.565h4.282v6.39c.493.38 1.017.72 1.566 1.02l1.565-.105 1.565 1.28c.51.112 1.033.193 1.565.24V15.13h12.63c.138-.51.242-1.032.312-1.566L23.478 12z" fill="#0052B4"/><path d="M23.898 10.435H9.391V.285C8.282.531 7.231.93 6.261 1.46v8.976H.1a12.119 12.119 0 000 3.13h6.16v8.976c.97.53 2.021.928 3.13 1.174v-10.15h14.507a12.121 12.121 0 000-3.13z" fill="#D80027"/></g><defs><clipPath id="clip0_1046_3620"><path fill="#fff" d="M0 0h24v24H0z"/></clipPath></defs></svg>