<svg width="24" height="24" fill="none" xmlns="http://www.w3.org/2000/svg"><g clip-path="url(#clip0_1046_3630)"><path d="M12 24c6.627 0 12-5.373 12-12S18.627 0 12 0 0 5.373 0 12s5.373 12 12 12z" fill="#FFDA44"/><path d="M5.236 2.087A11.943 11.943 0 0112 0c2.509 0 4.837.77 6.763 2.087L12 2.609l-6.764-.522z" fill="#A2001D"/><path d="M12 12l-.765-.766-.204.364.97.401z" fill="#0052B4"/><path d="M3.515 3.515c-4.687 4.686-4.687 12.284 0 16.97L12 12 3.515 3.515zm16.97.001c4.687 4.686 4.687 12.284 0 16.97L12 12.002l8.485-8.485z" fill="#496E2D"/><path d="M12 16.174a4.174 4.174 0 100-8.348 4.174 4.174 0 000 8.348z" fill="#A2001D"/><path d="M12 7.826l.935 2.88h3.028l-2.45 1.78.936 2.88-2.45-1.78-2.449 1.78.936-2.88-2.45-1.78h3.028L12 7.826z" fill="#FFDA44"/><path d="M12.004 0h-.008a11.962 11.962 0 00-8.48 3.514h16.969A11.962 11.962 0 0012.005 0zM3.516 20.486A11.962 11.962 0 0012 24c3.314 0 6.313-1.343 8.485-3.514H3.515z" fill="#A2001D"/><path d="M12 1.304l.195.598h.628l-.508.37.194.597-.508-.37-.509.37.194-.597-.508-.37h.628l.195-.598zm-2.91 0l.195.598h.628l-.508.37.194.597-.509-.37-.508.37.194-.597-.508-.37h.628l.194-.598zm5.82 0l.194.598h.629l-.509.37.194.597-.508-.37-.509.37.195-.597-.51-.37h.63l.194-.598zM12 21.13l.195.598h.628l-.508.37.194.597-.508-.37-.509.37.194-.598-.508-.37h.628l.195-.597zm-2.91 0l.195.598h.628l-.508.37.194.597-.509-.37-.508.37.194-.598-.508-.37h.628l.194-.597zm5.82 0l.194.598h.629l-.509.37.194.597-.508-.37-.509.37.195-.598-.51-.37h.63l.194-.597zM3.657 11.802a1.043 1.043 0 01-1.764 1.116c-.558-.881-.234-2.321-.234-2.321s1.44.323 1.998 1.205z" fill="#FFDA44"/><path d="M3.054 13.322a.522.522 0 100-1.043.522.522 0 000 1.043z" fill="#A2001D"/></g><defs><clipPath id="clip0_1046_3630"><path fill="#fff" d="M0 0h24v24H0z"/></clipPath></defs></svg>