<svg width="24" height="24" fill="none" xmlns="http://www.w3.org/2000/svg"><g clip-path="url(#clip0_1046_3633)"><path d="M12 24c6.627 0 12-5.373 12-12S18.627 0 12 0 0 5.373 0 12s5.373 12 12 12z" fill="#F0F0F0"/><path d="M23.898 10.435H13.565V.102a12.12 12.12 0 00-3.13 0v10.333H.102a12.118 12.118 0 000 3.13h10.333v10.333a12.121 12.121 0 003.13 0V13.565h10.333a12.121 12.121 0 000-3.13z" fill="#D80027"/><path d="M15.391 12.522l.783.522v-2.087l-.783.521h-2.87v-2.87l.522-.782h-2.086l.521.783v2.87h-2.87l-.782-.522v2.087l.783-.522h2.87v2.87l-.522.782h2.086l-.521-.782v-2.87h2.87z" fill="#FFDA44"/></g><defs><clipPath id="clip0_1046_3633"><path fill="#fff" d="M0 0h24v24H0z"/></clipPath></defs></svg>