<svg width="24" height="24" fill="none" xmlns="http://www.w3.org/2000/svg"><g clip-path="url(#clip0_1046_3627)"><path d="M12 24c6.627 0 12-5.373 12-12S18.627 0 12 0 0 5.373 0 12s5.373 12 12 12z" fill="#F9F9F9"/><path d="M12 24c5.16 0 9.558-3.256 11.253-7.825H.746C2.442 20.745 6.84 24 12 24zm4.695-14.086V8.348h.522V7.305h-1.043v.522H15.13v-.522h-1.043v1.043h.522v1.566h-1.044V6.262h.522V5.218h-1.044v.522h-.521v-.522h-1.044v.522h-.522v-.522H9.913v1.044h.522v3.652H9.39V8.348h.522V7.305H8.869v.522H7.826v-.522H6.783v1.043h.521v1.566H6.261v4.174h11.478V9.913h-1.044z" fill="#D80027"/><path d="M12 13.565a1.565 1.565 0 00-.522 3.041v2.177H9.913v2.086h2.609v-4.263a1.566 1.566 0 00-.522-3.04zm0 2.087a.522.522 0 110-1.043.522.522 0 010 1.043z" fill="#FFDA44"/></g><defs><clipPath id="clip0_1046_3627"><path fill="#fff" d="M0 0h24v24H0z"/></clipPath></defs></svg>