<svg width="24" height="24" fill="none" xmlns="http://www.w3.org/2000/svg"><g clip-path="url(#clip0_1046_3635)"><path d="M16.174.746A11.975 11.975 0 0012 0c-1.467 0-2.874.264-4.174.746L7.305 12l.521 11.253c1.3.483 2.707.747 4.174.747a11.96 11.96 0 004.174-.747L16.696 12 16.174.746z" fill="#FFDA44"/><path d="M0 12c0 5.16 3.256 9.558 7.826 11.254V.747C3.256 2.442 0 6.84 0 12z" fill="#D80027"/><path d="M24 12c0-5.16-3.257-9.558-7.826-11.253v22.507C20.744 21.558 24 17.16 24 12z" fill="#6DA544"/></g><defs><clipPath id="clip0_1046_3635"><path fill="#fff" d="M0 0h24v24H0z"/></clipPath></defs></svg>