<svg width="24" height="24" fill="none" xmlns="http://www.w3.org/2000/svg"><g clip-path="url(#clip0_1046_3615)"><path d="M12 24c6.627 0 12-5.373 12-12S18.627 0 12 0 0 5.373 0 12s5.373 12 12 12z" fill="#F0F0F0"/><path d="M7.305 7.826h15.95C21.558 3.256 17.16 0 12 0a11.96 11.96 0 00-8.485 3.515l3.789 4.31z" fill="#6DA544"/><path d="M7.305 16.174h15.95C21.558 20.744 17.16 24 12 24a11.961 11.961 0 01-8.485-3.515l3.789-4.31z" fill="#D80027"/><path d="M3.515 3.515c-4.687 4.687-4.687 12.285 0 16.971L12 12.001 3.515 3.515z" fill="#0052B4"/><path d="M14.087 9.913v2.608c0 1.598 2.087 2.087 2.087 2.087s2.087-.49 2.087-2.087V9.913h-4.174z" fill="#DEDDE0"/><path d="M16.696 12.052h-1.044v1.513h1.044v-1.513z" fill="#786145"/><path d="M17.217 11.479a1.044 1.044 0 00-2.087 0 .522.522 0 000 1.043h2.087a.522.522 0 100-1.043z" fill="#6DA544"/></g><defs><clipPath id="clip0_1046_3615"><path fill="#fff" d="M0 0h24v24H0z"/></clipPath></defs></svg>