<svg width="24" height="24" fill="none" xmlns="http://www.w3.org/2000/svg"><g clip-path="url(#clip0_1046_3632)"><path d="M12 24c6.627 0 12-5.373 12-12S18.627 0 12 0 0 5.373 0 12s5.373 12 12 12z" fill="#F0F0F0"/><path d="M24 12a12 12 0 00-6.783-10.81v21.62A12 12 0 0023.999 12zM0 12a12 12 0 006.783 10.81V1.19A12 12 0 000 12z" fill="#338AF3"/><path d="M15.135 14.028L13.106 12l1.931-1.931-.087-1.02-.553-.553-2.398 2.398-2.398-2.398-.553.553-.087 1.02L10.892 12l-2.029 2.03 1.107 1.106 2.03-2.03 2.028 2.03 1.107-1.108z" fill="#ACABB1"/><path d="M14.951 9.049l-1.106 1.107a2.609 2.609 0 11-3.69 0L9.05 9.049a4.174 4.174 0 105.903 0z" fill="#6DA544"/></g><defs><clipPath id="clip0_1046_3632"><path fill="#fff" d="M0 0h24v24H0z"/></clipPath></defs></svg>