<svg width="24" height="24" fill="none" xmlns="http://www.w3.org/2000/svg"><g clip-path="url(#clip0_1046_3634)"><path d="M12 0a12.01 12.01 0 00-3.13.413L7.826 12 8.87 23.587c.998.268 2.047.413 3.13.413 6.627 0 12-5.373 12-12 0-6.628-5.373-12-12-12z" fill="#FFDA44"/><path d="M7.826 12L8.87 23.587c.998.27 2.047.413 3.13.413 6.627 0 12-5.372 12-12H7.826z" fill="#6DA544"/><path d="M0 12c0 4.548 2.53 8.505 6.26 10.54V1.46A11.997 11.997 0 000 11.998z" fill="#D80027"/><path d="M0 12c0 5.544 3.76 10.21 8.87 11.586V.413C3.76 1.79 0 6.455 0 11.999z" fill="#D80027"/><path d="M4.535 8.868l.777 2.392h2.514l-2.034 1.478.777 2.391-2.034-1.478L2.5 15.13l.777-2.391-2.034-1.478h2.515l.777-2.392z" fill="#000"/></g><defs><clipPath id="clip0_1046_3634"><path fill="#fff" d="M0 0h24v24H0z"/></clipPath></defs></svg>