<svg width="24" height="24" fill="none" xmlns="http://www.w3.org/2000/svg"><g clip-path="url(#clip0_1046_3638)"><path d="M12 24c6.627 0 12-5.373 12-12S18.627 0 12 0 0 5.373 0 12s5.373 12 12 12z" fill="#F0F0F0"/><path d="M12 23.999a12 12 0 0010.809-6.783H1.19A12 12 0 0012 24zm0-24A12 12 0 001.192 6.782H22.81A12 12 0 0012-.001zM7.385 7.824l.389 1.196H9.03l-1.017.74.388 1.195-1.017-.74-1.017.74.388-1.196L5.74 9.02h1.257l.389-1.196zm0 5.219l.389 1.195H9.03l-1.017.74.388 1.195-1.017-.74-1.017.74.388-1.196-1.017-.739h1.257l.389-1.195zm9.229-5.219l.39 1.196h1.256l-1.017.74.389 1.195-1.018-.74-1.017.74.389-1.196-1.017-.739h1.257l.389-1.196zm0 5.219l.39 1.195h1.256l-1.017.74.389 1.195-1.018-.74-1.017.74.389-1.196-1.017-.739h1.257l.389-1.195zM12 10.433l.388 1.196h1.257l-1.017.74.389 1.195-1.018-.74-1.017.74.389-1.196-1.018-.739h1.258l.388-1.196z" fill="#338AF3"/></g><defs><clipPath id="clip0_1046_3638"><path fill="#fff" d="M0 0h24v24H0z"/></clipPath></defs></svg>