<svg width="24" height="24" fill="none" xmlns="http://www.w3.org/2000/svg"><g clip-path="url(#clip0_1046_3601)"><path d="M24 12c0-1.468-.264-2.874-.746-4.174L12 7.304.746 7.826A11.974 11.974 0 000 12c0 1.468.264 2.874.746 4.174L12 16.696l11.254-.522c.482-1.3.746-2.706.746-4.174z" fill="#F0F0F0"/><path d="M12 24c5.16 0 9.558-3.257 11.253-7.827H.746C2.442 20.743 6.84 24 12 24z" fill="#0052B4"/><path d="M.746 7.827h22.507C21.558 3.257 17.16 0 12 0S2.442 3.257.746 7.827z" fill="#D80027"/><path d="M15.13 8.348h-2.086l.348-2.61 1.391-1.043 1.391 1.044v2.087l-1.043.522zm-6.26 0h2.087l-.348-2.609-1.392-1.043-1.39 1.043v2.087l1.043.522z" fill="#338AF3"/><path d="M13.391 8.348h-2.783V5.739L12 4.696l1.391 1.043v2.609z" fill="#0052B4"/><path d="M7.826 7.826v5.739a4.17 4.17 0 001.678 3.344l.73-.183.923.927a4.173 4.173 0 001.682.001l1.052-.876.605.129a4.169 4.169 0 001.678-3.342v-5.74H7.826z" fill="#F0F0F0"/><path d="M9.496 7.826h-1.67v1.67h1.67v-1.67zm3.339 0h-1.67v1.67h1.67v-1.67zm3.339 0h-1.67v1.67h1.67v-1.67z" fill="#D80027"/><path d="M11.165 9.495h-1.67v1.67h1.67v-1.67zm3.34 0h-1.67v1.67h1.67v-1.67z" fill="#D80027"/><path d="M9.496 11.164h-1.67v1.67h1.67v-1.67zm1.669 1.671h-1.67v1.67h1.67v-1.67zm1.67-1.671h-1.67v1.67h1.67v-1.67zm3.339 0h-1.67v1.67h1.67v-1.67zm-1.669 1.671h-1.67v1.67h1.67v-1.67zm-1.67 1.669h-1.67v1.67h1.67v-1.67zm-3.34 0H7.934a4.16 4.16 0 00.81 1.67h.751v-1.67zm5.01 1.67h.75a4.16 4.16 0 00.812-1.67h-1.562v1.67zm-5.01-.001v.729a4.157 4.157 0 001.67.753v-1.482h-1.67zm3.34 0v1.482a4.155 4.155 0 001.67-.753v-.729h-1.67z" fill="#D80027"/></g><defs><clipPath id="clip0_1046_3601"><path fill="#fff" d="M0 0h24v24H0z"/></clipPath></defs></svg>