<svg width="24" height="24" fill="none" xmlns="http://www.w3.org/2000/svg"><g clip-path="url(#clip0_1046_3729)"><path d="M12 24c6.627 0 12-5.373 12-12S18.627 0 12 0 0 5.373 0 12s5.373 12 12 12z" fill="#F0F0F0"/><path d="M16.517 9.392h-3.012l-1.506-2.609-1.506 2.61H7.48L8.987 12 7.48 14.609h3.013l1.506 2.61 1.506-2.61h3.012l-1.506-2.608 1.506-2.609zm-2.668 2.609l-.925 1.602h-1.85l-.925-1.602.925-1.603h1.85l.925 1.603zM12 8.796l.344.596h-.688L12 8.796zm-2.776 1.602h.689l-.344.597-.345-.597zm0 3.205l.345-.596.344.596h-.689zM12 15.206l-.344-.597h.688l-.344.597zm2.776-1.603h-.69l.345-.596.345.596zm-.69-3.205h.69l-.345.597-.344-.597zM19.47 2.61H4.53a12.06 12.06 0 00-2.77 3.13h20.478a12.064 12.064 0 00-2.769-3.13zM4.53 21.391h14.94a12.06 12.06 0 002.768-3.13H1.761a12.064 12.064 0 002.769 3.13z" fill="#0052B4"/></g><defs><clipPath id="clip0_1046_3729"><path fill="#fff" d="M0 0h24v24H0z"/></clipPath></defs></svg>