<svg width="24" height="24" fill="none" xmlns="http://www.w3.org/2000/svg"><g clip-path="url(#clip0_1046_3647)"><path d="M12 24c6.627 0 12-5.373 12-12S18.627 0 12 0 0 5.373 0 12s5.373 12 12 12z" fill="#D80027"/><path d="M16.444 8.044l-.848 3.027-2.545-.47-1.638-3.377-4.426 1.57-.349-.983-1.158-.143.873 2.459 3.045-.779.866 2.439-2.106 3.107 3.573 3.047-.677.794.455 1.074 1.693-1.985-2.197-2.248 1.68-1.969 3.743.27.852-4.618 1.027.19.702-.931-2.565-.474z" fill="#F0F0F0"/></g><defs><clipPath id="clip0_1046_3647"><path fill="#fff" d="M0 0h24v24H0z"/></clipPath></defs></svg>