<svg width="24" height="24" fill="none" xmlns="http://www.w3.org/2000/svg"><g clip-path="url(#clip0_1046_3581)"><path d="M12 24c6.627 0 12-5.373 12-12S18.627 0 12 0 0 5.373 0 12s5.373 12 12 12z" fill="#F0F0F0"/><path d="M22 13.436c-1 0-1-.915-2-.915s-1 .915-2 .915-1-.915-2-.915-1 .915-2 .915-1-.915-2-.915-1 .915-2 .915-1-.915-2-.915-1 .915-2 .915-1-.915-2-.915-1 .915-2 .915c-.995 0-1-.905-1.984-.914.027.549.093 1.088.192 1.615.797.117.867.899 1.792.899 1 0 1-.915 2-.915s1 .915 2 .915 1-.915 2-.915 1 .915 2 .915 1-.915 2-.915 1 .915 2 .915 1-.915 2-.915 1 .915 2 .915 1-.915 2-.915 1 .915 2 .915c.925 0 .995-.782 1.792-.9.1-.526.165-1.065.192-1.614-.984.01-.99.914-1.984.914zm-2 2.215c-1 0-1 .915-2 .915s-1-.915-2-.915-1 .915-2 .915-1-.915-2-.915-1 .915-2 .915-1-.915-2-.915-1 .915-2 .915-1-.915-2-.915-1 .915-2 .915c-.736 0-.93-.496-1.382-.757a11.94 11.94 0 001.066 2.321c.093.023.198.036.316.036 1 0 1-.915 2-.915s1 .915 2 .915 1-.915 2-.915 1 .915 2 .915 1-.915 2-.915 1 .915 2 .915 1-.915 2-.915 1 .915 2 .915 1-.915 2-.915 1 .915 2 .915c.119 0 .223-.013.317-.036.434-.728.792-1.505 1.066-2.321-.451.261-.646.757-1.383.757-1 0-1-.915-2-.915zm3.721-6.231c-.73.151-.824.886-1.72.886-1 0-1-.914-2-.914s-1 .914-2 .914-1-.914-2-.914-1 .914-2 .914-1-.914-2-.914c-.541 0-.79.267-1.061.512v1.6c.271-.245.52-.512 1.06-.512 1 0 1 .914 2 .914s1-.914 2-.914 1 .914 2 .914 1-.914 2-.914 1 .914 2 .914c.925 0 .995-.782 1.792-.9h.167c-.044-.54-.125-1.07-.238-1.587zm-.876-2.563a1.213 1.213 0 01-.845.319c-1 0-1-.914-2-.914s-1 .914-2 .914-1-.914-2-.914-1 .914-2 .914-1-.914-2-.914c-.54 0-.789.266-1.06.512v1.6c.271-.246.52-.512 1.06-.512 1 0 1 .914 2 .914s1-.914 2-.914 1 .914 2 .914 1-.914 2-.914 1 .914 2 .914c.71 0 .916-.46 1.334-.727a11.902 11.902 0 00-.49-1.192zm-2.759-3.724A1.572 1.572 0 0020 3.13c-1 0-1 .915-2 .915s-1-.915-2-.915-1 .915-2 .915-1-.915-2-.915c-.54 0-.789.267-1.06.513v1.6c.271-.246.52-.513 1.06-.513 1 0 1 .915 2 .915s1-.915 2-.915 1 .915 2 .915 1-.915 2-.915 1 .915 2 .915c.062 0 .12-.004.174-.01a12.059 12.059 0 00-2.088-2.502zM15.067.396c-.275.247-.523.518-1.067.518-1 0-1-.914-2-.914-.518 0-.767.245-1.026.48v1.6c.258-.235.508-.48 1.025-.48 1 0 1 .914 2 .914s1-.914 2-.914 1 .914 2 .914c.42 0 .664-.16.879-.348a11.942 11.942 0 00-3.811-1.77zM14 22.827c-1 0-1-.914-2-.914s-1 .914-2 .914-1-.914-2-.914c-.766 0-.945.536-1.437.787 1.355.69 2.858 1.13 4.45 1.26.245-.226.495-.447.987-.447s.742.221.988.446c1.591-.13 3.094-.57 4.45-1.259-.492-.251-.672-.787-1.438-.787-1 0-1 .914-2 .914zm4-3.129c-1 0-1-.915-2-.915s-1 .915-2 .915-1-.915-2-.915-1 .915-2 .915-1-.915-2-.915-1 .915-2 .915-1-.915-2-.915c-.719 0-.92.473-1.35.739.27.334.555.653.857.956A1.23 1.23 0 014 20.383c1 0 1 .915 2 .915s1-.915 2-.915 1 .915 2 .915 1-.915 2-.915 1 .915 2 .915 1-.915 2-.915 1 .915 2 .915 1-.915 2-.915c.2 0 .358.037.494.095.302-.303.587-.623.856-.956-.428-.266-.63-.739-1.35-.739-1 0-1 .915-2 .915z" fill="#0052B4"/><path d="M11.968 12H12v-.033l-.032.032z" fill="#F0F0F0"/><path d="M12 6.262v3.525L7.826 5.74 12 6.262zM6.261 12h3.525L6.261 7.306l-.522 3.652L6.261 12z" fill="#0052B4"/><path d="M12 6.26V0h-.002C5.372.001 0 5.373 0 12h6.26V8.474L9.787 12h2.182l.032-.032V9.786L8.474 6.261H12z" fill="#F0F0F0"/><path d="M6.071 1.564A12.057 12.057 0 001.565 6.07v5.929h3.13V4.695H12v-3.13H6.071z" fill="#D80027"/><path d="M12 10.523L7.736 6.26H6.261L12 11.999v-1.476z" fill="#D80027"/><path d="M15.652 6.261h4.696L18 8.609 15.652 6.26z" fill="#6DA544"/><path d="M18.522 8.086h-1.043v2.87h1.043v-2.87zm-.001 7.566h-1.044v2.87h1.044v-2.87z" fill="#A2001D"/><path d="M21.13 14.087a1.565 1.565 0 00-2.609-1.166v-.92h.522v-1.044h-.522v-.522h-1.043v.522h-.522V12h.522v.921a1.565 1.565 0 10-2.087 2.333v.92h5.217v-.92a1.56 1.56 0 00.522-1.167z" fill="#FFDA44"/><path d="M19.565 13.565a.514.514 0 00-.347.133l-.696.623h-1.044l-.696-.623a.522.522 0 00-.695.778l.348.31v.344h3.13v-.343l.348-.311a.523.523 0 00-.348-.91z" fill="#D80027"/></g><defs><clipPath id="clip0_1046_3581"><path fill="#fff" d="M0 0h24v24H0z"/></clipPath></defs></svg>