<svg width="24" height="24" fill="none" xmlns="http://www.w3.org/2000/svg"><g clip-path="url(#clip0_1046_3645)"><path d="M12 24c6.627 0 12-5.373 12-12S18.627 0 12 0 0 5.373 0 12s5.373 12 12 12z" fill="#F0F0F0"/><path d="M12 0C6.84 0 2.442 3.255.746 7.824h22.507C21.558 3.255 17.16 0 12 0z" fill="#A2001D"/><path d="M12 24c5.16 0 9.558-3.256 11.253-7.826H.746C2.442 20.744 6.84 24.001 12 24.001z" fill="#000"/><path d="M9.13 11.219H6.817c.116-.45.524-.783 1.01-.783V8.87a2.612 2.612 0 00-2.61 2.608v1.305h3.914a.26.26 0 01.26.26v.522H4.174v1.566h6.782v-2.087a1.828 1.828 0 00-1.826-1.826zm3.914 2.347V8.87h-1.566v6.26h2.61v-1.564h-1.044zm5.216 0V8.87h-1.565v4.696h-.521V12h-1.566v3.13h4.696v-1.564h-1.043z" fill="#496E2D"/></g><defs><clipPath id="clip0_1046_3645"><path fill="#fff" d="M0 0h24v24H0z"/></clipPath></defs></svg>