<svg width="24" height="24" fill="none" xmlns="http://www.w3.org/2000/svg"><g clip-path="url(#clip0_1046_3733)"><path d="M12 24c6.627 0 12-5.373 12-12S18.627 0 12 0 0 5.373 0 12s5.373 12 12 12z" fill="#F0F0F0"/><path d="M21.52 19.307l-7.306-7.306 7.307-7.307a12.129 12.129 0 00-2.214-2.214l-7.306 7.307L4.694 2.48a12.113 12.113 0 00-2.213 2.214L9.787 12 2.48 19.308a12.122 12.122 0 002.214 2.214l7.307-7.307 7.306 7.307a12.122 12.122 0 002.214-2.214z" fill="#D80027"/><path d="M9.913 3.653L12 4.175l2.087-.522V1.879l-.835.417L12 1.044l-1.252 1.252-.835-.417v1.774z" fill="#FFDA44"/><path d="M9.913 3.653v1.304C9.913 6.555 12 7.044 12 7.044s2.087-.49 2.087-2.087V3.653H9.913z" fill="#D80027"/></g><defs><clipPath id="clip0_1046_3733"><path fill="#fff" d="M0 0h24v24H0z"/></clipPath></defs></svg>