<svg width="24" height="24" fill="none" xmlns="http://www.w3.org/2000/svg"><g clip-path="url(#clip0_1046_3731)"><path d="M12 24c6.627 0 12-5.373 12-12S18.627 0 12 0 0 5.373 0 12s5.373 12 12 12z" fill="#FFDA44"/><path d="M19.306 2.48A11.946 11.946 0 0012 0C9.25 0 6.718.925 4.694 2.48L12 9.787l7.306-7.305z" fill="#6DA544"/><path d="M2.48 4.694A11.947 11.947 0 000 11.999c0 2.75.925 5.283 2.48 7.306L9.787 12 2.481 4.694z" fill="#000"/><path d="M4.694 21.519A11.947 11.947 0 0012 23.999c2.75 0 5.282-.925 7.306-2.48L12 14.213l-7.306 7.306z" fill="#6DA544"/><path d="M21.52 19.305A11.946 11.946 0 0024 12c0-2.75-.925-5.282-2.48-7.305L14.214 12l7.306 7.306z" fill="#000"/></g><defs><clipPath id="clip0_1046_3731"><path fill="#fff" d="M0 0h24v24H0z"/></clipPath></defs></svg>