<svg width="24" height="24" fill="none" xmlns="http://www.w3.org/2000/svg"><g clip-path="url(#clip0_1046_3734)"><path d="M12 24c6.627 0 12-5.373 12-12S18.627 0 12 0 0 5.373 0 12s5.373 12 12 12z" fill="#F0F0F0"/><path d="M7.304 7.826h15.95C21.557 3.256 17.158 0 11.998 0a11.96 11.96 0 00-8.484 3.515l3.789 4.311z" fill="#000"/><path d="M7.304 16.174h15.95c-1.696 4.57-6.095 7.827-11.255 7.827a11.96 11.96 0 01-8.484-3.516l3.789-4.31z" fill="#6DA544"/><path d="M3.515 3.514c-4.687 4.686-4.687 12.284 0 16.97L12 12 3.515 3.514z" fill="#D80027"/><path d="M4.763 9.392l.658 1.377 1.488-.344-.667 1.374 1.196.948-1.489.336.004 1.526-1.19-.955-1.191.955.004-1.526-1.49-.336 1.197-.948-.666-1.374 1.487.344.659-1.377z" fill="#F0F0F0"/></g><defs><clipPath id="clip0_1046_3734"><path fill="#fff" d="M0 0h24v24H0z"/></clipPath></defs></svg>