<svg width="24" height="24" fill="none" xmlns="http://www.w3.org/2000/svg"><g clip-path="url(#clip0_1046_3649)"><path d="M12 24c6.627 0 12-5.373 12-12S18.627 0 12 0 0 5.373 0 12s5.373 12 12 12z" fill="#F0F0F0"/><path d="M12 0A12 12 0 001.192 6.781H22.81A12 12 0 0012-.001z" fill="#000"/><path d="M12 24a12 12 0 01-10.809-6.783H22.81A12 12 0 0112 24z" fill="#496E2D"/><path d="M23.433 8.347H.567A11.991 11.991 0 000 12c0 1.274.2 2.5.567 3.652h22.866A11.99 11.99 0 0024 12c0-1.273-.2-2.5-.567-3.652z" fill="#A2001D"/><path d="M15.737 5.545l-1.421-.656L12 10.132 9.685 4.89l-1.421.656L11.138 12l-2.874 6.454 1.42.656L12 13.867l2.316 5.243 1.42-.656L12.863 12l2.875-6.455z" fill="#F0F0F0"/><path d="M12.966 6.163c-.55-.6-.966-.946-.966-.946s-.415.345-.965.946v11.673c.55.6.965.946.965.946s.415-.345.966-.946V6.163z" fill="#F0F0F0"/><path d="M9.392 8.402v7.196a12.585 12.585 0 001.826 2.434V5.968a12.583 12.583 0 00-1.826 2.434zm5.216.001a12.582 12.582 0 00-1.826-2.434v12.064a12.588 12.588 0 001.826-2.434V8.403z" fill="#A2001D"/><path d="M14.608 8.4v7.197c.589-1.043 1.044-2.276 1.044-3.598s-.455-2.555-1.044-3.598zm-5.217 0v7.197c-.588-1.043-1.043-2.276-1.043-3.598S8.803 9.444 9.39 8.4z" fill="#000"/></g><defs><clipPath id="clip0_1046_3649"><path fill="#fff" d="M0 0h24v24H0z"/></clipPath></defs></svg>