<svg width="24" height="24" fill="none" xmlns="http://www.w3.org/2000/svg"><g clip-path="url(#clip0_1046_3652)"><path d="M12 24c6.627 0 12-5.373 12-12S18.627 0 12 0 0 5.373 0 12s5.373 12 12 12z" fill="#D80027"/><path d="M17.868 12l-2.398 1.128 1.277 2.322-2.604-.498-.33 2.63L12 15.649l-1.813 1.935-.33-2.63-2.604.497 1.277-2.322L6.13 12l2.398-1.128L7.252 8.55l2.604.498.33-2.63 1.813 1.934 1.814-1.935.33 2.63 2.604-.497-1.277 2.322L17.868 12z" fill="#FFDA44"/><path d="M12 15.651a3.652 3.652 0 100-7.304 3.652 3.652 0 000 7.304z" fill="#D80027"/><path d="M10.175 12a2.64 2.64 0 00-.26.013c.002.506.185.97.488 1.329a3.66 3.66 0 01.705-1.168 2.593 2.593 0 00-.933-.174zm1.124 1.967a2.082 2.082 0 001.404 0A2.61 2.61 0 0012 12.749a2.61 2.61 0 00-.702 1.218zm2.509-3.01a2.086 2.086 0 00-3.615 0 3.628 3.628 0 011.808.491 3.629 3.629 0 011.807-.49zm-.914 1.217c.303.338.544.734.705 1.168.302-.36.485-.822.489-1.328a2.593 2.593 0 00-1.194.16z" fill="#FFDA44"/></g><defs><clipPath id="clip0_1046_3652"><path fill="#fff" d="M0 0h24v24H0z"/></clipPath></defs></svg>