<svg width="24" height="24" fill="none" xmlns="http://www.w3.org/2000/svg"><g clip-path="url(#clip0_1046_3587)"><path d="M0 12c0 2.08.529 4.035 1.46 5.74L12 18.784l10.54-1.044A11.927 11.927 0 0024 12c0-2.078-.529-4.033-1.46-5.738L12 5.218 1.46 6.262A11.946 11.946 0 000 12z" fill="#D80027"/><path d="M1.459 6.261h21.082A11.997 11.997 0 0012 .001 11.992 11.992 0 001.459 6.26zM12 24c4.548 0 8.506-2.53 10.54-6.26H1.46A11.997 11.997 0 0011.999 24z" fill="#0052B4"/><path d="M16.174 14.347v-1.565h-1.043v-2.087l-1.043-1.043-1.044 1.043V8.608l-1.043-1.043-1.044 1.043v2.087L9.914 9.652 8.87 10.695v2.087H7.827v1.565H6.783v1.566h10.435v-1.566h-1.044z" fill="#F0F0F0"/></g><defs><clipPath id="clip0_1046_3587"><path fill="#fff" d="M0 0h24v24H0z"/></clipPath></defs></svg>