<svg width="24" height="24" fill="none" xmlns="http://www.w3.org/2000/svg"><g clip-path="url(#clip0_1046_3650)"><path d="M0 12C0 5.373 5.373 0 12 0s12 5.373 12 12" fill="#D80027"/><path d="M16.173 11.16l-1.706.802.909 1.652-1.852-.354-.235 1.87-1.29-1.376-1.29 1.377-.234-1.871-1.853.354.909-1.652-1.706-.802 1.706-.802-.909-1.652 1.852.354.235-1.87L12 8.564l1.29-1.376.235 1.871 1.852-.354-.908 1.652 1.705.802zM15.13 3.913h-2.348a.783.783 0 00-1.565 0H8.869c0 .432.377.783.809.783h-.026c0 .432.35.782.782.782 0 .432.35.783.783.783h1.565c.432 0 .783-.35.783-.783.432 0 .782-.35.782-.782h-.026c.433 0 .809-.35.809-.783z" fill="#FFDA44"/><path d="M24 12c0 6.627-5.373 12-12 12S0 18.627 0 12h24z" fill="#F0F0F0"/><path d="M12 24c3.752 0 7.1-1.721 9.3-4.416-.395-.27-.609-.707-1.3-.707-1 0-1 .915-2 .915s-1-.915-2-.915-1 .915-2 .915-1-.915-2-.915-1 .915-2 .915-1-.915-2-.915-1 .915-2 .915-1-.915-2-.915c-.69 0-.904.437-1.3.706a11.976 11.976 0 009.3 4.418zm10-10.469c-1 0-1-.914-2-.914s-1 .914-2 .914-1-.914-2-.914-1 .914-2 .914-1-.914-2-.914-1 .914-2 .914-1-.914-2-.914-1 .914-2 .914-1-.914-2-.914-1 .914-2 .914c-.995 0-1-.904-1.984-.914.027.55.093 1.088.192 1.615.797.117.867.9 1.792.9 1 0 1-.915 2-.915s1 .914 2 .914 1-.914 2-.914 1 .914 2 .914 1-.914 2-.914 1 .914 2 .914 1-.914 2-.914 1 .914 2 .914 1-.914 2-.914 1 .914 2 .914c.925 0 .995-.782 1.792-.899.1-.527.165-1.066.192-1.615-.984.01-.99.914-1.984.914zm-2 2.217c-1 0-1 .914-2 .914s-1-.914-2-.914-1 .914-2 .914-1-.914-2-.914-1 .914-2 .914-1-.914-2-.914-1 .914-2 .914-1-.914-2-.914-1 .914-2 .914c-.715 0-.919-.467-1.342-.733a11.92 11.92 0 001.09 2.311c.076.014.16.022.252.022 1 0 1-.914 2-.914s1 .914 2 .914 1-.914 2-.914 1 .914 2 .914 1-.914 2-.914 1 .914 2 .914 1-.914 2-.914 1 .914 2 .914 1-.914 2-.914 1 .914 2 .914c.092 0 .176-.008.252-.022a11.92 11.92 0 001.09-2.311c-.423.266-.628.733-1.342.733-1 0-1-.914-2-.914z" fill="#0052B4"/><path d="M23.963 11.051c-.963.023-.976.913-1.963.913-1 0-1-.914-2-.914s-1 .914-2 .914-1-.914-2-.914-1 .914-2 .914-1-.914-2-.914-1 .914-2 .914-1-.914-2-.914-1 .914-2 .914-1-.914-2-.914-1 .914-2 .914c-.987 0-1-.89-1.963-.913a12.176 12.176 0 00-.02 1.6c.983.01.99.913 1.983.913 1 0 1-.914 2-.914s1 .914 2 .914 1-.914 2-.914 1 .914 2 .914 1-.914 2-.914 1 .914 2 .914 1-.914 2-.914 1 .914 2 .914 1-.914 2-.914 1 .914 2 .914c.994 0 1-.902 1.982-.914a12.231 12.231 0 00-.02-1.599z" fill="#F0F0F0"/></g><defs><clipPath id="clip0_1046_3650"><path fill="#fff" d="M0 0h24v24H0z"/></clipPath></defs></svg>