<svg width="24" height="24" fill="none" xmlns="http://www.w3.org/2000/svg"><g clip-path="url(#clip0_1046_3598)"><path d="M12 24c6.627 0 12-5.373 12-12S18.627 0 12 0 0 5.373 0 12s5.373 12 12 12z" fill="#F0F0F0"/><path d="M24 11.965H10.99c-2.583 2.583-4.144 4.577-5.739 6.172l6.783.61 10.525-1.043A11.946 11.946 0 0024 12v-.035z" fill="#D80027"/><path d="M5.253 6.226h17.269A11.997 11.997 0 0012.001 0a11.96 11.96 0 00-8.468 3.498l1.72 2.728z" fill="#FFDA44"/><path d="M5.773 17.704c-1.079 1.079-1.495 1.983-2.276 2.763A11.962 11.962 0 0012 24c4.563 0 8.53-2.547 10.56-6.296H5.773z" fill="#0052B4"/><path d="M3.515 3.48c-4.687 4.687-4.687 12.285 0 16.971L12 11.966 3.515 3.48z" fill="#6DA544"/><path d="M3.166 11.965a3.653 3.653 0 012.87-3.568 3.652 3.652 0 100 7.134 3.653 3.653 0 01-2.87-3.566z" fill="#F0F0F0"/><path d="M5.996 8.835l.194.598h.629l-.509.37.194.597-.508-.37-.509.37.194-.598-.508-.37H5.8l.195-.597zm0 1.565l.194.598h.629l-.509.37.194.597-.508-.37-.509.37.194-.598-.508-.37H5.8l.195-.597zm0 1.565l.194.597h.629l-.509.37.194.598-.508-.37-.509.37.194-.598-.508-.37H5.8l.195-.597zm0 1.565l.194.598h.629l-.509.369.194.598-.508-.37-.509.37.194-.598-.508-.37H5.8l.195-.597z" fill="#F0F0F0"/></g><defs><clipPath id="clip0_1046_3598"><path fill="#fff" d="M0 0h24v24H0z"/></clipPath></defs></svg>