<svg width="24" height="24" fill="none" xmlns="http://www.w3.org/2000/svg"><g clip-path="url(#clip0_1046_3699)"><path d="M12 24c6.627 0 12-5.373 12-12S18.627 0 12 0 0 5.373 0 12s5.373 12 12 12z" fill="#FFDA44"/><path d="M3.515 20.485c.504.503 1.04.953 1.604 1.348L21.834 5.119a12.065 12.065 0 00-2.952-2.952L2.168 18.881c.395.564.844 1.1 1.347 1.604z" fill="#000"/><path d="M3.514 3.515C-.272 7.3-.998 12.986 1.333 17.502L17.502 1.333C12.986-.997 7.3-.27 3.514 3.515z" fill="#6DA544"/><path d="M20.485 20.485c3.786-3.786 4.513-9.472 2.182-13.988L6.498 22.667c4.516 2.33 10.202 1.603 13.987-2.182z" fill="#D80027"/><path d="M7.63 14.158l1.12.57.889-.888-.197 1.241 1.12.571-1.241.197-.197 1.241-.57-1.12-1.242.197.889-.889-.571-1.12zm6.526-6.528l1.12.571.89-.889-.197 1.242 1.12.57-1.242.198-.197 1.241-.57-1.12-1.242.197.889-.89-.57-1.12z" fill="#F0F0F0"/></g><defs><clipPath id="clip0_1046_3699"><path fill="#fff" d="M0 0h24v24H0z"/></clipPath></defs></svg>