<svg width="24" height="24" fill="none" xmlns="http://www.w3.org/2000/svg"><g clip-path="url(#clip0_1046_3651)"><path d="M23.254 16.173c.482-1.3.746-2.706.746-4.174 0-1.468-.264-2.874-.746-4.174L12 6.782.746 7.825A11.974 11.974 0 000 12c0 1.468.264 2.874.746 4.174L12 17.217l11.254-1.044z" fill="#F0F0F0"/><path d="M12 24c5.16 0 9.559-3.257 11.254-7.826H.747C2.443 20.744 6.841 24 12.001 24z" fill="#D80027"/><path d="M12 0C6.84 0 2.442 3.256.746 7.826h22.507C21.558 3.256 17.16 0 12 0z" fill="#6DA544"/><path d="M3.515 3.515c-4.687 4.686-4.687 12.284 0 16.97l4.311-4.311V7.826L3.515 3.515z" fill="#000"/></g><defs><clipPath id="clip0_1046_3651"><path fill="#fff" d="M0 0h24v24H0z"/></clipPath></defs></svg>