<svg width="24" height="24" fill="none" xmlns="http://www.w3.org/2000/svg"><g clip-path="url(#clip0_1046_3590)"><path d="M24 12c0 6.627-5.373 12-12 12S0 18.627 0 12C0 12.003 12 .001 12 0c6.627 0 12 5.373 12 12z" fill="#0052B4"/><path d="M11.969 12H12v-.032l-.032.032zM12 6.26V0h-.002C5.371 0 0 5.373 0 12h6.26V8.474l3.526 3.525h2.182l.032-.032V9.786L8.474 6.26H12z" fill="#F0F0F0"/><path d="M17.217 8.87a2.087 2.087 0 100-4.175 2.087 2.087 0 000 4.174z" fill="#6DA544"/><path d="M6.07 1.565a12.057 12.057 0 00-4.506 4.506v5.93h3.13V4.695H12v-3.13H6.07z" fill="#D80027"/><path d="M11.999 10.524L7.735 6.26H6.26L11.999 12v-1.476zm8.87-4.264h-7.304v3.131h7.304v-3.13z" fill="#D80027"/><path d="M13.565 14.087v2.087h1.098a3.638 3.638 0 002.555 1.043 3.64 3.64 0 002.554-1.043h1.098v-2.087h-7.305z" fill="#FFDA44"/><path d="M13.565 8.869v3.13c0 2.796 3.653 3.653 3.653 3.653S20.87 14.795 20.87 12V8.868h-7.305z" fill="#338AF3"/><path d="M17.217 10.54c-.913 0-.913.835-1.826.835s-.913-.835-1.826-.835v1.461c.913 0 .913.835 1.826.835s.913-.835 1.826-.835.913.835 1.827.835c.913 0 .913-.835 1.826-.835v-1.46c-.913 0-.913.834-1.826.834-.914 0-.914-.835-1.827-.835zm0-2.923c-.913 0-.913.834-1.826.834s-.913-.834-1.826-.834v1.46c.913 0 .913.835 1.826.835s.913-.834 1.826-.834.913.834 1.827.834c.913 0 .913-.834 1.826-.834V7.617c-.913 0-.913.834-1.826.834-.914 0-.914-.834-1.827-.834z" fill="#F3F3F3"/></g><defs><clipPath id="clip0_1046_3590"><path fill="#fff" d="M0 0h24v24H0z"/></clipPath></defs></svg>