<svg width="24" height="24" fill="none" xmlns="http://www.w3.org/2000/svg"><g clip-path="url(#clip0_1046_3653)"><path d="M22.809 6.782a12 12 0 00-10.81-6.783A12 12 0 001.19 6.782L12 7.825l10.809-1.043zM1.19 17.216A12 12 0 0012 24a12 12 0 0010.809-6.783l-10.81-1.043L1.19 17.216z" fill="#D80027"/><path d="M22.81 6.782H1.19A11.952 11.952 0 000 11.999c0 1.87.428 3.64 1.19 5.217h21.62A11.95 11.95 0 0024 12c0-1.87-.428-3.64-1.19-5.217z" fill="#0052B4"/><path d="M12 16.174a4.174 4.174 0 100-8.348 4.174 4.174 0 000 8.348z" fill="#F0F0F0"/></g><defs><clipPath id="clip0_1046_3653"><path fill="#fff" d="M0 0h24v24H0z"/></clipPath></defs></svg>