<svg width="24" height="24" fill="none" xmlns="http://www.w3.org/2000/svg"><g clip-path="url(#clip0_1046_3655)"><path d="M12 24c6.627 0 12-5.373 12-12S18.627 0 12 0 0 5.373 0 12s5.373 12 12 12z" fill="#F0F0F0"/><path d="M12 0A12 12 0 001.19 6.781h21.62A12 12 0 0012-.002zm0 24a12 12 0 0010.809-6.783H1.19A12 12 0 0012 23.999z" fill="#D80027"/><path d="M15.131 14.086l-3.13-5.739-3.13 5.74h2.347v1.564h1.565v-1.565h2.348z" fill="#6DA544"/></g><defs><clipPath id="clip0_1046_3655"><path fill="#fff" d="M0 0h24v24H0z"/></clipPath></defs></svg>