<svg width="24" height="24" fill="none" xmlns="http://www.w3.org/2000/svg"><g clip-path="url(#clip0_1046_3659)"><path d="M24 12c0 6.627-5.373 12-12 12S0 18.627 0 12c.522 0 12-1.566 12-1.566L24 12z" fill="#D80027"/><path d="M0 12C0 5.373 5.373 0 12 0s12 5.373 12 12" fill="#0052B4"/><path d="M8.87 8.347a1.565 1.565 0 00-2.608-1.166v-.92h.521V5.216h-.521v-.522H5.218v.522h-.522V6.26h.522v.921a1.565 1.565 0 00-2.087 2.333v.92h5.217v-.92a1.56 1.56 0 00.522-1.167z" fill="#FFDA44"/></g><defs><clipPath id="clip0_1046_3659"><path fill="#fff" d="M0 0h24v24H0z"/></clipPath></defs></svg>