<svg width="24" height="24" fill="none" xmlns="http://www.w3.org/2000/svg"><g clip-path="url(#clip0_1046_3656)"><path d="M0 12c0 1.87.428 3.64 1.19 5.217L12 17.74l10.81-.522A11.952 11.952 0 0024 12c0-1.87-.428-3.64-1.19-5.217L12 6.26l-10.81.521A11.952 11.952 0 000 12z" fill="#F0F0F0"/><path d="M12 24a12 12 0 0010.81-6.783H1.191A12 12 0 0012.001 24z" fill="#6DA544"/><path d="M12 0A12 12 0 001.192 6.781H22.81A12 12 0 0012-.001z" fill="#0052B4"/><path d="M12.783 11.74V8.87h-1.565v2.87l-1.89 1.89a3.128 3.128 0 005.345 0l-1.89-1.89z" fill="#000"/></g><defs><clipPath id="clip0_1046_3656"><path fill="#fff" d="M0 0h24v24H0z"/></clipPath></defs></svg>