<svg width="24" height="24" fill="none" xmlns="http://www.w3.org/2000/svg"><g clip-path="url(#clip0_1046_3660)"><path d="M23.254 16.174c.482-1.3.746-2.706.746-4.173 0-1.468-.264-2.874-.746-4.174L12 6.783.746 7.827A11.973 11.973 0 000 12c0 1.467.264 2.873.746 4.173L12 17.218l11.254-1.044z" fill="#6DA544"/><path d="M23.253 7.826C21.558 3.256 17.16 0 12 0S2.442 3.256.746 7.826h22.507z" fill="#FFDA44"/><path d="M12 24c5.16 0 9.559-3.256 11.254-7.825H.747C2.443 20.745 6.841 24 12.001 24z" fill="#D80027"/></g><defs><clipPath id="clip0_1046_3660"><path fill="#fff" d="M0 0h24v24H0z"/></clipPath></defs></svg>