<svg width="24" height="24" fill="none" xmlns="http://www.w3.org/2000/svg"><g clip-path="url(#clip0_1046_3658)"><path d="M1.19 6.783A11.952 11.952 0 000 12c0 1.87.428 3.64 1.19 5.218L12 18.26l10.81-1.043A11.953 11.953 0 0024 12c0-1.87-.428-3.64-1.19-5.217L12 5.739 1.19 6.783z" fill="#000"/><path d="M1.191 17.217a12 12 0 0010.81 6.782 12 12 0 0010.808-6.782H1.191z" fill="#496E2D"/><path d="M1.191 6.783H22.81A12 12 0 0012 0 12 12 0 001.191 6.783z" fill="#D80027"/><path d="M14.793 9.805l.985 1.357 1.594-.517L16.386 12l.984 1.357-1.594-.519-.986 1.356.001-1.677-1.594-.519 1.595-.517V9.805z" fill="#F0F0F0"/><path d="M12.106 15.39a3.391 3.391 0 111.613-6.375 4.174 4.174 0 100 5.967c-.48.26-1.029.408-1.613.408z" fill="#F0F0F0"/></g><defs><clipPath id="clip0_1046_3658"><path fill="#fff" d="M0 0h24v24H0z"/></clipPath></defs></svg>