<svg width="24" height="24" fill="none" xmlns="http://www.w3.org/2000/svg"><g clip-path="url(#clip0_1046_3672)"><path d="M12 24c6.627 0 12-5.373 12-12S18.627 0 12 0 0 5.373 0 12s5.373 12 12 12z" fill="#D80027"/><path d="M19.092 9.848h-5.417L12 4.695l-1.674 5.153H4.909l4.383 3.184-1.674 5.152L12 15l4.383 3.185-1.674-5.153 4.382-3.184zm-8.573 2.785l.566-1.742h1.832l.566 1.742L12 13.71l-1.482-1.077zm2.059-2.785h-1.154L12 8.072l.577 1.776zm1.793 2.14l-.357-1.097h1.867l-1.51 1.098zm-4.383-1.097L9.63 11.99l-1.51-1.098h1.867zm-.385 4.562l.577-1.776.933.678-1.51 1.098zm3.285-1.098l.934-.678.577 1.776-1.51-1.098z" fill="#FFDA44"/></g><defs><clipPath id="clip0_1046_3672"><path fill="#fff" d="M0 0h24v24H0z"/></clipPath></defs></svg>