<svg width="24" height="24" fill="none" xmlns="http://www.w3.org/2000/svg"><g clip-path="url(#clip0_1046_3667)"><path d="M17.218 1.191A11.952 11.952 0 0012 .001c-1.87 0-3.64.427-5.217 1.19l-1.044 10.81L6.783 22.81A11.953 11.953 0 0012 24c1.87 0 3.64-.427 5.218-1.19L18.26 12 17.218 1.192z" fill="#FFDA44"/><path d="M6.783 1.192A12 12 0 000 12.001 12 12 0 006.783 22.81V1.192z" fill="#0052B4"/><path d="M17.218 1.192V22.81A12 12 0 0024 12a12 12 0 00-6.782-10.809z" fill="#D80027"/><path d="M16.174 9.442h-2.87a1.304 1.304 0 00-2.608 0h-2.87c0 .71.618 1.284 1.327 1.284H9.11c0 .71.575 1.285 1.285 1.285 0 .628.45 1.15 1.046 1.261l-1.012 2.285a4.161 4.161 0 003.142 0l-1.012-2.285a1.284 1.284 0 001.046-1.261c.71 0 1.285-.575 1.285-1.284h-.043c.71 0 1.327-.575 1.327-1.285z" fill="#FF9811"/><path d="M12 11.218L10.305 12v1.566L12 14.609l1.696-1.043V12L12 11.218z" fill="#0052B4"/><path d="M13.696 10.434h-3.391V12h3.391v-1.565z" fill="#D80027"/></g><defs><clipPath id="clip0_1046_3667"><path fill="#fff" d="M0 0h24v24H0z"/></clipPath></defs></svg>