<svg width="24" height="24" fill="none" xmlns="http://www.w3.org/2000/svg"><g clip-path="url(#clip0_1046_3670)"><path d="M12 24c6.627 0 12-5.373 12-12S18.627 0 12 0 0 5.373 0 12s5.373 12 12 12z" fill="#FFDA44"/><path d="M24 12c0-4.119-2.075-7.752-5.236-9.913H5.237A11.987 11.987 0 000 12c0 4.118 2.075 7.752 5.237 9.913h13.526A11.986 11.986 0 0024 12z" fill="#A2001D"/><path d="M9.392 8.87h5.217V6.783l-1.043.522L12 5.74l-1.565 1.565-1.043-.522V8.87zM16.696 12h-2.608a1.204 1.204 0 10-2.104-1.169 1.204 1.204 0 10-2.103 1.17H7.305c0 .797.695 1.444 1.493 1.444H8.75c0 .655.435 1.207 1.032 1.385l-1.173 1.173 1.107 1.106 1.57-1.57c.061.023.125.04.19.053l-.948 2.142a3.899 3.899 0 002.945 0l-.949-2.142a1.1 1.1 0 00.191-.053l1.57 1.57 1.107-1.106-1.173-1.173a1.445 1.445 0 001.032-1.385h-.048c.798 0 1.493-.647 1.493-1.445z" fill="#FFDA44"/><path d="M12 12.783l-1.695.782v1.566L12 16.174l1.696-1.043v-1.566L12 12.783z" fill="#6DA544"/><path d="M13.696 12h-3.391v2.086h3.391V12z" fill="#0052B4"/></g><defs><clipPath id="clip0_1046_3670"><path fill="#fff" d="M0 0h24v24H0z"/></clipPath></defs></svg>