<svg width="24" height="24" fill="none" xmlns="http://www.w3.org/2000/svg"><g clip-path="url(#clip0_1046_3663)"><path d="M12 24c6.627 0 12-5.373 12-12S18.627 0 12 0 0 5.373 0 12s5.373 12 12 12z" fill="#F0F0F0"/><path d="M7.826 12v11.253c1.3.482 2.706.747 4.174.747 6.627 0 12-5.373 12-12 0-6.628-16.174 0-16.174 0z" fill="#6DA544"/><path d="M12 0a11.96 11.96 0 00-4.174.747V12H24c0-6.627-5.373-12-12-12z" fill="#D80027"/></g><defs><clipPath id="clip0_1046_3663"><path fill="#fff" d="M0 0h24v24H0z"/></clipPath></defs></svg>