<svg width="24" height="24" fill="none" xmlns="http://www.w3.org/2000/svg"><g clip-path="url(#clip0_1046_3692)"><path d="M12 24c6.627 0 12-5.373 12-12S18.627 0 12 0 0 5.373 0 12s5.373 12 12 12z" fill="#FFDA44"/><path d="M13.826 23.862a11.935 11.935 0 005.271-2.185L12.001 12l1.825 11.862zM10.176.138a11.937 11.937 0 00-5.272 2.185L12.001 12 10.176.138zM4.904 21.677a11.938 11.938 0 005.272 2.186L12 12l-7.097 9.677zM2.324 4.902a11.937 11.937 0 00-2.185 5.272L12 11.999 2.324 4.902zM.139 13.825a11.936 11.936 0 002.185 5.272L12 12 .139 13.825z" fill="#D80027"/><path d="M23.863 10.174a11.937 11.937 0 00-2.185-5.271L12 11.999l11.862-1.825z" fill="#D80027"/><path d="M19.097 2.323A11.936 11.936 0 0013.826.138L12 12l7.096-9.677zm2.581 16.774a11.937 11.937 0 002.185-5.272L12.001 12l9.677 7.097z" fill="#D80027"/><path d="M12.001 16.174a4.174 4.174 0 100-8.347 4.174 4.174 0 000 8.347z" fill="#D80027"/><path d="M12 15.13a3.13 3.13 0 100-6.261 3.13 3.13 0 000 6.26z" fill="#FFDA44"/></g><defs><clipPath id="clip0_1046_3692"><path fill="#fff" d="M0 0h24v24H0z"/></clipPath></defs></svg>