<svg width="24" height="24" fill="none" xmlns="http://www.w3.org/2000/svg"><g clip-path="url(#clip0_1046_3669)"><path d="M12 24c1.467 0 2.873-.263 4.173-.746l.522-11.253L16.173.747A11.975 11.975 0 0012 .001c-1.468 0-2.874.264-4.174.746l-.521 11.254.521 11.253c1.3.483 2.706.747 4.174.747z" fill="#0052B4"/><path d="M0 12c0 5.16 3.256 9.558 7.826 11.254V.746C3.256 2.442 0 6.84 0 12zM16.174.746v22.507C20.744 21.558 24 17.16 24 12S20.743 2.44 16.174.746z" fill="#A2001D"/><path d="M6.783 11.999H5.739v4.174h1.044v-4.174zm-4.174 0H1.565v4.174H2.61v-4.174zm1.565 2.609a1.044 1.044 0 100-2.087 1.044 1.044 0 000 2.087zm0-4.174a.522.522 0 100-1.044.522.522 0 000 1.044zm1.044 4.695H3.13v1.043h2.087V15.13zm0-4.174H3.13V12h2.087v-1.044zM4.175 6.26l.37 1.137H5.74l-.967.703.369 1.137-.967-.703-.968.703.37-1.137-.968-.703h1.196l.37-1.137z" fill="#FFDA44"/></g><defs><clipPath id="clip0_1046_3669"><path fill="#fff" d="M0 0h24v24H0z"/></clipPath></defs></svg>