<svg width="24" height="24" fill="none" xmlns="http://www.w3.org/2000/svg"><g clip-path="url(#clip0_1046_3745)"><path d="M12 24c6.627 0 12-5.373 12-12S18.627 0 12 0 0 5.373 0 12s5.373 12 12 12z" fill="#338AF3"/><path d="M11.622 19.556a.782.782 0 01-.696-.511.783.783 0 01-1.397-.36.784.784 0 01-1.294-.635.782.782 0 01-1.14-.882.781.781 0 01-.94-1.092.783.783 0 01-.701-1.26.782.782 0 01-.433-1.375.782.782 0 01-.147-1.433.783.783 0 01.143-1.434.783.783 0 01.43-1.376.784.784 0 01.7-1.26.782.782 0 01.937-1.095.782.782 0 011.137-.885.783.783 0 011.294-.637.783.783 0 011.394-.363.783.783 0 011.44-.075.783.783 0 011.425.215.783.783 0 011.353.499.783.783 0 011.224.76.783.783 0 011.046.991.783.783 0 01.827 1.18.784.784 0 01.571 1.325.782.782 0 01.293 1.41c.28.12.476.396.477.72V12a.784.784 0 01-.476.72.782.782 0 01-.29 1.412.783.783 0 01-.568 1.325.783.783 0 01-.824 1.183.784.784 0 01-1.044.993.784.784 0 01-1.222.764.784.784 0 01-1.352.502.783.783 0 01-1.425.217.782.782 0 01-.742.44z" fill="#F3F3F3"/><path d="M12 17.218a5.217 5.217 0 100-10.434 5.217 5.217 0 000 10.434z" fill="#338AF3"/><path d="M13.142 10.229a1.04 1.04 0 00.423-.838V8.87c0-.576-.467-1.043-1.043-1.043h-1.044c-.576 0-1.043.467-1.043 1.043v.522c0 .344.167.648.423.838l-.945 9.597s.522.522 2.087.522c1.565 0 2.087-.522 2.087-.522l-.945-9.597z" fill="#BDBCC1"/><path d="M12 7.826l.907 2.79h2.933l-2.373 1.724.906 2.79L12 13.406 9.627 15.13l.906-2.79-2.373-1.724h2.934L12 7.826z" fill="#F0F0F0"/></g><defs><clipPath id="clip0_1046_3745"><path fill="#fff" d="M0 0h24v24H0z"/></clipPath></defs></svg>