<svg width="24" height="24" fill="none" xmlns="http://www.w3.org/2000/svg"><g clip-path="url(#clip0_1046_3738)"><path d="M12 24c6.627 0 12-5.373 12-12S18.627 0 12 0 0 5.373 0 12s5.373 12 12 12z" fill="#F0F0F0"/><path d="M23.896 10.435a11.946 11.946 0 00-3.412-6.92 11.946 11.946 0 00-6.92-3.412v10.332h10.332zM10.434.104a11.946 11.946 0 00-6.92 3.412 11.947 11.947 0 00-3.411 6.92h10.332V.104zM.103 13.566a11.947 11.947 0 003.411 6.92 11.947 11.947 0 006.92 3.412V13.566H.104zm13.462 10.332a11.946 11.946 0 006.92-3.412 11.947 11.947 0 003.411-6.92H13.564v10.332z" fill="#0052B4"/><path d="M16.096 7.615c0-.16.13-.29.29-.29h.62a1.778 1.778 0 00-.001-3.554h-.588a1.224 1.224 0 00-.735-.233c-.593 0-1.074.385-1.074.86 0 .469.472.85 1.057.858v.003h1.34a.29.29 0 010 .579h-.62c-.98 0-1.777.797-1.777 1.777 0 .98.797 1.777 1.777 1.777h2.397V7.904h-2.397a.29.29 0 01-.289-.29zm-9.392 0c0-.16.13-.29.29-.29h.62A1.78 1.78 0 009.39 5.55a1.78 1.78 0 00-1.777-1.777h-.59a1.225 1.225 0 00-.733-.234c-.593 0-1.074.385-1.074.86 0 .47.471.85 1.057.858v.003h1.34a.29.29 0 010 .579h-.62c-.98 0-1.777.797-1.777 1.777 0 .98.797 1.777 1.777 1.777H9.39V7.904H6.994a.29.29 0 01-.29-.29zm9.392 11.071c0-.16.13-.29.29-.29h.62a1.78 1.78 0 001.776-1.776 1.78 1.78 0 00-1.777-1.777h-.588a1.225 1.225 0 00-.735-.234c-.593 0-1.074.385-1.074.86 0 .47.472.85 1.057.858v.003h1.34a.29.29 0 010 .579h-.62c-.98 0-1.777.797-1.777 1.777 0 .98.797 1.777 1.777 1.777h2.397v-1.488h-2.397a.29.29 0 01-.289-.29zm-9.392 0c0-.16.13-.29.29-.29h.62A1.78 1.78 0 009.39 16.62a1.78 1.78 0 00-1.777-1.777h-.589a1.224 1.224 0 00-.734-.234c-.593 0-1.074.385-1.074.86 0 .47.471.85 1.057.858v.003h1.34a.29.29 0 010 .579h-.62c-.98 0-1.777.797-1.777 1.777 0 .98.797 1.777 1.777 1.777H9.39v-1.488H6.994a.29.29 0 01-.29-.29z" fill="#F0F0F0"/></g><defs><clipPath id="clip0_1046_3738"><path fill="#fff" d="M0 0h24v24H0z"/></clipPath></defs></svg>