<svg width="24" height="24" fill="none" xmlns="http://www.w3.org/2000/svg"><g clip-path="url(#clip0_1046_3671)"><path d="M24 12c0 6.627-5.373 12-12 12S0 18.627 0 12C0 12.003 12 .001 12 0c6.627 0 12 5.373 12 12z" fill="#0052B4"/><path d="M11.968 12H12v-.033l-.032.033z" fill="#F0F0F0"/><path d="M12 6.261V.001h-.002C5.371 0 0 5.373 0 12h6.26V8.474L9.787 12h2.182l.032-.032V9.787L8.474 6.26H12z" fill="#F0F0F0"/><path d="M6.071 1.565a12.057 12.057 0 00-4.506 4.506v5.93h3.13V4.695H12v-3.13H6.071z" fill="#D80027"/><path d="M12 10.524L7.738 6.261H6.262L12 12v-1.476z" fill="#D80027"/><path d="M13.565 6.26V12c0 2.795 3.653 3.652 3.653 3.652S20.87 14.795 20.87 12V6.26h-7.305z" fill="#338AF3"/><path d="M13.565 12c0 2.795 3.653 3.651 3.653 3.651S20.87 14.795 20.87 12h-7.305z" fill="#A2001D"/><path d="M18.783 8.87h-1.044V7.825h-1.043v1.043h-1.044v1.044h1.044v3.13h1.043v-3.13h1.044V8.869z" fill="#000"/></g><defs><clipPath id="clip0_1046_3671"><path fill="#fff" d="M0 0h24v24H0z"/></clipPath></defs></svg>