<svg width="24" height="24" fill="none" xmlns="http://www.w3.org/2000/svg"><g clip-path="url(#clip0_1046_3740)"><path d="M1.459 6.26l10.54 1.044L22.542 6.26A11.997 11.997 0 0012 0C7.45 0 3.494 2.53 1.459 6.26z" fill="#D80027"/><path d="M1.46 17.738L12 18.782l10.54-1.044A11.922 11.922 0 0024 12l-12-1.043L0 12c0 2.08.529 4.034 1.46 5.74z" fill="#FFDA44"/><path d="M1.46 6.261A11.946 11.946 0 000 12.001h24c0-2.08-.529-4.035-1.46-5.74H1.46z" fill="#0052B4"/><path d="M12 24c4.548 0 8.506-2.531 10.54-6.261H1.46A11.997 11.997 0 0012 23.999z" fill="#6DA544"/></g><defs><clipPath id="clip0_1046_3740"><path fill="#fff" d="M0 0h24v24H0z"/></clipPath></defs></svg>