<svg width="24" height="24" fill="none" xmlns="http://www.w3.org/2000/svg"><g clip-path="url(#clip0_1046_3664)"><path d="M0 12c0 1.468.264 2.874.746 4.174L12 16.695l11.254-.521c.482-1.3.746-2.706.746-4.174 0-1.468-.264-2.874-.746-4.174L12 7.304.746 7.826A11.975 11.975 0 000 12z" fill="#D80027"/><path d="M12 0C6.84 0 2.442 3.256.746 7.826h22.507C21.558 3.256 17.16 0 12 0z" fill="#000"/><path d="M23.253 16.175H.746C2.442 20.745 6.84 24 12 24c5.16 0 9.558-3.257 11.253-7.826z" fill="#496E2D"/><path d="M15.586 5.74l-1.465-.69.78-1.419-1.591.305-.202-1.608L12 3.51l-1.11-1.182-.201 1.608-1.592-.305.78 1.42-1.465.689h7.173z" fill="#D80027"/></g><defs><clipPath id="clip0_1046_3664"><path fill="#fff" d="M0 0h24v24H0z"/></clipPath></defs></svg>