<svg width="24" height="24" fill="none" xmlns="http://www.w3.org/2000/svg"><g clip-path="url(#clip0_1046_3665)"><path d="M12 24c6.627 0 12-5.373 12-12S18.627 0 12 0 0 5.373 0 12s5.373 12 12 12z" fill="#F0F0F0"/><path d="M11.479 12H24a12.01 12.01 0 00-.413-3.13H11.479V12zm0-6.261h10.76a12.063 12.063 0 00-2.769-3.13h-7.99v3.13zM12.001 24c2.824 0 5.42-.976 7.47-2.608H4.531A11.95 11.95 0 0012.001 24zM1.762 18.26h20.477a11.933 11.933 0 001.348-3.13H.414a11.89 11.89 0 001.348 3.13z" fill="#D80027"/><path d="M12 12V0C5.373 0 0 5.373 0 12h12z" fill="#0052B4"/><path d="M7.98 10.27a2.967 2.967 0 111.412-5.577 3.652 3.652 0 100 5.221 2.95 2.95 0 01-1.412.357z" fill="#FFDA44"/><path d="M8.816 5.217l.527 1.102 1.19-.275L10 7.143l.957.759-1.191.268.003 1.221-.953-.764-.952.764.003-1.22-1.191-.27.957-.758L7.1 6.044l1.19.275.526-1.102z" fill="#FFDA44"/></g><defs><clipPath id="clip0_1046_3665"><path fill="#fff" d="M0 0h24v24H0z"/></clipPath></defs></svg>