<svg width="24" height="24" fill="none" xmlns="http://www.w3.org/2000/svg"><g clip-path="url(#clip0_1046_3675)"><path d="M12 24c6.627 0 12-5.373 12-12S18.627 0 12 0 0 5.373 0 12s5.373 12 12 12z" fill="#F0F0F0"/><path d="M3.515 20.485c.503.503 1.04.952 1.603 1.348L21.833 5.117a12.068 12.068 0 00-2.952-2.951L2.167 18.88c.395.563.844 1.1 1.348 1.604z" fill="#A2001D"/><path d="M3.515 3.515C-.27 7.3-.997 12.986 1.333 17.502l16.17-16.169C12.987-.997 7.3-.27 3.515 3.515z" fill="#0052B4"/><path d="M20.485 20.485c3.786-3.786 4.513-9.472 2.182-13.988L6.498 22.667c4.516 2.33 10.202 1.603 13.987-2.182z" fill="#496E2D"/><path d="M9.914 6.782l-1.345.632.716 1.303-1.46-.28-.185 1.475-1.017-1.085-1.017 1.085-.185-1.475-1.46.28.716-1.303-1.345-.632 1.345-.633-.716-1.302 1.46.28.185-1.476 1.017 1.085L7.64 3.651l.185 1.475 1.46-.279-.716 1.302 1.345.633z" fill="#FFDA44"/></g><defs><clipPath id="clip0_1046_3675"><path fill="#fff" d="M0 0h24v24H0z"/></clipPath></defs></svg>