<svg width="24" height="24" fill="none" xmlns="http://www.w3.org/2000/svg"><g clip-path="url(#clip0_1046_3681)"><path d="M1.19 6.782A11.952 11.952 0 000 12c0 1.87.428 3.64 1.19 5.218L12 18.26l10.81-1.043A11.953 11.953 0 0024 12c0-1.87-.428-3.64-1.19-5.218L12 5.74 1.19 6.782z" fill="#F0F0F0"/><path d="M1.19 17.218A12 12 0 0012 24.001a12 12 0 0010.808-6.783H1.19z" fill="#6DA544"/><path d="M1.19 6.782h21.618A12 12 0 0012 0 12 12 0 001.19 6.782zM12 16.174a4.174 4.174 0 100-8.348 4.174 4.174 0 000 8.348z" fill="#FF9811"/></g><defs><clipPath id="clip0_1046_3681"><path fill="#fff" d="M0 0h24v24H0z"/></clipPath></defs></svg>