<svg width="24" height="24" fill="none" xmlns="http://www.w3.org/2000/svg"><g clip-path="url(#clip0_1046_3743)"><path d="M17.216 1.19A11.952 11.952 0 0012 0c-1.87 0-3.64.428-5.217 1.19L5.738 12l1.044 10.809a11.951 11.951 0 005.217 1.19c1.87 0 3.64-.427 5.217-1.19l1.044-10.81L17.216 1.19z" fill="#F0F0F0"/><path d="M6.783 1.191A12 12 0 000 12.001a12 12 0 006.783 10.808V1.19zm10.434 0V22.81A12 12 0 0023.999 12a12 12 0 00-6.782-10.809zm-2.086 14.461l-3.13-9.913-3.13 9.913h2.347v2.608h1.565v-2.608h2.348z" fill="#6DA544"/></g><defs><clipPath id="clip0_1046_3743"><path fill="#fff" d="M0 0h24v24H0z"/></clipPath></defs></svg>