<svg width="24" height="24" fill="none" xmlns="http://www.w3.org/2000/svg"><g clip-path="url(#clip0_1046_3680)"><path d="M12 24c6.627 0 12-5.373 12-12S18.627 0 12 0 0 5.373 0 12s5.373 12 12 12z" fill="#F0F0F0"/><path d="M12 0A12 12 0 001.192 6.782H22.81A12 12 0 0012 0zm0 24.001a12 12 0 0010.81-6.783H1.191a12 12 0 0010.81 6.783z" fill="#338AF3"/><path d="M12 8.348a3.652 3.652 0 100 7.304 3.652 3.652 0 000-7.304zm0 5.739a2.087 2.087 0 110-4.174 2.087 2.087 0 010 4.174z" fill="#FFDA44"/><path d="M13.807 12.522L12 12.001l-1.808.521-.602 1.044h4.82l-.603-1.044z" fill="#0052B4"/><path d="M12 9.391l-1.205 2.087L12 12l1.205-.522L12 9.391z" fill="#338AF3"/><path d="M10.192 12.521h3.615l-.602-1.043h-2.41l-.603 1.043z" fill="#6DA544"/></g><defs><clipPath id="clip0_1046_3680"><path fill="#fff" d="M0 0h24v24H0z"/></clipPath></defs></svg>