<svg width="24" height="24" fill="none" xmlns="http://www.w3.org/2000/svg"><g clip-path="url(#clip0_1046_3677)"><path d="M12 24c6.627 0 12-5.373 12-12S18.627 0 12 0 0 5.373 0 12s5.373 12 12 12z" fill="#F0F0F0"/><path d="M23.93 13.304L10.77.062c-.594.06-1.175.164-1.74.308C3.839 1.692 0 12 0 12s16.8 11.242 18.716 9.945c.384-.26.752-.54 1.102-.842l-7.8-7.799H23.93z" fill="#0052B4"/><path d="M20.87 12L9.198.329C3.923 1.591 0 6.337 0 11.999c0 6.628 5.373 12 12 12 2.514 0 4.847-.773 6.775-2.094L8.87 11.999h12z" fill="#D80027"/><path d="M11.413 17.717l-1.466-.689.78-1.42-1.591.305-.202-1.608-1.108 1.183-1.109-1.183-.201 1.608-1.592-.304.78 1.419-1.465.69 1.466.689-.78 1.419 1.59-.304.202 1.607 1.109-1.182 1.108 1.182.202-1.607 1.591.304-.78-1.42 1.466-.689zm-.979-11.062l-1.066-.501.568-1.033-1.158.222-.146-1.17-.806.86-.807-.86-.146 1.17-1.158-.222.568 1.033-1.066.5 2.609.523 2.608-.522zm.523 0a3.13 3.13 0 01-6.26 0" fill="#F0F0F0"/></g><defs><clipPath id="clip0_1046_3677"><path fill="#fff" d="M0 0h24v24H0z"/></clipPath></defs></svg>