<svg width="24" height="24" fill="none" xmlns="http://www.w3.org/2000/svg"><g clip-path="url(#clip0_1046_3676)"><path d="M12 24c6.627 0 12-5.373 12-12S18.627 0 12 0 0 5.373 0 12s5.373 12 12 12z" fill="#0052B4"/><path d="M12 24c6.627 0 12-5.373 12-12S18.627 0 12 0 0 5.373 0 12s5.373 12 12 12z" fill="#FFDA44"/><path d="M12.001 0C5.725 0 .576 4.817.047 10.956h23.909C23.425 4.817 18.276 0 12 0zM12 24c6.276 0 11.426-4.818 11.954-10.956H.046C.575 19.182 5.724 24 12 24z" fill="#0052B4"/><path d="M9.914 16.174l-1.345.633.716 1.302-1.46-.28-.185 1.476-1.017-1.085-1.017 1.085-.185-1.475-1.46.28.716-1.303-1.345-.633 1.345-.632-.716-1.302 1.46.28.185-1.476 1.017 1.085 1.017-1.085.185 1.475 1.46-.28-.716 1.303 1.345.632z" fill="#F0F0F0"/></g><defs><clipPath id="clip0_1046_3676"><path fill="#fff" d="M0 0h24v24H0z"/></clipPath></defs></svg>