<svg width="24" height="24" fill="none" xmlns="http://www.w3.org/2000/svg"><g clip-path="url(#clip0_1046_3747)"><path d="M12 24c6.627 0 12-5.373 12-12S18.627 0 12 0 0 5.373 0 12s5.373 12 12 12z" fill="#F0F0F0"/><path d="M0 12c0 4.549 2.53 8.506 6.26 10.541V1.46A11.997 11.997 0 000 12z" fill="#D80027"/><path d="M23.254 16.175c.482-1.3.746-2.706.746-4.174 0-1.468-.264-2.874-.746-4.174H.746A11.973 11.973 0 000 12.001c0 1.468.264 2.874.746 4.174L12 17.22l11.254-1.044z" fill="#D80027"/><path d="M12 24c5.16 0 9.559-3.257 11.254-7.826H.747C2.443 20.744 6.841 24 12.001 24z" fill="#6DA544"/><path d="M0 12c0 5.544 3.76 10.21 8.87 11.586V.413C3.76 1.79 0 6.455 0 12z" fill="#D80027"/><path d="M7.342 5.282L6.235 4.175l-.738.738-.738-.738-1.107 1.107.738.737-.738.738L4.76 7.864l.738-.738.738.738 1.107-1.107-.738-.738.738-.737z" fill="#F0F0F0"/></g><defs><clipPath id="clip0_1046_3747"><path fill="#fff" d="M0 0h24v24H0z"/></clipPath></defs></svg>