<svg width="24" height="24" fill="none" xmlns="http://www.w3.org/2000/svg"><g clip-path="url(#clip0_1046_3624)"><path d="M12 24c6.627 0 12-5.373 12-12S18.627 0 12 0 0 5.373 0 12s5.373 12 12 12z" fill="#F0F0F0"/><path d="M1.459 6.262h21.082A11.997 11.997 0 0012 0C7.45 0 3.494 2.53 1.459 6.26zM12 24c4.548 0 8.506-2.53 10.54-6.261H1.46A11.997 11.997 0 0012 23.999z" fill="#D80027"/><path d="M16.174 12c0 2.305-1.869 3.652-4.174 3.652-2.305 0-4.174-1.347-4.174-3.652a4.174 4.174 0 118.348 0z" fill="#FFDA44"/><path d="M16.174 12a4.174 4.174 0 01-8.348 0" fill="#0052B4"/><path d="M10.435 10.956H9.392v2.087h1.043v-2.087zm4.174 0h-1.044v2.087h1.044v-2.087zM12.522 9.39h-1.043v3.653h1.043V9.391z" fill="#D80027"/></g><defs><clipPath id="clip0_1046_3624"><path fill="#fff" d="M0 0h24v24H0z"/></clipPath></defs></svg>