<svg width="24" height="24" fill="none" xmlns="http://www.w3.org/2000/svg"><g clip-path="url(#clip0_1046_3748)"><path d="M12 24c6.627 0 12-5.373 12-12S18.627 0 12 0 0 5.373 0 12s5.373 12 12 12z" fill="#F0F0F0"/><path d="M0 12c0 4.549 2.53 8.506 6.26 10.541V1.46A11.997 11.997 0 000 12z" fill="#F0F0F0"/><path d="M12 0C9.92 0 7.966.53 6.26 1.46v21.082A11.96 11.96 0 0012 24c6.627 0 12-5.373 12-12 0-6.628-5.373-12-12-12z" fill="#496E2D"/><path d="M17.13 13.986a3.391 3.391 0 11-2.425-6.112 4.174 4.174 0 103.495 4.837 3.376 3.376 0 01-1.07 1.275zm-.064-6.159l.855.922 1.14-.529-.611 1.098.855.922-1.234-.243-.612 1.098-.15-1.248-1.234-.243 1.141-.529-.15-1.248z" fill="#F0F0F0"/></g><defs><clipPath id="clip0_1046_3748"><path fill="#fff" d="M0 0h24v24H0z"/></clipPath></defs></svg>