<svg width="24" height="24" fill="none" xmlns="http://www.w3.org/2000/svg"><g clip-path="url(#clip0_1046_3688)"><path d="M24 12c0 6.627-5.373 12-12 12S0 18.627 0 12C0 12.003 12 .001 12 0c6.627 0 12 5.373 12 12z" fill="#0052B4"/><path d="M11.968 12H12v-.032l-.032.033z" fill="#F0F0F0"/><path d="M12 6.261V.001h-.002C5.371 0 0 5.372 0 12h6.26V8.474L9.787 12h2.182l.032-.032V9.787L8.474 6.26H12z" fill="#F0F0F0"/><path d="M6.071 1.565a12.057 12.057 0 00-4.506 4.506V12h3.13V4.696H12v-3.13H6.071z" fill="#D80027"/><path d="M12 10.525L7.738 6.26H6.262L12 12.001v-1.476z" fill="#D80027"/><path d="M18.783 7.304l-1.565.522-1.565-.522L15.13 6l.522-1.305h3.13L18.261 6l.522 1.304z" fill="#ACABB1"/><path d="M13.565 7.304v5.74c0 2.795 3.653 3.651 3.653 3.651s3.652-.856 3.652-3.652V7.304h-7.305z" fill="#338AF3"/><path d="M13.895 14.402c.897 1.724 3.323 2.293 3.323 2.293s2.425-.57 3.323-2.293L17.218 8.87l-3.323 5.533z" fill="#6DA544"/><path d="M20.87 12.985l-3.652-5.681-3.653 5.681v.058c0 .518.126.968.33 1.36l3.323-5.17 3.323 5.17c.203-.392.329-.843.329-1.36v-.058z" fill="#FFDA44"/></g><defs><clipPath id="clip0_1046_3688"><path fill="#fff" d="M0 0h24v24H0z"/></clipPath></defs></svg>