<svg width="24" height="24" fill="none" xmlns="http://www.w3.org/2000/svg"><g clip-path="url(#clip0_1046_3690)"><path d="M12 24c6.627 0 12-5.373 12-12S18.627 0 12 0 0 5.373 0 12s5.373 12 12 12z" fill="#F0F0F0"/><path d="M11.999 0a11.982 11.982 0 00-9.6 4.8h19.2A11.982 11.982 0 0012 0zm0 24c3.926 0 7.411-1.886 9.6-4.8H2.4A11.981 11.981 0 0012 24zm-12-12c0 .821.083 1.624.24 2.4h23.52a12.056 12.056 0 000-4.8H.239A12.059 12.059 0 000 12z" fill="#D80027"/><path d="M3.515 3.515c-4.687 4.687-4.687 12.285 0 16.971L12 12.001 3.515 3.515z" fill="#0052B4"/><path d="M4.857 8.869l.777 2.391h2.515l-2.035 1.478.777 2.392-2.034-1.478-2.034 1.478.777-2.392-2.035-1.478H4.08l.777-2.391z" fill="#F0F0F0"/></g><defs><clipPath id="clip0_1046_3690"><path fill="#fff" d="M0 0h24v24H0z"/></clipPath></defs></svg>