<svg width="24" height="24" fill="none" xmlns="http://www.w3.org/2000/svg"><g clip-path="url(#clip0_1046_3750)"><path d="M12 24c6.627 0 12-5.373 12-12S18.627 0 12 0 0 5.373 0 12s5.373 12 12 12z" fill="#F0F0F0"/><path d="M7.304 7.827h15.95C21.557 3.257 17.158.001 11.998.001a11.96 11.96 0 00-8.484 3.515l3.789 4.311z" fill="#000"/><path d="M7.304 16.174h15.95C21.557 20.744 17.158 24 11.998 24a11.96 11.96 0 01-8.484-3.515l3.789-4.311z" fill="#6DA544"/><path d="M3.515 3.515c-4.687 4.686-4.687 12.284 0 16.97L12 12 3.515 3.515z" fill="#D80027"/></g><defs><clipPath id="clip0_1046_3750"><path fill="#fff" d="M0 0h24v24H0z"/></clipPath></defs></svg>