<svg width="24" height="24" fill="none" xmlns="http://www.w3.org/2000/svg"><g clip-path="url(#clip0_1046_3685)"><path d="M12 24c6.627 0 12-5.373 12-12S18.627 0 12 0 0 5.373 0 12s5.373 12 12 12z" fill="#F0F0F0"/><path d="M12 0A12 12 0 001.192 6.783H22.81A12 12 0 0012 0z" fill="#D80027"/><path d="M12 24a12 12 0 0010.81-6.782H1.191a12 12 0 0010.81 6.783z" fill="#0052B4"/><path d="M14.951 8.527l-1.106 1.106a2.609 2.609 0 11-3.69 0L9.05 8.527a4.174 4.174 0 105.903 0z" fill="#6DA544"/><path d="M12 9.913l.389 1.195h1.257l-1.017.74.389 1.195L12 12.304l-1.017.739.389-1.196-1.018-.739h1.258L12 9.913z" fill="#FFDA44"/></g><defs><clipPath id="clip0_1046_3685"><path fill="#fff" d="M0 0h24v24H0z"/></clipPath></defs></svg>