<svg width="24" height="24" fill="none" xmlns="http://www.w3.org/2000/svg"><g clip-path="url(#clip0_1046_3697)"><path d="M0 12c0 2.078.529 4.033 1.46 5.738L12 18.782l10.54-1.044A11.925 11.925 0 0024 12l-12-1.043L0 12z" fill="#FFDA44"/><path d="M22.54 6.26A11.997 11.997 0 0012 0 11.997 11.997 0 000 12h24c0-2.079-.529-4.034-1.46-5.74z" fill="#338AF3"/><path d="M12 24c4.548 0 8.506-2.532 10.54-6.262H1.46A11.997 11.997 0 0011.999 24z" fill="#496E2D"/><path d="M13.565 7.022l1.466.69-.78 1.42 1.591-.305.202 1.607 1.108-1.182 1.109 1.182.201-1.607 1.592.304-.78-1.42 1.465-.689-1.466-.689.78-1.42-1.59.305-.203-1.607-1.108 1.182-1.108-1.182-.202 1.607-1.591-.304.78 1.42-1.466.688z" fill="#FFDA44"/></g><defs><clipPath id="clip0_1046_3697"><path fill="#fff" d="M0 0h24v24H0z"/></clipPath></defs></svg>