<svg width="24" height="24" fill="none" xmlns="http://www.w3.org/2000/svg"><g clip-path="url(#clip0_1046_3703)"><path d="M20.486 20.485c4.5-4.5 4.678-11.686.535-16.4L12.001 12l-7.914 9.02c4.714 4.143 11.899 3.966 16.4-.535z" fill="#496E2D"/><path d="M3.514 3.514c4.5-4.5 11.686-4.678 16.4-.535L12 12l-9.02 7.914c-4.144-4.714-3.966-11.9.534-16.4z" fill="#0052B4"/><path d="M19.914 2.98L2.979 19.915a12.074 12.074 0 001.107 1.106L21.021 4.087a12.127 12.127 0 00-1.107-1.107z" fill="#FFDA44"/><path d="M5.056 4.174l.26.798h.837l-.678.492.26.797-.679-.492-.678.492.26-.797-.679-.492h.838l.26-.798zm4.281 0l.26.797h.838l-.678.492.259.798-.679-.493-.678.493.26-.798-.679-.492h.838l.26-.797zM5.056 8.348l.26.797h.837l-.678.493.26.797-.679-.493-.678.493.26-.797-.679-.493h.838l.26-.797zm4.281 0l.26.797h.838l-.678.493.259.797-.679-.493-.678.493.26-.797-.679-.493h.838l.26-.797zm-2.14-2.086l.259.797h.838l-.678.492.259.798-.678-.493-.678.493.259-.798L6.1 7.06h.838l.259-.797z" fill="#F0F0F0"/></g><defs><clipPath id="clip0_1046_3703"><path fill="#fff" d="M0 0h24v24H0z"/></clipPath></defs></svg>