<svg width="24" height="24" fill="none" xmlns="http://www.w3.org/2000/svg"><g clip-path="url(#clip0_1046_3759)"><path d="M12 24c6.627 0 12-5.373 12-12S18.627 0 12 0 0 5.373 0 12s5.373 12 12 12z" fill="#F0F0F0"/><path d="M20.1 3.146A11.956 11.956 0 0012 0c-.511 0-1.015.033-1.509.095L4.696 6.782.38 15.005a11.927 11.927 0 001.255 3.043L12 12l8.1-8.853z" fill="#FFDA44"/><path d="M21.99 18.648l-16.789 3.24A11.943 11.943 0 0012 23.999c4.168 0 7.84-2.125 9.99-5.351z" fill="#6DA544"/><path d="M20.102 3.148L1.642 18.06a12.048 12.048 0 001.719 2.268L24 12c0-3.505-1.502-6.658-3.898-8.852z" fill="#D80027"/><path d="M0 12c0 1.038.132 2.046.38 3.006L10.49.094C4.577.836 0 5.884 0 12z" fill="#0052B4"/></g><defs><clipPath id="clip0_1046_3759"><path fill="#fff" d="M0 0h24v24H0z"/></clipPath></defs></svg>