<svg xmlns="http://www.w3.org/2000/svg" width="1200" height="600"><clipPath id="a"><path d="M0 0v150h700v150H600zm600 0H300v350H0v-50z"/></clipPath><path fill="#012169" d="M0 0h1200v600H0z"/><path stroke-width="60" stroke="#fff" d="M0 0l600 300m0-300L0 300"/><path stroke-width="40" stroke="#c8102e" d="M0 0l600 300m0-300L0 300" clip-path="url(#a)"/><path stroke-width="100" stroke="#fff" d="M300 0v350M0 150h700"/><path stroke-width="60" stroke="#c8102e" d="M300 0v350M0 150h700"/><path fill="#012169" d="M0 300h600V0h600v600H0z"/><path d="M999.475 257.01c-.192 67.849-10.98 140.945-99.473 175.762-88.498-34.817-99.285-107.913-99.477-175.763z" fill="#128bbf"/><path d="M900.002 432.772c40.117-15.782 64.966-41.537 79.395-69.002-2.275-.767-6.806-.837-8.64-.179-2.177-.14-85.552-6.283-95.343-9.847-8.518-3.1-41.017 2.634-56.187 8.014 14.153 29.213 38.665 54.447 80.775 71.014z" fill="#e8ece9"/><path d="M838.156 390.71c1.352-.437 3.934-.333 4.952-.15 1.197.216 1.414.324 1.85-.972.435-1.296 1.415-.972 2.176-.324.762.648 2.717.324 3.479-.756.762-1.076.98-.968 1.741-.216.762.756 1.088.54 1.85.324.762-.212 2.068-1.076 2.721-2.264.653-1.189 1.628-1.62 2.173-.973.544.648 1.088.973 1.85.865.762-.108.98.648.87 1.616-.108.972.327 1.188 2.177-.32 1.633 1.616 2.173.968 2.173-.756 0-1.729-.432-8.097-1.085-8.961-.653-.864-1.306-3.349-1.414-5.293-.206-3.668-.218-3.884-4.68-6.153 0-1.296-.327-1.836-3.479-1.62.11-.432-.435-1.728-1.088-2.268-.653-.54-.762-.756-.435-2.264 1.306.108 2.72-.108 3.482-1.188.758-1.08 3.261-.865 4.785-.216 1.523.648 3.482.756 6.417.324 1.088-.865 2.938-1.837 4.897-2.917 1.955-1.08 2.5-1.512 2.608-3.024.28-3.876-1.088-8.313-2.177-10.361-1.084-2.052-1.41-4.645-2.934-7.885-1.658-3.527-1.633-4.425-3.483-6.585-.506-.594-1.088-1.08-1.197-2.264-.109-1.188-.544-2.808-1.846-3.996-3.29-2.996-4.57-12.634-5.877-19.759-.75-4.083-.217-13.709-1.955-15.221-2.938-2.377-4.353-1.944-6.312-2.7-1.415-1.945-2.064-5.83-3.37-9.286-2.067.324-3.482 2.485-4.897 3.24-1.415.757-1.632.757-1.632 2.701 0 1.94-1.089 4.64-3.044 7.665-1.959 3.02-5.224 2.16-7.94 6.693-5.986-7.233-6.095-9.285-6.53-11.338-.436-2.048-1.415-2.48-4.785-5.396 0-.864-.435-4.317-.108-6.26-2.504-2.053-4.354-1.729-5.547-.217-1.197 1.512-2.068 3.777-3.918 4.64-1.109 1.4-4.454 4.932-7.191 9.136 2.49 37.572 11.034 74.87 36.723 104.698z" fill="#69522b"/><path d="M999.475 257.01c.075-25.558-1.356-50.372-.703-72.116-33.069-14.686-76.58-17.706-98.77-17.706-22.194 0-65.706 3.02-98.774 17.706.653 21.744-.775 46.558-.703 72.115z" fill="#bca76b"/><path d="M805.903 286.593c1.089 1.728 3.048 4.698 3.265 6.314.762-1.566 1.36-2.264 1.524-3.236.163-.972 1.306-2.862.87-3.888-.435-1.027-.761-1.837.436-1.08 1.193.756.963 2.064.703 3.996-.703 5.289-2.934 6.369-3.26 9.933 3.21 7.503.816 10.203 4.294 17.544.544.324 1.997-.253 2.432-.145 1.846-1.297 3.228-.827 5.835-.287 2.612.54 4.027 2.372 4.027 3.992s0 2.053.544 3.025 1.633 2.484 1.415 3.564c-.218 1.076.218 1.724.544 2.264.327.54-.109 1.728-.435 2.485-.327.756-.218 1.728 1.088 3.348 1.306 1.616 4.35 8.42 4.35 12.413 0 3.997.217 5.833 1.85 6.585 1.632.756 2.176 1.404 1.959 3.132-.218 1.729.761 10.69.979 12.094.218 1.404.762 1.08 1.415 1.836.649.752 1.084 1.616 3.26 1.616 2.177 0 4.279-.287 5.693-.07 1.96 2.7 3.157 6.368 3.592 8.636.435 2.269.398 5.364 1.16 5.364.761 0 1.523.108 1.305-2.7-.217-2.81-.435-3.241-1.414-4.641-.98-1.404-1.524-2.052-.98-2.917.544-.864.653-2.268.435-3.348-.217-1.08-.544-2.696 1.306-.54 1.85 2.16 2.395 2.7 2.939 3.456.544.756.758 2.16.653 3.457-.109 1.292.105 1.832.866 1.184.762-.644 1.742.432 1.306 1.836-.435 1.404.11 2.268 1.415 2.7 1.306.432 1.85.756 2.177 1.729.326.972 1.415 1.4 1.415-.54 0-1.945-.762-6.05-1.306-7.341-.544-1.296-.98-4.105-1.089-5.725-.108-1.62-.435-2.048-1.197-2.372-.762-.324-1.415-.864-1.523-1.62-.11-.756-.762-1.026-1.252-1.026s-.92-.378-1.193-.919c-.272-.54-.544-.594-1.088-.648-.544-.054-1.415.27-1.687-.594s-.653-2.106-1.197-2.808c-.545-.702-1.034-.918-1.089-3.344-.054-2.43-.109-2.755-.87-3.619-.762-.864-2.068-3.128-2.612-4.1-.54-.972-1.085-1.944-1.085.108 0 2.048 0 3.128 1.302 3.884 1.306.756 1.633.756 1.089 1.836-.545 1.08 0 1.837.217 2.593.218.756.653 1.512 0 2.264-.653.756-1.306.54-1.197-.644.109-1.188-.326-2.592-.866-3.564-.545-.973-.98-1.62-1.633-1.08s-1.197-.109-.762-.54c.436-.433.327-.757 0-1.08-.326-.325-.435-.649.11-1.297.543-.648.543-.972.217-2.48-.327-1.512-2.721-9.07-3.81-10.797-1.088-1.729-.979-3.025.436-1.297 1.415 1.729 2.612 3.24 2.72 4.64.11 1.405.436 2.27.872 2.81.435.54.761.323.979-.865.218-1.188 1.088-.756-.435-3.02-1.524-2.268-4.354-6.049-5.442-12.85-1.088-6.8-1.524-11.337-2.612-13.169-1.084-1.836-1.41-2.268-1.52-3.996-.108-1.729 0-3.457-.761-4.749-.762-1.296-1.306-1.512-1.415.432-.109 1.94.109 6.26.653 7.017.544.756.218 2.696.109 3.776-.11 1.08-1.821 2.148 1.741 4.32 1.415.865 1.193 2.053.98 2.81-.218.751-.436.643-1.198-.54-.761-1.19-1.523-2.161-2.285-2.81-.762-.647-.87-1.08-.762-2.592.109-1.512.435-2.592 0-3.128-.435-.54-.653-.108-.87.752-.218.864-.436 3.24-.871 3.889-.436.648-.653.216-.98-1.189-.326-1.404.11-3.56.87-6.044.763-2.484 1.198-5.077.545-8.313-.653-3.24-.326-4.213-2.83-6.909-2.499-2.7-5.328-5.292-6.525-8.637-1.198-3.348-1.415-6.264-2.721-7.777-1.302-1.508-3.152-3.452-4.35-3.992v-4.964c0-1.189-.543-1.945-1.958-1.729-1.415.216-2.286 1.404-3.152 3.02-.87 1.62-1.524.865-2.721 3.673s-2.939 4.208-2.939 7.233z" fill="#cfa763"/><path d="M813.735 318.224c.87.54 1.704.902 3.01.253 1.306-.648 2.867-2.517 4.608-.68 1.738 1.831 2.717 4.856 2.717 7.232 0 2.372 0 6.8 2.721 9.285 2.72 2.48 4.131 5.072 4.24 8.313.11 3.236 1.306 8.205 1.633 9.5.326 1.293 1.088 2.805 1.959 3.67.87.863 1.523 3.348 1.632 5.936.11 2.592-.326 4.428 0 5.725.327 1.296 0 2.376-.98 1.728-.979-.648-1.196-.972-1.74-2.053-.545-1.08-1.198-.864-.654.757.545 1.62 2.177 3.128 3.592 3.128s1.85.216 2.72 1.08c.867.864.976 1.296 2.5 1.296 1.523 0 1.741 0 3.156.432s1.415.216 2.176 0c.762-.216 1.52.432 2.064 1.836.544 1.405 1.85 5.289 1.85 6.369s0 2.16.762 3.24.544 2.16-.326 1.513c-.871-.648-.871-.432-1.524-.324-.653.108-1.088-.216-1.955-.757-.87-.54-.326-.432-1.197-1.728-.87-1.296-1.415-1.728-1.415-.756s-.109 2.16-.762 1.62-.98-.54-1.523 0c-.545.54-.762.973-1.415-.108-.653-1.08-1.415-1.08-2.068-1.296-.653-.216-.653-.216-.975-1.188-.327-.972-1.306-1.188-2.177-1.188-.87 0-1.306-.432-1.415-1.08-.109-.644-.653-1.076-1.088-1.4-.435-.324-.218-1.08-.327-1.836-.108-.757-.761-.433-1.197-.649-.435-.216-.762-.108-.762-1.188 0-1.08-.435-1.404-.761-2.16-.323-.756 0-1.512.217-2.372.218-.864.11-1.404-.54-2.16-.653-.756-.109-1.513-1.85-3.025s-2.612-.216-3.156-3.776c-.544-3.565-1.633-10.905-2.612-12.093-.98-1.189-1.628-2.053-2.608-2.377-.98-.324-1.632-.108-1.741-2.16-.109-2.048-.762-4.64-2.068-5.937-1.306-1.296-1.85-1.728-2.503-2.268-.653-.54-.87-1.512 0-3.344.87-1.836.544-4.32.435-5.509-.109-1.184-.435-2.696-.217-3.992.217-1.296.108-2.917-.218-3.78-.327-.865-.762-1.08-.218-1.729z" fill="#cfa763"/><path d="M846.808 377.283c-.653 1.296-1.415.864-2.068.216-.653-.649-1.415-.649-1.088-1.837.326-1.188.217-1.404-.653-2.052-.1-.075-.201-.141-.302-.208-.272-.008-.59-.008-1.004-.008-1.524 0-1.633-.432-2.5-1.296a7.294 7.294 0 00-.535-.482c-.017.208-.008.482-.008.806 0 1.188 0 .972-1.197 1.296-1.197.325-.98-1.188-1.197-2.16a3.549 3.549 0 00-.189-.581c-1.31-.25-2.691-1.62-3.185-3.087-.544-1.62.109-1.836.653-.756s.762 1.404 1.741 2.052c.98.648 1.306-.432.98-1.728-.105-.416-.13-.898-.118-1.433-.234-.42-.552-.76-.97-.943-1.742-.757-1.198-.973-1.089-2.377.109-1.4-.218-1.4-1.306-.648-1.088.756-1.197-.108-1.197-2.264 0-2.16-1.415-2.16-1.737-.648-.327 1.512-.871.54-1.524-1.62s-1.524-2.7-1.632-.648c-.093 1.736-.578 2.152-1.717 1.188.201 1.254.377 2.426.52 3.348.544 3.56 1.414 2.264 3.156 3.777 1.74 1.512 1.197 2.268 1.85 3.024.648.756.757 1.296.54 2.16-.218.86-.54 1.616-.218 2.372.326.756.762 1.08.762 2.16s.326.973.762 1.189c.272.133.623.058.879.166.28-.366.535-.814.862-1.138 1.306-1.297 3.265.108 3.918 1.728.653 1.62 1.41 2.052 2.39.756.98-1.296.653-1.08 1.741.108 1.089 1.188 1.524.972 1.524.972s1.088-.432 1.85.216 1.197.54 2.608-1.512c1.415-2.052-.649-1.404-1.302-.108z" fill="#d7c99c"/><g fill="#7fb8c1" stroke-width="4.17"><path d="M847.787 392.396c2.608-.216 9.682-2.268 10.44-2.916 1.741 1.188 4.789 2.808 6.095 2.808-2.504.54-4.136.216-4.79-.216.327.756 1.198 1.944 1.742 2.052-2.394-.108-5.11-.648-5.981-1.512-2.068.864-5.55 1.08-7.506-.216zm4.676 3.241c.925.27 5.546 1.026 6.145 1.026-1.524 1.292-.218 2.534 2.34 2.318-1.252.162-2.616.631-1.687.81 2.23.432 8.267-1.188 9.464-1.836-2.068 2.646-12.126 5.076-16.262-2.318zm4.136 6.584c1.247-.648 4.349-.432 5.818.27-1.633.594-4.839.594-5.818-.27z"/><path d="M861.274 402.113c2.231-.378 8.54 1.134 10.77-.216-.761 1.998-4.734 2.269-6.094 1.836-1.356-.432-2.662-.972-3.587-.918.49-.27-.327-.324-1.089-.702zm2.286 3.079c1.687.266 7.723-.486 9.573-1.189 1.955.649 5.818 1.67 6.689 1.563-1.85 1.134-5.387.486-6.526 0-3.265 1.08-5.931 1.404-9.736-.374z"/><path d="M866.444 406.201c2.415.54 4.474.154 6.852-.635.74.315 2.486.702 4.127.623 1.093.619 2.562 1.483 3.977 1.59-1.47.595-6.857 0-7.94-.593-2.722.054-7.401.648-8.54 1.566-.054-.756.44-1.807 1.524-2.55zm-2.884-12.185c1.883.624 8.702.324 12.18-1.296 1.374-.64 2.223.432.654.972-5.656 1.945-10.118 2.7-13.378.972-1.29-.68-1.415-1.296.544-.648zm33.395-9.176c-8.376 3.884-13.927 5.072-25.564 1.512-1.084-.333-1.85 0-.653.756 1.198.752 7.615 2.48 9.138 2.588 1.524.108.98.81.055 1.08-.925.27-1.198.918.054.432 1.252-.486 8.242-.669 11.097.81 1.247.648 1.574.54 1.465.054-.109-.486.544-.81 1.47-.918.924-.108 1.468-.432.76-.702-.707-.27-.815-.432-.271-.702.544-.27.598-.54-.218-.702-.816-.162-1.36-.378-.598-.756.761-.374 1.904-.648 2.775-.752.217-.594-.163-2.16.49-2.7z"/><path d="M883.028 385.812c4.789.336 13.6-1.837 18.28-6.37 1.628.969 3.914 2.049 5.11 2.265 1.198.216 2.286 1.296.436 1.296s-4.462-.756-5.655-1.296c-6.203 3.78-13.462 5.023-18.062 4.645-1.302-.108-1.628-.649-.109-.54zm-7.56-13.498c-.644.112-3.424.756-4.185.702-.762-.054-1.524.162-1.47.702.055.54.272.864-.87.756-1.143-.108-2.123.324-2.395.648-.272.324-.49.648.653.756 1.143.108 1.742.216 3.048-.378s2.557-1.512 3.972-1.566c1.41-.054 2.826-1.89 1.247-1.62z"/><path d="M871.555 375.662c1.188.765 7.07 2.755 9.192 2.593 2.122-.162 1.724.843.109 1.188-3.32.698-7.372-.735-10.118-2.917-1.36-1.08-.108-1.458.817-.864z"/><path d="M899.403 378.525c-4.5 1.425-9.083.918-10.933.432-1.85-.486-3.537-.594-2.286.594 1.252 1.184 5.279 1.994 7.56 1.4-8.104 1.836-10.226 1.674-12.235 1.35-2.014-.324-5.794-.253-7.397-.108-1.197.108-2.83-.054-3.537-.486-.707-.432-.925-1.242 1.197-1.026 2.118.216 2.395-.216.545-.486s-4.408.486-1.905 2.052 7.995-.108 11.478.864c3.478.972 10.875 1.674 17.894-3.942.36-.287.98-1.076-.38-.644zm-10.498-4.483c-.925.054-2.557-.54-3.428-.918-.87-.378-2.118-.432-1.193.81.92 1.242 4.948 1.944 6.363 1.35 1.414-.594.816-1.242 2.226-.378 1.415.864 2.884 1.458 3.918 1.458 1.034 0 1.415 0 .272-.648-1.142-.648-1.686-.81-1.795-1.35-.11-.54-.272-.864.762-.54 1.033.324 2.23.918 3.047.486.816-.432 2.336-1.404 3.696-1.404l.326-.81c-1.959-.162-3.206.432-3.75.648-.544.216-1.524.324-2.558.162-1.034-.162-2.394-.27-2.72-.54-.327-.27-.327-.486.544-.648.87-.162 1.142-.756-.055-.54-1.197.216-4.403.108-6.09-.432-1.687-.536-2.394-.59-3.102-.324-.707.27-.598 1.026.435 1.08 1.034.054 3.374.27 4.19 1.026.817.756.708.81-.217.432-.925-.378-2.612-.162-.87 1.08zm39.377-2.916c-3.261 2.376-7.18 2.916-11.855 3.24-1.36.096-.942.478.218.594 4.893.486 10.553-1.296 12.399-3.24.535-.561.477-1.492-.762-.594zm-22.244 5.509c1.415.054 6.308 1.296 7.886 1.836 1.197-.108 1.524-.378 1.306-.81-.218-.432-.38-.918 1.796-.81 2.172.108 7.179.054 8.104.054.762-.325 2.444-1.62 3.206-1.675-1.955.108-10.113.54-11.147.432-1.034-.108-1.578 0-2.23.378-.654.378-1.035.54-1.851.216-.816-.324-2.286-.756-3.098-.27-.816.486-2.503.054-3.972.648z"/><path d="M925.13 376.905c.762-.325 2.444-1.62 3.206-1.675 1.415-.108 3.047.486 3.81.594.761.108 1.577-.054 1.033-.648s-.054-1.62 2.177-1.35c2.227.27 3.37.648 5.546.432 2.177-.216 3.156 1.404 7.288-.216-.327 1.62.435 1.728 1.197 1.404.762-.324 1.632-.216 2.938.756 1.306.973 9.247 1.08 11.097.757 1.846-.324 2.826.648 1.41 1.08-1.41.432-1.74 1.08-1.41 1.512.322.428.649.968-1.088.752-1.741-.216-2.068.324-2.939.972-.87.648-1.088.864-3.482.432-2.39-.432-2.826-.108-4.132.108-1.306.216-1.632.216-2.938-.216-1.306-.432-4.132-.864-5.873-.324-1.741.54-3.047 1.08-4.571.648-1.524-.432-1.633-.216-.653-1.188s1.197-.864 3.047-1.08c1.85-.212 3.265-.752 1.96-1.508-1.307-.756-1.742-.648-3.483.216-1.742.864-2.612 1.4-4.567.324-1.96-1.08-2.939-.864-4.245-.54-1.306.324-3.478-.432-5.328-1.242zm6.526 3.235c-2.491.354-3.16-1.237-5.764-.913-.871.108-2.34 1.184-.327 1.022 2.01-.162 4.186.918 6.145.756 1.959-.162 1.088-1.026-.054-.864zm-2.885 1.891c1.31-.474 4.027.432 5.17.216 1.143-.216 2.231.486 1.034.864-1.197.378-4.081-.702-5.387-.324-1.306.378-2.608-.108-.817-.756zm-25.998 6.963c1.796.058 8.267-.216 10.825-5.613.196-.415.38-.594 1.197-.054.816.54 3.809 2.322 9.41 2.809 1.57.137 3.265.918.109.702-3.157-.216-8.159-1.08-9.846-2.107-2.83 4.425-7.911 4.948-11.695 4.857-2.281-.054-1.737-.648 0-.594z"/><path d="M916.754 381.653c-.87 1.188-3.864 3.24-5.224 3.348-1.356.108-5.438-.27-6.472-.648-1.033-.378-2.285-.27-.816.756 1.47 1.027 5.115 1.729 6.58 1.405 1.47-.324 3.157-.81 4.3-.108 1.142.702 3.264 2.048 4.512 1.778 1.251-.266 3.809-.266 4.625.108.816.378 2.231 1.512.109.864s-3.864-.108-4.843-.54c1.088 1.512 3.558 3.942 5.66 3.942.489 0 .815.864-.219 1.35 1.034.486 3.425.864 4.676-.27-.326.432-.163.702.381.972s1.197.649.218.757c-.98.108-3.207.378-3.86.108 2.118 1.346 7.614 3.506 13.215 2.426 1.068-.204 1.633-.644-.109-.594-3.591.108-3.805.054-4.458-.32-.653-.382-.544-.702.49-1.026 1.03-.324 3.642-.702 4.73-.702 1.088 0 2.177-.433-.054-.433s-4.948 0-6.036-.378c-1.089-.378-1.905-.864-.762-1.62 1.143-.756 2.34-.54 2.884-1.242-3.592-.054-8-1.944-5.55-3.668.569-.403.38-.432-.545-.54-.925-.108-3.641-.864-4.784-1.512-1.143-.649-.381-1.189.544-1.35-2.122.377-6.367-.757-9.192-2.863zm31.926-.108c-1.96 1.458-5.656 2.052-7.234 2.052-1.578 0-1.795.54-.544.702 1.252.162 2.612.324 3.156.162s.87-.216 1.683.162c.816.378 2.558.594 4.081.108 1.524-.486 4.023-.702 5.057-.648 1.034.054 2.176.108.109-.486-2.064-.594-5.438-.162-6.254.054-.816.216-3.047.054-1.85-.324s2.23-.972 2.83-1.458c-.436-.108-.708-.216-1.035-.324zm-1.034 4.212c-1.687 1.243-4.132 2.427-6.635 2.535 2.285.81 4.19 3.132 5.655 3.024-.707.432-1.574 1.08-2.499 1.188 1.415.378 3.805-.054 5.764-1.134 3.265.918 7.505.324 8.92-.864-2.122 0-4.675-.756-5.818-1.728 1.034 0 2.009-.648 2.499-1.238-2.445.428-6.635-.756-7.886-1.783z"/><path d="M944.167 392.504c.925-.108 1.792-.756 2.5-1.188-1.792.594-9.628-.648-11.964-2.7-2.34-2.048-2.34-.486-.708.972 1.633 1.458 4.513 3.672 10.172 2.916zm5.764 4.965c-.98.54-5.655.864-7.179.54-1.523-.324-2.176-.162-1.795.432.38.594.544 1.134-.708.972-1.251-.162-3.483.108-4.403.432-.926.324-2.068 1.134-.11.81 1.956-.324 3.751-.702 5.22-.324 1.47.378 6.69.486 7.724.054 1.033-.432.326-.432-.164-.432s-.707-.324 0-.648c.708-.324 1.252-1.242 1.415-1.836zm-45.253-6.261c-1.96.864-8.485 2.592-10.227 2.7-2.176.972-3.913 1.513-5.002 1.513.762.648 3.696 1.292 4.894.972-.653.644-2.173 1.4-2.717 1.724 1.737-.216 3.805.216 4.676.324-2.286 1.296-5.438 1.728-7.07 1.512.544.756 1.306 1.512 2.285 1.512-2.068.54-4.57.54-5.877.108.544 1.08 1.089 1.728 1.85 1.836-1.741.216-3.918.54-5.764-.54 1.411 1.837 4.567 2.48 9.247 1.945 4.676-.54 8.594-2.593 9.682-3.457-1.96.216-4.571.324-5.877.108 2.612-.648 8.267-3.024 9.247-3.996-1.089 0-2.173-.324-2.939-.864 1.524.216 6.857-.428 8.489-1.076-1.959-.432-3.156-1.62-3.7-2.377 6.852 2.16 14.479 1.454 18.166.54.871-.216.976-1.312-.761-1.188-3.048.216-8.92-.648-10.444-1.404 1.415 1.08 3.156 1.728 4.353 1.944-2.83.756-6.743 1.296-12.511-1.836z"/><path d="M891.626 398.117c.544-.324 2.064-1.08 2.717-1.724-1.198.32-4.132-.324-4.894-.972 1.089 0 2.826-.54 5.002-1.513-3.913-.108-6.634-.108-8.049-.864-1.415-.756-4.023-.54-5.002-.324-.98.216-.653 1.836 3.478 1.404-1.741 1.189-6.417 1.62-8.158 1.189.435 1.4.762 2.804.327 3.56 2.285 1.296 8.267 2.916 11.205 2.7-2.612-.972-4.027-2.052-1.85-2.268 2.177-.216 3.374-.648 5.224-1.188zm-6.748 7.021c5.208-.432 12.181-.524 17.732-5.185 1.415-1.188 2.365-.79.98.432-2.935 2.592-10.227 6.153-17.188 6.26-2.834.046-4.131-1.296-1.524-1.507zm39-8.533c-1.306.486-4.952 1.08-6.036.918-1.088-.162-2.666-.216-3.537.324-.87.54-.925.864.272.972 1.197.108 2.721.216 3.483.162-.98.54-1.633 1.296-1.85 1.62 1.741-.432 4.947.324 5.872.864-.707.216-1.523-.054-2.122-.378 2.939 3.079 11.641 3.079 13.056 2.538-.653.486-1.252.973-1.905 1.135 2.45.432 5.275.378 8.05-1.243-.925.162-3.696-.108-4.404-.162a5.231 5.231 0 012.118-1.242c-1.084-.216-4.512-.108-5.328.324.326-.648.925-1.458 1.578-1.728-4.3 0-9.519-.054-11.423-1.08 3.047.324 6.42-1.458 7.831-1.458-2.39-.054-5.002-.594-5.655-1.566zm-10.933 2.375c-2.123.433-5.329 1.297-6.2 1.783-.87.486-1.795.756.11.756 1.904 0 7.07.216 8.212.378-2.884-.432-6.798-.54-7.56-.54-.762 0-1.632-.054-.217-.486 1.414-.432 3.265-1.404 5.655-1.89zm-4.295 5.023c.758 0 4.077 0 5.383-1.134 1.36 1.026 3.972 2.48 5.655 2.48 1.687 0 1.524.433.054.595-1.465.162-4.349-.698-5.818-1.778-1.959.702-3.587.108-5.274-.163zm-25.182 14.52c3.37 1.296 7.831 2.268 11.092 1.188 1.85 1.62 5.66 1.728 7.723 1.296 2.068-.432 3.918-.648 6.204.108 2.281.756 6.96.81 8.267 1.886-1.197.059-3.755 0-4.353.167-.6.157-.273.535.816 1.13-3.696-.216-10.063 1.35-12.018 3.024.703-1.674 2.88-3.943 6.308-3.943-1.959-.697-8.212-.751-10.226.487-.598-.649-1.306-1.725-1.36-2.157-3.316 1.886-9.845-.81-12.453-3.186zm-8.653-6.045c4.015-.569 6.748-1.836 7.945-3.024.708.648 3.642 1.296 6.853.324-.653.486-.708 1.404-.436 1.89-2.122.054-6.149 1.08-7.505 1.783-1.36.697-5.333 1.184-6.635.481-1.306-.698-1.36-1.292-.222-1.454z"/><path d="M889.177 411.668c-2.122.054-6.149 1.08-7.505 1.783.272.54.435 1.4.49 1.994 3.914-1.405 12.888-2.265 16.316-1.724-1.632.108-4.734 1.778-6.471 1.994 4.24-.324 8.376.54 9.46.81 1.088.27 1.306 1.08.49 1.836-.816.756-1.193.864.544.918 1.741.054 5.333-.162 6.965-1.728-.653-.702-2.34-.432-2.83-.918 1.143-.378 2.45-1.188 2.939-1.782-2.938-.054-4.027-.108-5.006-.325-.98-.211-1.687-.486-.49-1.13 1.197-.648 1.741-1.188 2.122-1.62-2.122.594-5.437 1.08-8.212-1.08 1.033.27 3.478.108 4.349-.27-.925-.486-1.683-.864-2.445-.864 2.227-1.08 6.635-2.052 12.072.108 2.721-.216 5.66-.108 7.723.432.87-.864 2.72-2.916 3.7-3.456-6.417.54-17.949-.648-17.73-3.993-2.069 2.696-6.853 4.209-8.921 3.777-.218.972.653 2.16 1.415 2.808-2.177.432-5.877.756-7.614.432.98.972 2.825 1.836 3.913 1.728-2.28 0-3.478.432-5.274.27z"/><path d="M902.5 419.28c1.742.053 5.334-.163 6.966-1.73-.653-.701-2.34-.431-2.83-.917 1.143-.378 2.45-1.188 2.939-1.782 4.567-.374 8.648-.158 10.603-.752 1.959-.594 6.965-.27 7.945-.54-4.354.697-5.224 1.076-5.442 1.778-.218.702 1.415 1.296 2.449 1.296-1.96-.108-4.408 1.944-4.626 2.754-2.607-1.512-3.859.27-4.131.864-1.088-.432-4.68-.324-6.53 1.242-2.39-.702-3.968-1.08-6.363-.702 1.47-.324 1.198-1.296-.98-1.512zm20.888-12.634c1.47-.054 4.676.108 5.819-.054-.762.378-1.737 1.08-1.955 1.404 3.696-.432 8.753-.702 10.222-.486-1.792-.27-3.642.864-4.567 1.458-.925.594-.38.972.87 1.134 1.252.162 2.94 1.134.654.81-2.286-.324-6.798-.324-7.886-.162-1.089.162-1.687-.378-.11-.594 1.579-.216 2.663-.756 3.425-1.188-1.306.324-3.805.324-4.567.108-.762-.216-1.252-.648-.38-.864.87-.216.271-.54-.654-.432-.925.108-3.265 1.08-4.57 2.322 1.414-1.458 2.666-2.754 3.7-3.456zm-16.588 2.43c1.796 1.998 3.914 3.132 7.287 3.24.708.021 2.026.964.327 1.027-4.571.162-6.852-.919-8.866-3.835-.414-.598.352-1.433 1.252-.432zm57.978-24.561c-1.356.918-3.152 2.539-1.959 4.803.143-.075.277-.162.415-.241a131.757 131.757 0 0013.776-20.087c.046-.24.087-.469.117-.668-1.524 1.296-3.918 2.588-4.898 2.912.653 1.728-2.39 3.996-4.022 4.644.653 1.08.435 2.7-.98 3.025.327.968-.762.968-2.068 1.508s-1.959.972-2.39 1.62c.703-.378 1.683-.702 2.227-.54.544.162.653.972-.326 1.188-.98.216-1.629.756-1.96 1.188 1.415-.54 3.429-.27 2.068.648zm-95.89-24.615c1.633 1.135 4.517 3.02 8.267 2.75 1.85 1.46 4.735 2.701 6.04 2.971-2.503 1.026-5.223 1.89-5.93 2.7-1.144-1.08-2.609-.918-2.99-1.458-1.088.865-.925 1.405-.217 1.837.707.432 6.2 1.35 7.56.972 1.36-.378 1.724.74.598 1.13-2.938 1.026-8.648.054-10.607-3.074-1.959-3.133-3.646-4.321-8.974-1.459-.599-1.512-.599-1.89-1.633-1.89s-2.938-1.35-1.47-1.296c1.47.054 5.823-.594 9.356-3.182z"/><path d="M870.194 366.863c-.908.225-3.482 1.62-4.403 1.729-.925.108-2.558 1.404-.87 1.458 1.682.054 3.858-1.782 5.056-1.944 1.197-.162 1.306-1.513.217-1.243zm7.125 5.073c.163.54.163 1.134 0 1.512-.164.378-.164.864.544.324.707-.54 1.143-1.188 1.85-.81.707.378 2.503.324 3.315.216.82-.108 1.089-.27-.104-.756-1.198-.486-2.395-.648-3.048-.594-.653.054-1.469-.108-2.013-.324-.544-.216-.708-.108-.544.432zm25.781.162l-.327.81c2.013-.054 6.91.432 8.485 1.404 1.523-1.188 1.251-1.566 2.34-1.35 1.088.216 2.448.594 3.047.27.599-.324 1.034-.27 1.687-.162.649.108 2.064-.162 2.88-.648.816-.486 2.503-1.134 3.482-1.134.98 0 2.173-.216.381-.486-1.795-.27-4.516.27-5.441.594-.921.324-3.696.54-5.329.54-1.632 0-3.86.81-5.71.324-1.85-.486-4.407-.162-5.496-.162zm30.95-.756c2.403 1.126 7.233 2.106 10.988 1.944.653-.029 1.967.665.322.81-4.24.378-8.05-.212-11.582-2.16-.98-.54-.653-1.026.272-.594zm2.449-.054c3.696-.108 6.47-.054 7.614 1.026 2.118-.648 5.927-1.026 6.798-.864.87.162 1.85-.216-.164-.702-2.013-.482-6.689-.644-8.158-.374-1.47.266-6.04.428-7.56.266.653.108 1.084.216 1.47.648zm14.357 1.458c1.741-.918 6.744-.054 8.267-.702-1.088 1.296 3.483 1.404 7.451.378-1.524.972-4.784 1.134-6.2 1.728-1.414.594-2.176.162-3.264-.324-1.088-.486-3.86-1.458-6.254-1.08z"/><path d="M966.574 372.422c-3.968 1.026-8.54.918-7.45-.378-1.524.648-6.527-.216-8.268.702 1.796-1.08 3.156-.216 4.458-2.43.816.166 2.72.274 3.374-.59 1.143.27 3.156.756 3.755 1.346.598.594 1.52-.162.757-1.076 1.796-.648.657.768 4.843-.27.871-.216 2.993-.594 3.7-.648-1.414 1.134-3.101 2.372-5.169 3.344z"/></g><path d="M999.475 257.01c-.192 67.849-10.98 140.945-99.473 175.762-88.498-34.817-99.285-107.913-99.477-175.763z" fill="none" stroke="#000" stroke-width="2"/><g stroke-width="4.17"><path d="M839.951 287.528c-1.473 1.882-3.043 3.456-5.073 4.894-2.03 1.441-4.642 2.592-3.194 5.039 1.453 2.447 2.612 2.738 2.901 4.607.293 1.87.728 3.456 2.177 3.888 1.452.428 2.03.142 2.03 3.166s0 4.175 1.306 5.326c1.306 1.15 1.16 2.302 1.741 5.04.578 2.733.578 8.636 2.32 12.666 1.74 4.03 5.659 11.661 5.223 13.244-.435 1.583-1.017 2.734.724 4.603 1.742 1.874 2.901 4.607 3.048 6.19.142 1.587.435 2.16 2.172 1.587 1.741-.577 2.612-1.155 3.194-1.874.578-.718 1.737-.573 3.336.287 1.595.864 4.06 1.728 5.509.864 1.452-.864 2.176-2.156 3.482-2.156 2.03-1.441 2.755-4.466 3.19-5.326.435-.864.147-.864-.724-1.728-.87-.864-.435-2.306-.582-3.743-.142-1.442-.724-3.598-2.465-6.768-1.738-3.165-2.755-7.054-3.914-8.059-1.16-1.01-1.742-3.456-1.888-4.607-.142-1.151-1.448-2.16-2.32-3.025-.87-.86-1.74-2.156-2.753-7.195-1.018-5.04-1.742-8.637-1.742-9.501 0-.864-.146-1.01-1.017-1.296-.87-.287-1.306-1.728-1.013-2.447.289-.719-.293-1.438-.582-2.302-.288-.864 0-2.447.582-3.31.578-.865.436-3.312-.146-5.327-.582-2.014-1.16-3.743-3.483-4.033-2.319-.287-2.754-.86-3.625-2.734-.87-1.87-1.741-5.18-2.03-5.903-.289-.72-.724-.865-2.466.577-1.74 1.437-2.319 1.915-2.319 4.607 0 1.728.29 2.302.867 3.311.582 1.006.728 1.296 1.164 4.03.435 2.734 2.9 7.054-.293 9.501-3.19 2.447-2.755 3.024-2.608 4.749.142 1.728-.87 2.878-1.453.432-.577-2.447 0-3.885 1.742-5.036 1.74-1.154 3.336-2.592 2.176-4.175-1.163-1.582-1.595-5.326-1.741-7.054-.147-1.728-.435-2.305-1.453-1.01z" fill="#cfa763"/><path d="M814.112 324.231c-.08 1.172.184 2.46.276 3.494.109 1.188.436 3.673-.435 5.509-.87 1.832-.653 2.804 0 3.344.038.03.071.058.105.087 1.774-.59 2.005-2.555 1.527-3.506-.506-1.005-.36-2.23.218-3.236.582-1.01.582-1.583.075-2.306-.51-.719-.51-.719.072-2.733.51-1.774-.779-1.762-1.838-.653zm18.552 27.897c-.327-1.296-1.524-6.265-1.633-9.501-.109-3.24-1.52-5.833-4.24-8.313-2.122-1.94-2.587-5.056-2.687-7.461-1.595-.968-2.27-.528-2.135 1.27.142 1.941 2.101 2.88 1.812 5.684-.289 2.808-.289 2.09 1.089 3.457 1.377 1.366 1.883 2.663 1.16 3.24-.725.573-.8 1.583.217 1.94 1.013.361 1.088 1.442.942 2.447-.147 1.01.8 1.226 1.377 1.944.582.719.653 2.447.075 3.457-.582 1.005-.653 2.588.36 1.728 1.017-.864 1.453-.075 2.248 1.292.69 1.18 1.268.81 2.018.453a9.066 9.066 0 01-.603-1.637zm-8.485-59.956c-1.076.079-1.813 1.014-1.197 4.283.385 2.023-1.16 1.583-1.737.573-.582-1.005-1.018-3.165-2.177-5.039-1.164-1.87-.582 1.296-.724 3.025-.147 1.728 1.013 1.728 2.03 3.165 1.013 1.442.142 2.02-1.017 2.02-1.16 0-.578 2.3-.289 3.884.289 1.582-.289 1.873-1.164.577-.866-1.296-.288-3.311-.142-5.758.142-2.447.289-1.874-1.306-2.447-1.595-.577-1.306-.864-.724-2.305.578-1.438 1.16-2.16.435-2.88-.728-.718-.582-1.15.578-1.296 1.16-.14.728-1.005 1.741-1.296 1.017-.286 1.453.146 1.595-1.724.121-1.562.649-2.522 1.83-2.048.71 2.405 1.636 6.149 2.268 7.266zm26.509 25.873c.431-3.165.142-6.33 1.448-7.486 1.306-1.15 2.901-3.452 2.755 1.442-.143 4.894-.29 4.607-1.302 5.758-1.017 1.15-1.888 1.437-.87 3.31 1.012 1.87 1.159 2.016 1.012 4.895-.142 2.879-.142 4.03 1.017 5.471 1.16 1.437 1.449 1.583 1.742 3.166.289 1.582 1.302 3.743 2.608 4.893 1.306 1.151 2.758 4.462 2.9 6.768.147 2.301 2.177 2.879 4.06 4.462 1.889 1.583-.43 2.733-1.883 2.015-1.448-.72-.87 0-1.741 1.005-.871 1.01-1.16 1.155-1.884-.573-.724-1.729-3.194-2.88-4.353-3.311-1.16-.432-2.173-2.306-3.19-4.176-.87-1.607-2.595-2.783-4.169-2.903.435 1.213.67 2.164.544 2.617-.435 1.583-1.017 2.733.724 4.603 1.742 1.873 2.901 4.607 3.048 6.19.142 1.587.435 2.16 2.172 1.587 1.741-.578 2.612-1.155 3.194-1.874.578-.718 1.737-.573 3.336.287 1.595.864 4.06 1.728 5.509.864 1.452-.864 2.176-2.156 3.482-2.156 2.03-1.442 2.755-4.466 3.19-5.326.435-.864.146-.864-.724-1.728s-.436-2.306-.582-3.743c-.142-1.442-.724-3.598-2.466-6.768-1.737-3.165-2.754-7.054-3.913-8.06-1.16-1.009-1.742-3.456-1.888-4.606-.142-1.151-1.448-2.16-2.32-3.025-.87-.86-1.74-2.156-2.753-7.195-.796-3.939-1.411-6.992-1.641-8.554-1.043 1.65-1.754 2.052-2.13.922-.436-1.292-1.018-2.015-1.596-1.15-.582.864-.728-.72-.728-1.438 0-.723-.142-.864-.87-.864-.725 0-.143-1.15-.436-3.311-.289-2.16-.724-2.447-1.013.145-.289 2.588-1.741 4.171-1.16 4.749.578.577.29 1.728-.293 3.456-.577 1.724-.288 2.734.147 3.884.435 1.151-.289 3.312-.582 5.185-.289 1.87 1.164 3.74 1.6.573zm-11.896-8.923c0 3.024 0 4.175 1.306 5.326 1.306 1.15 1.16 2.301 1.741 5.039.578 2.734.578 8.637 2.32 12.667.518 1.2 1.234 2.725 1.967 4.312.962-.752 1.8-2.044 2.097-2.73.43-1.009-.871-3.024-1.888-4.748-1.013-1.728.146-2.306 1.16-4.466 1.016-2.156-.143-2.301-1.738-2.879-1.599-.573-1.599-2.015-2.47-4.316-.87-2.302-.724-3.311-.142-4.607.578-1.297.143-2.302-1.017-2.593-1.16-.286-.87-1.15-.435-2.588.435-1.442.724-1.728-1.013-1.296-1.319.324-1.637.569-2.03 1.043.096.415.142.993.142 1.836z" fill="#d7c99c"/></g><path d="M866.195 307.95l-3.477 38.035m13.89-14.736c-1.42 6.434-3.291 13.743-5.187 19.94m50.694-38.255c2.637 2.45 6.178 3.023 10.097 4.924m7.365 11.896l-1.928 14.655m.044-14.007l-3.457 15.046m-59.903-13.744c-1.633 6.254-3.819 11.957-5.916 17.747" fill="none" stroke="#000" stroke-width=".5"/><path d="M949.784 367.084a1.922 1.922 0 01-.29.063 3.97 3.97 0 01-.32.034l-.332.022a6.963 6.963 0 00-.328.027 3.015 3.015 0 00-.305.048 1.317 1.317 0 00-.266.087.727.727 0 00-.21.144.587.587 0 00-.137.217 3.805 3.805 0 01-.277.337l-.153.166a21.236 21.236 0 00-.316.338l-.15.179a3.276 3.276 0 00-.138.19 2.267 2.267 0 00-.124.204 5.307 5.307 0 01-2.7 1.157c-.71.197-2.38.246-3.085 0-1.359.018-2.784-.082-3.6-.644-.956-.492-2.2-.17-2.957.258-.604.34-.722.962-1.415 1.156-.415.55-2.253.485-2.957.258-1.602.102-2.582-.417-3.729-.771-.755-.536-1.966-.928-2.828-.129-.538.575-1.273.956-2.186 1.157-1.567-.063-3.344.205-4.5-.386-1.286-.108-1.777-.81-2.956-1.155-1.346-.229-1.97.47-2.828.77-.768.64-1.858.708-3.214.644-1.401-.058-3.104.187-3.985-.388-1.136-.126-1.865-.778-2.7-1.155-.825-.651-2.364.029-3.085.385-1.236.191-1.696 1.156-3.252 1.028-1.267-.155-2.13-.674-3.305-1.028-1.105-.494-2.098-1.266-3.856-1.157-.525.693-1.658.982-2.822 1.028-1.043.013-2.075.014-2.836-.257-2.1-.063-3.111-2.274-4.632-3.455l-7.6-7.535c.435-1.347.59-1.582-.11-2.462.29-1.343-.63-1.527-.257-2.874.57-1.033-1.025-.853-1.414-1.412-.912-.179-1.3-.849-2.186-1.158-.72-.502-1.415-.836-2.313-1.286-.788-.324-1.468-.76-2.186-1.155-.541-.489-1.26-.8-1.8-1.287-.702-.323-1.273-.748-1.8-1.155-.738-.234-1.097-.784-1.802-1.158-.51-.477-1.333-.884-1.929-1.286-.936-.308-1.79-.919-2.828-1.155-.704-.026-.919-1.598.38-1.544.928.029 1.499.617 2.192 1.028 1.094.45 2.163.923 3.472 1.158.757.449 1.435.685 2.313 1.028.76.588 1.76.69 2.7 1.285.875.398 1.92.87 2.444 1.286.745.315 1.128.853 1.93 1.155.276.336.843.488 1.287.9.787.295 1.496.632 2.056 1.029.733.48 1.137.534 1.672 1.03.661.204 4.844 2.307 4.633 2.06 4.117.79 5.937 1.04 10.077 1.63l30.026.473 10.886-4.549 3.307-5.236 16.092-2.94c-.305-.326 28.244-1.005 28.846 1.391.254 1.011 1.028 3.042.1 3.521-.606.314-26.96-3.354-27.367-.987-.177 1.027.04 7.421.187 8.453l.44 3.095.442 3.094.441 3.095.443 3.096z" fill="#666"/><g fill="none" stroke="#000" stroke-width=".5"><path d="M868.195 326.585c-4.852 5.522-9.682 9.928-14.86 14.141m41.538-36.624l15.643-13.532m-22.662 26.907c3.134 2.197 6.638 4.173 11.416 5.384m-13.627-25.836c1.947 3.083 4.232 6.075 11.056 7.857m-15.503-38.646c-2.113 2.808-5.49 5.425-9.911 7.573m15.519 11.422c2.228 2.158 5.362 3.411 8.566 4.594m-8.568 42.516c1.575 7.75 2.935 13.906 4.732 20.323"/><path d="M885.56 352.504c8.128-8.345 15.07-17.312 19.579-27.554m16.585-30.176c2.604 2.79 5.319 4.815 9.564 5.965m1.732-15.954c2.207 3.957 4.925 6.89 7.472 10.169m-31.494-22.538c-.273 3.934-2.66 7.887-4.33 11.297"/><path d="M914.62 274.356c-2.896 3.223-5.693 6.676-9.653 8.657m10.15-22.687c-1.987 1.352-4.754 2.936-6.926 3.734m36.579 26.199c-2.4 2.85-4.801 6.201-8.753 8.66m9.198 15.077c-3.07 2.907-5.825 6.286-9.347 8.515m27.112 8.271c-5.5 4.314-11.132 8.364-17.229 11.486m2.928.563c5.164-3.221 9.72-7.66 14.301-12.049m-15.795-39.93c.992 2.592 3.305 5.428 5.596 7.277"/></g><path d="M943.803 265.012l-.449 77.907 5.672-.336-2.38-77.82z" fill="#bca76b" stroke="#472b1f" stroke-width=".377"/><g stroke="#000"><path d="M947.58 365.469c1.353.814 2.13 1.543 3.245 2.625 2.484 2.281 4.146 2.29 7.691-.022 1.322.153 2.66.842 4.094.58 1.266.039 2.496-.186 3.733-.453 1.514-.364 1.73-2.188 2.266-3.409.693-1.418 1.45-2.882 2.446-4.107 1.31-.88 2.727-1.79 3.634-3.104 1.037-1.218.86-2.807.644-4.27-.12-1.392-.232-2.688-.22-4.092-.345-1.772 1.188-3.143 1.056-4.884-.876-.779-2.323-.987-3.5-1.326a44.53 44.53 0 00-6.283-.909c-1.725-.139-3.446-.324-5.165-.451-1.698-.134-3.392-.25-5.094-.255-1.91.052-3.879-.184-5.749.125-1.337.313-3.025.193-4.126.807-.495 1.296-.812 2.638-.867 3.98-.181 1.158-.248 2.36-.247 3.572.067 2.21-.227 4.458.386 6.6.407 1.726.552 3.481.877 5.187.048 1.361.214 2.762 1.18 3.806z" fill="#333" stroke-width="1.313"/><path d="M954.055 327.525l7.718 14.438m11.567.756c-2.276-2.389-4.063-5.267-5.44-8.556" fill="none" stroke-width=".5"/></g><path d="M972.816 320.193l2.541 1.787.177.067c-.832-.778-1.642-1.623-2.698-1.852 0 0-.014 0-.02-.002zm-5.362.754l-.287.087-3.573 13.97zm17.04.507c-.88.073-1.717.444-2.549.839l1.5-.523 1.952-.29a5.544 5.544 0 00-.903-.026zM967.9 334.163l-.7.136c.293 0 .573.015.805.075.354.091.668.23.967.387zm1.398.78c.915.551 1.688 1.26 2.772 1.549zm8.262.713l-4.767.954c1.669.148 3.165-.508 4.767-.954z" fill="#472b1f"/><path d="M967.695 320.09l-4.096 14.916 4.306-.84 4.517 2.519 6.827-1.366 3.466.526c1.07-4.793.757-10.449 3.57-14.494l-2.836.42-4.516 1.576-3.572-1.366-2.834-1.996z" fill="#fff"/><path d="M974.209 321.876c-.716 1.375-1.412 2.761-1.579 4.412 0 0-2-.699-3.043-.84-1.11-.15-3.361 0-3.361 0l-.029.095-.97 3.528c.102-.013 2.749-.34 3.939-.158.887.134 2.52.946 2.52.946l-1.32 5.68.84.47 1.83.552.053-.01.772-.156c.353-1.942.638-3.951 1.5-5.383 0 0 2.77.744 4.307.631 1.057-.077 3.239-.31 3.776-.369a71.13 71.13 0 01.521-3.584c-.538.144-2.878.72-4.193.59-1.191-.114-3.359-1.257-3.359-1.257.315-1.227.876-2.453 1.47-3.678z" fill="#c8102e"/><path d="M964.712 320.02c-1.816-4.969-4.07-13.11-4.992-19.565" fill="none" stroke="#000" stroke-width=".656"/><g stroke="#472b1f"><path d="M966.348 321.172s4.49-1.06 6.356-.656c1.956.423 3.198 2.656 5.18 2.936 2.28.321 4.32-1.807 6.617-1.996 1.09-.09 3.255.42 3.255.42l-1.47 5.462-1.261 4.622v4.095s-3.845-.925-5.777-.736c-2.424.237-4.422 1.655-6.826 1.26-1.775-.29-2.67-1.755-4.412-2.205-1.438-.372-5.097.584-5.097.584z" fill="none" stroke-width="1.313"/><g fill="#bca76b" stroke-width=".3"><path d="M967.167 321.034l-1.788.105-5.67 20.06 2.626.106z"/><path d="M965.38 321.139c-.785-.436-1.349-1.719-.945-2.52.459-.91 1.963-1.128 2.94-.84 1.071.316 2.565 1.463 2.206 2.52-.46 1.353-2.954 1.534-4.202.84z"/></g></g><path d="M986.065 321.578c-2.734 3.961-2.508 9.372-3.547 14.025 1.308.211 2.374.452 2.374.452v-4.097l1.324-4.62 1.54-5.462s-.805-.17-1.691-.298z" fill="#472b1f"/><path d="M953.746 305.335c2.813 1.919 5.69 7.026 9.695 11.033m-4.402-18.32c-2.082-5.481-3.76-14.432-4.054-21.105M950.75 330.2l4.433 11.57m-.023-70.23c-3.815-.977-7.432-3.68-8.003-5.85m-16.897 9.652c2.475.189 11.128-6.283 12.453-9.653m9.598 62.854l6.102 13.033m-6.581-8.65l4.444-1.673m-3.697 4.107l4.74-1.982m-2.789 6.87l5.164-2.195M949.22 314.59l6.231 6.675m-19.434 9.495l-4.302 14.54m3.112-11.298l4.35-.063m-5.411 3.646l5.07.148m-6.232 3.561l5.49 1.038" fill="none" stroke="#000" stroke-width=".5"/><g fill="#bca76b" stroke="#472b1f"><path d="M947.185 263.054c-1.012-.35-3.69-.419-4.755.437-.571.46-.096 1.996.617 2.01 1.441.025 3.272.092 3.846-.33.596-.436.982-1.88.294-2.117z" stroke-width=".381"/><path d="M931.44 275.21c1.86 7.616 9.94 6.346 9.567-.604" stroke-width=".521"/><path d="M938.859 274.855c2.42 8.746 12.922 7.287 12.436-.696" stroke-width=".638"/><path d="M947.742 274.688c2.366 6.406 5.698 5.163 9.677-.656" stroke-width=".546"/><path d="M959.73 271.647l-29.54 1.691.073 2.001 29.779-1.528z" stroke-width=".529"/><path d="M932.52 301.278c1.788 8.377 10.212 7.132 9.956-.49" stroke-width=".557"/><path d="M940.24 301.022c2.346 9.627 13.293 8.22 12.942-.538" stroke-width=".68"/><path d="M949.478 301c2.337 7.061 5.825 5.76 10.07-.544" stroke-width=".583"/><path d="M961.998 297.886l-30.743 1.318.038 2.192 30.989-1.133z" stroke-width=".565"/><path d="M931.73 324.89c1.986 8.55 10.604 7.123 10.205-.68" stroke-width=".571"/><path d="M939.645 324.49c2.12 12.757 13.783 8.182 13.266-.781" stroke-width=".697"/><path d="M949.12 324.301c2.524 7.194 6.08 5.798 10.32-.735" stroke-width=".597"/><path d="M961.909 320.887l-31.511 1.9.077 2.247 31.766-1.716z" stroke-width=".579"/><path d="M951.31 286.863l-11.69.344.035 2.903 11.781-.04zm.08 24.727l-11.69.344.035 2.903 11.781-.04z" stroke-width=".256"/></g><g stroke="#000"><path d="M922.194 325.145l8.623 20.748m-52.293-14.279c-.943 6.543-2.429 14.902-4.096 21.205" fill="none" stroke-width=".656"/><path d="M975.243 344.244c-4.91-.792-9.84-1.602-14.81-1.819-3.915-.172-7.846.057-11.75.407-5.691.512-11.506.775-16.963 2.469-.737.228-1.523.483-2.075 1.021-1.538 1.502-1.69 4.002-2.988 5.715-1.258 1.661-6.06 4.43-7.794 5.587-12.624.315-26.653.14-42.35-2.208l-2.209-2.469-.908-.91 2.468.91 5.585.13 13.642-.52s11.524.013 17.277-.26c3.254-.153 6.513-.348 9.742-.778.699-.094 1.49-.004 2.079-.39.965-.63 1.279-1.921 1.948-2.859.63-.88 1.027-2.03 1.95-2.598 2.46-1.843 5.583-1.677 8.261-2.189 3.213-.614 6.171-.737 9.407-1.214 3.742-.55 7.524-.81 11.301-1.014 2.423-.13 4.857-.308 7.274-.13 3.679.272 7.714-.015 10.913 1.819.587.337 1.645.978 1.3 1.56-.227.379-.864-.19-1.3-.26z" stroke-width=".394"/><path d="M917.798 260.326c1.869 1.431 5.317 2.625 8.663 3.134m-12.538 49.555c-3.953 2.845-8.13 4.798-12.454 6.16m23.638 30.865l-6.872-18.023m1.361-5.9l7.91 20.552m-8.882-15.236l5.251-1.815" fill="none" stroke-width=".5"/></g><path d="M914.984 257.667l-1.631 95.75 5.67-.34-1.066-95.4z" fill="#bca76b" stroke="#472b1f" stroke-width=".378"/><path d="M921.8 272.467c2.214 4.209 5.757 7.589 10.941 9.943" fill="none" stroke="#000" stroke-width=".656"/><g fill="#bca76b" stroke="#472b1f"><path d="M903.262 266.5c1.788 8.377 10.212 7.134 9.957-.49" stroke-width=".557"/><path d="M910.982 266.245c2.347 9.626 13.295 8.219 12.943-.537" stroke-width=".68"/><path d="M920.22 266.224c2.337 7.06 6.604 7.701 10.071-.544" stroke-width=".583"/><path d="M932.741 263.11l-30.743 1.316.037 2.194 30.99-1.134z" stroke-width=".565"/><path d="M903.262 285.801c1.788 8.377 10.212 7.132 9.957-.49" stroke-width=".557"/><path d="M910.982 285.545c2.347 9.627 13.295 8.22 12.943-.537" stroke-width=".68"/><path d="M920.22 285.523c2.337 7.062 9.4 5.874 10.071-.542" stroke-width=".583"/><path d="M932.741 282.41l-30.743 1.317.037 2.194 30.99-1.135z" stroke-width=".565"/></g><path d="M912.42 296.56c-2.772 1.82-5.293 4.051-8.94 5.171" fill="none" stroke="#000" stroke-width=".656"/><g fill="#bca76b" stroke="#472b1f"><path d="M902.342 303.92c1.79 8.377 10.213 7.132 9.958-.491" stroke-width=".557"/><path d="M910.063 303.664c2.347 9.627 13.295 8.22 12.943-.537" stroke-width=".68"/><path d="M919.3 303.642c2.338 7.062 8.58 4.842 10.072-.543" stroke-width=".583"/><path d="M931.822 300.529l-30.743 1.316.037 2.194 30.99-1.134z" stroke-width=".565"/></g><path d="M906.224 325.834c-.793 9.457-4.582 18.016-7.145 26.942m10.568-26.868c-.846 9.194-3.699 17.835-6.028 26.473m8.856-27.291c-1.101 10.214-2.332 18.743-4.614 27.24" fill="none" stroke="#000" stroke-width=".5"/><g fill="#bca76b" stroke="#472b1f"><path d="M902.736 321.251c1.79 8.377 10.213 7.132 9.958-.491" stroke-width=".557"/><path d="M910.457 320.995c2.347 9.627 13.295 8.22 12.943-.537" stroke-width=".68"/><path d="M919.695 320.973c2.337 7.062 8.488 5.669 10.071-.543" stroke-width=".583"/><path d="M932.216 317.86l-30.743 1.317.037 2.194 30.99-1.135z" stroke-width=".565"/><path d="M922.45 276.117l-11.035.344.032 2.903 11.12-.04z" stroke-width=".327"/><path d="M921.99 294.773l-9.81.321.028 2.72 9.887-.036z" stroke-width=".298"/><path d="M922.607 312.927l-10.665.345.034 2.916 10.749-.04z" stroke-width=".322"/></g><path d="M906 329.258l5.731 1.19m-7.071 4.168l6.625.149m-7.666 3.721l6.847 1.935m-8.708 4.168l8.038-.372m-9.452 5.284l8.485-.223m-10.467-23.671c-.9 9.675 5.344 18.848 8.462 26.978m17.44-5.073l5.446-1.621m-6.742-1.297l6.159-2.593m-8.104-2.01l6.353-1.88m-7.78-2.464l6.224-1.62" fill="none" stroke="#000" stroke-width=".5"/><path d="M886.296 369.702c-.722.016-1.413-.247-2.13-.339-.713-.229-1.435-.444-2.106-.787-.663-.322-1.288-.815-1.884-1.242a14.075 14.075 0 01-1.695-1.452c-.675-.618-1.356-1.186-1.967-1.86-.641-.655-1.318-1.305-1.865-1.983-.592-.659-1.315-1.175-1.796-1.914-.554-.541-.556-1.488-1.023-2.078-.762-.15-1.886-.277-1.918-1.284-.251-.607-.36-1.351-1.121-1.268-.316.016-.402.48-.207.191-.391-.211-.287.721-.338.22-.23.37-.479 1.156-.47 1.099-.336.674-.298 1.434.582 1.526.839.124.937 1.042 1.65 1.415.57.553 1.267 1.285 1.9 1.786.606.74 1.071 1.154 1.54 1.997.292.593 1.065 1.009 1.508 1.5.37.612.79 1.154 1.27 1.695.53.542 1.21 1.116 1.844 1.466.572.347 1.147.661 1.74.994.649.322 1.263.762 1.976.897.756.423 1.694.29 2.526.47.831.05 1.65 0 2.34-.528.687-.463-.013-.376-.356-.521zm44.884-21.754c-1.013 2.4-2.625 5.732-4.634 7.8 6.587 1.274 11.89-.565 17.826-1.573-.666-2.539-.643-5.354-.394-8.26-4.718.481-8.078 1.553-12.797 2.033z"/><path d="M931.732 348.605c-.833 2.123-1.47 4.316-3.121 6.145 5.407 1.126 9.82-.5 14.692-1.392-.932-1.97-.654-4.11-.323-6.259-3.873.424-7.376 1.082-11.248 1.506z" fill="#333"/><path d="M874.82 358.172l19.127 1.445c15.365.473 32.987-.224 48.222-1.97.625-.073 1.648-.247 1.855.347.252.724-.749 1.624-1.507 1.739-17.487 2.28-35.164 1.4-52.743 1.275l-10.433-1.097z"/><path d="M881.842 315.276c-4.921 3.794-9.828 7.625-15.395 9.808m16.14-27.846c-4.495 3.249-8.964 7.257-13.78 9.224" fill="none" stroke="#000" stroke-width=".656"/><path d="M880.925 264.3l-.126 89.477 4.91-.339-2.847-89.653z" fill="#bca76b" stroke="#472b1f" stroke-width=".352"/><path d="M882.863 263.787c3.987 4.411 7.161 6.794 10.525 9.65" fill="none" stroke="#000" stroke-width=".656"/><path d="M884.132 261.234c-.998-.51-3.64-.61-4.69.636-.563.67-.096 2.907.61 2.925 1.421.038 3.225.138 3.79-.477.59-.636.969-2.737.29-3.084z" fill="#bca76b" stroke="#472b1f" stroke-width=".456"/><path d="M881.33 365.338c.139-.76.726-.98 1.414-1.11.793.03 1.762-.114 2.27.201.61.154.92.462 1.464.708.33.403.9.68 1.313.908 1.606.617.735-1.24 1.649-1.313.775.07 1.589-.289 2.237 0 .578.115.846.536 1.162.909.346.306.722.568.91.908.13.468 1.858 1.315 1.918.203.355-.76.197-2.072 1.414-1.917 1.355-.075 2.4.262 3.635.403.648.265 1.175.35 1.714.908.47.28.431.835.86.808 1.23.907.973-.775 1.363-1.313.306-.487 1.195-.352 1.615-.706.78-.229 1.531-.488 2.624-.404.438.247 1.2.63 1.718.909.387.357.877.823 1.112 1.413.046.59.582 1.06 1.111.605.27-.677.814-.66 1.313-1.01.521-.115.863-.446 1.21-.806.306-.079.622-.755.91-1.01.537-.403 1.622-.307 2.524-.404.89.263 1.716.37 2.221.808.309.33.535.745 1.011.908.284.586.965.097 1.414-.1.367-.273.926-.568 1.415-.808.425-.426 1.033-.67 1.848-.707.994-.113 1.514.411 2.289.504.73.32 1.556.368 2.019.81.528.358 1.24.658 1.766.2.688.021.156-1.326.42-1.642.794-.63 2.679-.547 3.668-.174.837.023 1.815-.098 2.373.202.551.134.634.66.859 1.211.252.516 1.716.495 2.22.101.48.01-.108-.683-.302-.908-.31-.204-.645-.695-.81-1.011.752-.363 1.1.325 1.716.404.36.309.848.415 1.212.807.59.218 1.103.51 2.014.405.845.247.472 1.48-.5 1.21-.71.231-1.848.037-2.725.101-1.327-.157-2.75-.085-4.137-.1-.692.257-1.825.19-2.626.404-.86-.01-1.527.17-2.447.1-.87.132-1.899.102-2.9.102-.887.17-1.655.2-2.59.302-.81.01-1.47.17-2.356.101-1.164.215-2.71.049-4.038.101-.834.14-1.543.117-2.321.202-.843.024-1.588.166-2.488.201-.92-.025-1.616.175-2.585.101-1.435.218-3.018.048-4.514.101-.72-.165-1.674-.095-2.454-.202-.74-.02-1.36-.165-2.185-.1-.626-.216-1.71.023-2.327-.202-1.225.071-2.156-.153-3.36-.1h-6.53c-.558-.237-1.555-.034-2.28-.102-1.213-.021-2.662.042-3.739-.029-.98-.17-2.047.015-2.862-.374-1.304-.239-2.96-.66-2.85-1.717z" stroke="#000" stroke-width=".919"/><g fill="#bca76b" stroke="#472b1f"><path d="M870.518 275.315c1.565 5.799 8.936 4.936 8.712-.342" stroke-width=".433"/><path d="M877.273 275.137c2.053 6.665 11.633 5.69 11.325-.371" stroke-width=".529"/><path d="M885.357 275.121c2.044 4.89 5.777 5.334 8.812-.375" stroke-width=".454"/><path d="M896.313 272.966l-26.9.912.032 1.52 27.116-.787z" stroke-width=".439"/></g><path d="M877.843 285.984c-2.36 2.064-6.815 4.763-8.77 4.5m3.955-11.957c-5.83 22.11-13.36 45.573-20.485 64.31" fill="none" stroke="#000" stroke-width=".656"/><g fill="#bca76b" stroke="#472b1f"><path d="M870.21 292.026c1.609 6.23 9.186 5.304 8.956-.365" stroke-width=".456"/><path d="M876.628 291.902c2.113 8.353 11.961 7.132 11.643-.466" stroke-width=".601"/><path d="M885.476 291.828c2.332 5.23 6.587 5.703 10.046-.402" stroke-width=".5"/><path d="M896.7 288.87l-27.6 1.209.032 2.011 27.82-1.04z" stroke-width=".512"/><path d="M868.76 307.972c1.743 7.628 9.952 6.495 9.705-.447" stroke-width=".525"/><path d="M876.299 307.886c2.444 11.242 13.846 9.598 13.48-.627" stroke-width=".751"/><path d="M885.288 307.718c2.278 6.433 6.437 7.015 9.817-.493" stroke-width=".549"/><path d="M897.48 304.882l-31.424 1.202.037 1.997 31.674-1.032z" stroke-width=".545"/><path d="M868.199 326.586c1.888 8.262 10.78 7.034 10.51-.484" stroke-width=".569"/></g><path d="M891.448 330.886c1.817 7.852 4.183 15.03 6.462 21.724m-8.828-21.998c.993 7.558 3.092 14.874 5.278 21.953" fill="none" stroke="#000" stroke-width=".656"/><g fill="#bca76b" stroke="#472b1f"><path d="M876.347 326.334c2.27 10.957 13.76 10.028 13.663-.53" stroke-width=".695"/><path d="M886.099 326.312c2.467 6.964 6.97 7.597 10.63-.535" stroke-width=".595"/><path d="M899.275 322.862l-35.007 1.436.042 2.39 35.287-1.235z" stroke-width=".629"/><path d="M887.86 283.472l-10.049.266.032 2.246 10.126-.032zm0 16.28l-10.049.267.032 2.245 10.126-.031z" stroke-width=".274"/><path d="M888.504 317.482l-10.689.265.032 2.238 10.772-.031z" stroke-width=".282"/></g><g fill="none" stroke="#000"><path d="M892.436 333.171l-5.73 1.19m6.641 3.179l-5.731 1.19m7.004 3.55l-5.82-.28m7.55 4.83l-6.004.903m-20.842-1.82l6.03 1.19m-4.364-6.105l5.43 1.19m-3.965-4.976l5.031 1.29m-4.112-4.694l4.531.89" stroke-width=".5"/><path d="M945.23 353.856c10.044-.448 22.053-1.608 30.133 1.544m-29.493 1.801c9.26-1.365 20.044-2.137 27.95.9m-26.924 5.789c6.675-1.495 15.609-1.844 21.94-.257m-21.26 1.834c6.675 1.496 14.535 1.845 20.867.258"/></g><path d="M849.898 342.113l21.677 13.099.463-.58-6.839-4.752c-4.883-3.024-9.79-6-15.301-7.767z"/><g fill="none" stroke="#000"><path d="M953.971 352.807l-.17-7.229m2.381.085v7.399m4.082.085v-7.739m4.508.649v7.43m2.721-7.484l.085 7.57m3.487-6.79v7.044m1.871-7.143l-.085 7.909m-17.944 1.361l-.086 6.803m-2.211-6.463v6.463m5.953-6.633l-.255 6.463m2.467-6.548l-.086 6.463m3.402-6.548l-.425 6.293m3.572-5.443l-1.19 5.783" stroke-width=".5"/><path d="M945.381 346.041c9.922-1.176 19.844.244 29.766 1.231"/></g><path d="M999.475 257.01c.075-25.558-1.356-50.372-.703-72.116-33.069-14.686-76.58-17.706-98.77-17.706-22.194 0-65.706 3.02-98.774 17.706.653 21.744-.775 46.558-.703 72.115z" fill="none" stroke="#000" stroke-width="2"/><path d="M894.036 215.492s3.573 5.313 4.535 8.173c.47 1.4.648 2.923.55 4.397-.18 2.694-1.221 5.267-2.062 7.833-.583 1.778-1.864 3.127-1.156 4.86.342.835.677 1.6 1.569 1.46.544-.084.805-.754 1.236-1.098.308-.246.598-.537.962-.688.515-.213 1.249.113 1.649-.274.335-.326.57-1.013.275-1.375-.261-.318-.825-.015-1.237 0-.597.023-1.267.432-1.786.138-.535-.303-.825-1.65-.825-1.65s1.069-2.942 1.65-4.396c.478-1.201 1.254-2.306 1.511-3.573.082-.404-.03-.826 0-1.237.046-.646-.165-1.449.275-1.924.286-.31 1.082.118 1.236-.275.59-1.501-2.152-2.485-2.748-3.985-.222-.56-.079-1.217-.275-1.786-.427-1.241-1.924-3.435-1.924-3.435z" fill="#69737c" stroke="#000" stroke-width=".729"/><path d="M905.183 219.623s3.171 3.96 3.5 6.355c.073.531-.356 1.03-.368 1.566-.02.842.499 1.644.46 2.486-.125 2.709-1.552 5.199-2.21 7.83-.558 2.224-1.474 6.723-1.474 6.723l2.026-.185.368-3.408s1.062-3.863 1.566-5.802c.35-1.348.54-2.743 1.013-4.052.313-.866.982-1.593 1.198-2.487.282-1.164.622-2.518.092-3.592-.185-.374-.724-.435-1.013-.737-.69-.719-1.212-1.596-1.658-2.487-.452-.902-1.013-2.855-1.013-2.855-.423.157-2.487.645-2.487.645z" fill="#66452b" stroke="#000" stroke-width=".729"/><path d="M890.203 212.412l2.263 1.802 3.914 2.364 1.806.11 2.039.735 2.545-.08 1.884 1.924.53.356 2.09-.29.772-.856 3.993-6.087-.958-10.038-19.026 1.232z" fill="#fff"/><path d="M910.724 195.47c2.57 2.086 5.07 4.27 7.08 6.92 1.548 1.833 2.496 4.327 4.768 5.474 3.201 3.418 16.904 7.382 16.95 8.45-3.158-1.286-4.531 3.024-7.592 2.331-2.85.828-5.195-1.036-7.659-2.072-3.703-.132-7.56.06-10.857 1.939-1.8.979-3.944-.532-5.368-.035l-.164.31-.213.191m-17.466-6.566c-2.195-1.09-3.8-3.135-5.843-4.367-1.58-2.223-3.607-4.449-3.51-7.374-.248-3.023-1.04-7.204.395-10.078-1.03-2.253-2.477-2.86-3.617-5.08-.825-3.07-3.939-4.833-2.07-7.167 2.08-1.848 3.534-4.03 6.213-4.988 2.222-.515 4.475-.299 6.608.463 2.76.324 4.274 2.68 5.73 4.719a23.344 23.344 0 013.435 9.092c1.272 2.661 4.655 3.203 7.135 4.338 2.138 1.012 4.273 1.874 6.045 3.5" fill="#fff"/><path d="M925.738 213.266c-1.076-.153-3.66.913-2.983-.685-2.648-.191-5.429.376-7.976-.511-2.638-1.294-5.503-2.091-8.326-2.86-2.764-.15-6.021.49-8.143-1.778-2.202-1.287-5.421-.359-7.441-2.23-2.042-1.737-3.27-4.135-3.193-6.817-.406-2.628-1.385-6.166 1.56-7.713 1.922-.583 3.761-.082 4.923-2.012 2.447-.404 4.694.491 6.803 1.686 2.475 1.225 5.206 1.984 7.612 3.36 2.305 1.522 4.266 3.504 6.428 5.232 1.697 1.947 3.675 3.746 4.774 6.138 1.302 2.565 3.996 3.917 6.304 5.403 1.383.357 4.678 1.888 1.548 2.3-.645.104-1.244.419-1.89.487z"/><path d="M898.748 204.627c-1.345-.18-2.71-.457-3.818-1.29-.874-.522-3.03-1.788-1.63-2.777 1.163-.138 2.494.442 3.532-.359 1.564-.327 3.217-.357 4.66-1.127 1.345-.73 2.933-.242 4.335-.69 1.043-.555.896-2.647 2.49-2.292 1.463-.374 1.035 2.434-.27 1.542-.809 1.132 1.458 1.515 2.058 2.216 1.208 1.37-1.45 1.68-1.687 2.697-1.68.49-2.91-1.62-4.589-1.028-.31.563.04 1.716-1.176 1.435-1.402-.857-2.618.105-4 .277.405.307-.476 1.43.095 1.395zm29.171 10.06c-.79-.417-1.803-.064-2.68-.012-.588.008-1.173.038-1.724-.208-.868-.022-2.516-.962-2.768.288.057.54 1.478.769.301.939-1.193.17-2.262-.37-3.352-.756-.446-.418-1.392-.944-1.158.065.379.873-.56 1.277-1.31 1.249-1.066-.076-2.255-.364-3.029-1.14-.558.691.787 1.664 1.583 1.714.794.673-1.2.408-1.652.314-.672-.115-1.43-.204-2.013.212-.932.21-.956 1.12.126 1.02 1.041.342 2.209.653 3.241.115a10.78 10.78 0 013.615-1.34 23.346 23.346 0 013.04-.466c1.357-.155 2.724-.137 4.096-.136 1.068.57 2.118.076 3.063-.425.583-.18 2.344-.845 1.061-1.35-.16.056-.295-.205-.44-.082z" fill="#69737c"/><path d="M924.272 216.574c.526.005 1.047-.007 1.515-.26.515-.286 1.077-.378 1.623-.577.702.008 1.025-.94.286-1.134-.387-.257-.847-.44-1.25-.62-.418-.361-1.032-.474-1.407-.85.316-.394.59-.82.907-1.21.49-.197 1.086-.12 1.611-.253.389-.123.8-.063 1.2-.078.546.277 1.14.46 1.66.766.538.293 1.101.562 1.704.745.498.152.977.331 1.449.527.548.279 1.174.37 1.752.564.578.118.813.767 1.501.671.669.117 1.273.255 1.768.725.372.156 1.036.505 1.051.818-.545.07-1.009-.417-1.574-.308-.442.096-.73.528-1.247.448-.226.665-1.09.564-1.488 1.113-.56.431-1.165.818-1.83 1.083a2.098 2.098 0 01-1.597-.046c-.599-.165-1.233-.016-1.837-.115-.647.174-1.244.031-1.853-.181-.536-.144-.943-.538-1.405-.816-.555-.226-1.56-.492-2.112-.723-.29-.14-.259-.228-.574-.29zm-40.907-43.575c-.563-.01-1.126 0-1.655.225-.927.207-1.75.756-2.348 1.484a13.363 13.363 0 01-2.645 2.354 3.849 3.849 0 00-1.158 1.283c.56.367 1.442.469 1.834-.196.606-.75 1.396-1.357 2.298-1.7.797-.158 1.607.16 2.404.245.635.345 1.287.616 2.017.721.378.138 1.022.197 1.558.347.735.283 1.513.41 2.274.609.862.177 1.738.115 2.598-.024.193-.022.389-.029.584-.035-.123.28-.222.537-.204.667.017.524.244.995.476 1.454.278.454.558.906.83 1.352.222.52.479 1.021.679 1.552.26.403.407.843.588 1.28.12.494.317.977.66 1.337.35.455.762.87 1.075 1.355.286.419.5.892.716 1.33.379.319.777.782 1.297.727.539.07 1.049-.147 1.577-.204l-.18-.046c-.496-.256-.742-.764-1.004-1.223-.12-.511-.17-1.046-.261-1.545-.034-.508-.213-.995-.385-1.475-.131-.424-.304-.828-.417-1.251a14.203 14.203 0 01-.534-1.337c-.18-.473-.32-.964-.598-1.391-.256-.457-.457-.94-.74-1.39-.301-.405-.474-.932-.793-1.318-.157-.243-.379-.37-.624-.453.1-.242-.005-.566-.28-.824-.366-.436-.867-.847-1.146-1.41-.598-.744-1.566-.982-2.395-1.37-.966-.439-2.01-.647-3.044-.85a8.08 8.08 0 00-2.494-.274c-.186 0-.373-.004-.56-.007z"/><path d="M892.984 186.554c-.029-.738-1.036-.447-1.346-.055-.496.49-.774 1.175-1.37 1.568-.88.641-2.039.73-2.912 1.377-.502.517-.887 1.177-1.56 1.5-.69.37-1.439.787-1.797 1.517-.159.536-.521 1.28.04 1.707.72.27.03.923.07 1.39.336.494 1.15.689 1.658.337.678-.408 1.413-.786 1.855-1.471.645-.785 1.37-1.56 2.3-2.001.616-.152 1.092-.562 1.512-1.01.441-.36.068-1.064.74-1.185.611-.232.936-.81 1.326-1.292.361-.56-.296-1.083-.209-1.68-.035-.259-.069-.545-.306-.702z" fill="#69737c"/><path d="M903.51 245.095h-3.709c-.613-.246-1.043-1.274-1.824-.866-.68.261-1.36.583-2.008.932a4.626 4.626 0 00-1.568 1.366c-.077.392-1.224.834-.257.848.836.068 1.352-.79 2.159-.903.635-.255 1.336-.096 2.001-.14.542.13 1.152.134 1.738.13.659-.051 1.28.07 1.92.054.933.084-.344.653-.642.778-.729.33-1.538.427-2.317.6-.771.005-1.566-.027-2.275.317-.714.33-1.432.68-2.091 1.132-.36.199-1.277.68-.371.69.673.082 1.325-.084 1.963-.285 1.111-.417 2.263-.69 3.434-.874.764-.173 1.471-.503 2.244-.643.472 0 1.73-.233 1.334.598-.482.579-1.167.984-1.849 1.286-.575.333-1.11.857-1.833.837-.545-.192-1.695.228-.864.78.419.751 1.305.237 1.852-.042a21.993 21.993 0 011.952-.836 36.232 36.232 0 002.261-.903c.606-.383 1.362-.518 1.917-.938.659-.385 1.44-.696 1.755-1.456.198-.618.668-1 1.262-1.206.675-.17 1.393-.064 2.077-.215.77-.003.549-1.394-.162-1.429-.622-.404-1.152-.88-1.788-1.238-.75-.272-1.54-.467-2.356-.39-.673.048-1.203.473-1.534 1.028-.419.49-.514 1.353-1.34 1.159-.373.102-.738-.034-1.08-.17zm-18.087 4.62s.702-2.592 1.617-3.49c1.859-1.823 7.148-3.148 7.148-3.148-2.257.88-4.965.225-7.148.85-1.82.57-4.936 2.895-4.936 2.895s1.154-2.476 2.043-3.49c2.62-2.863 6.803-3.198 9.956-2.723l3.575.51s.609.37.34.913c-.562 1.137-2.258 1.788-3.404 2.334-3.212 1.636-7.195 2.914-9.19 5.35z" fill="#66452b" stroke="#000" stroke-width=".729"/><path d="M896.316 240.61c-2.88 1.947-9.525 5.43-9.276 5.615 0 0 5.664-1.295 8.255-2.552.899-.437 2.16-.752 2.468-1.702.158-.487-.08-1.171-.51-1.447-.264-.169-.677-.09-.937.085z" fill="#69737c" stroke="#000" stroke-width=".729"/><path d="M910.064 225.517c-.7-.047-.8 1.233-.829 1.935-.02.484-.024 1.347.46 1.381.617.044.77-1.043.83-1.658.055-.57.111-1.62-.46-1.658z" fill="#69737c"/><path d="M907.117 244.398c.022-.562-.692-.262-.998-.163-.697.16-1.297.555-1.908.908-.475.311-.99.56-1.478.848-.965.462-1.837 1.094-2.803 1.553-.409.2-.831.39-1.275.482-.36.07-.231.298.076.27.665.143 1.355.066 1.993-.16.71-.221 1.516-.404 2.2-.693.368-.335 1.13-.456 1.555-.701.354-.229 1.276-.367 1.658-.544.633-.332.375-.79 1.098-.795.451-.001.516-.688.068-.775a.392.392 0 01-.186-.23z" fill="#69737c" stroke="#000" stroke-width=".729"/><path d="M900.578 250.477c.51-.14 1.053-.114 1.554-.298.62-.16 1.229-.36 1.832-.57.288-.142.577-.283.864-.427.508-.359.856-.896 1.193-1.408.23-.436.447-.88.668-1.32.102-.358-.334-.517-.552-.256-.328.235-.63.505-.969.725-.33.28-.729.47-1.036.776-.37.436-.554 1.008-.97 1.407a2.13 2.13 0 01-.677.464c-.525.287-1.107.44-1.64.71-.095.056-.197.11-.267.197z" fill="#69737c" stroke="#000" stroke-width=".729"/><path d="M907.526 212.936c.209.332.323.73.343 1.119.061.476.179.944.241 1.418-.031.494-.547.793-.629 1.28-.03.325.02.658-.058.982-.117.529.053 1.083-.148 1.599-.25.48-.964.116-1.407.242-.43.1-.955.122-1.214-.31-.367-.393-.69-.83-1.103-1.18-.498-.485-1.015-.972-1.342-1.596-.299-.42-.552-.865-.84-1.29-.096-.18-.196-.407-.27-.561m1.671 2.704c-.423.003-.836.136-1.275.08h-1.27c-.311-.126-.922-.129-1.218-.331-.347-.069-.515-.275-.82-.404-.227-.162-.433.012-.715-.031-.192-.352-.608-.792-.836-1.036-.243-.126-.513-.217-.701-.487-.261-.065-.463-.493-.563-.632-.196-.23-.251-.535-.442-.784-.18-.263-.246-.518-.434-.795-.036-.058-.01-.133 0-.193" fill="none" stroke="#000" stroke-width=".729"/><path d="M897.472 216.656c-.096.61-.785-.007-1.092-.078-.253-.126-.48-.273-.774-.366-.213-.164-.5-.276-.722-.379-.264-.165-.6-.271-.8-.478-.379-.086-.658-.457-1.017-.557-.327-.309-.693-.536-1.053-.776-.375-.296-.8-.555-1.159-.922-.342-.296-.632-.611-.658-1.064a3.344 3.344 0 00-.306-1.174c.042-.23-.125-.31-.088-.518" fill="none" stroke="#000" stroke-width=".729"/><path d="M925.748 216.99a3.822 3.822 0 001.166-.102c.4-.022.767-.182 1.15-.273.398-.168.721-.566 1.19-.527.423-.023.896.129 1.273-.132.238-.324.577-.44.965-.373.394-.057.77.072 1.151.151.354.127.722.205 1.077.33.342.178.677.38 1.037.52.357.182-.251.433-.364.614-.358.149-.793.012-1.111.29-.328.175-.623.41-.776.757-.192.396-.673.283-1.02.41-.344.05-.694.003-1.038.06-.294.009-.61.115-.883-.03-.368-.115-.75-.2-1.137-.21-.301-.208-.543-.543-.937-.574-.531-.12-.969-.471-1.483-.64a.453.453 0 01-.26-.271z" fill="#bca76b"/><path d="M877.903 182.72c-.88-.186-1.743.225-2.627.208-.811.18-1.665.048-2.495.089-.866-.157-1.797-.078-2.678.062-1.311.213-2.557.728-3.877.927-1.782.114-3.584.017-5.375.05-1.255.105.124-1.521.835-1.453 1.633-.44 3.227-1.033 4.92-1.198 1.259-.186 2.48-.569 3.73-.79 1.011-.287 2.033-.515 3.042-.806 1.049-.177 2.106-.376 3.167-.195 1.094-.27 2.189-.529 3.232-.973.949-.472 2.084-.157 2.975-.743.563-.831 1.616-.802 2.511-.726.951.175 1.993.524 2.576 1.368.7 1.015-1.442.883-.8 1.946-.38.391-1.11.483-1.691.454-.502-.03-1.032.102-1.486-.17-.813-.287-1.433-.916-2.181-1.345-.767-.12-.806 1.296-1.775 1.144-1.227.47-2.568.35-3.857.37.812.298 1.699.587 2.349 1.158.254.393-.198.542-.495.623z" stroke="#000" stroke-width=".486"/><path d="M883.096 179.16l.816-.371.444-.742s.701 1.053.372 1.409c-.376.406-1.633-.296-1.633-.296zm2.167-1.988c.167-.127-.676-.65-.047-.788.665-.798 1.713-.141 2.486.103 1.49.471 3.057 1.051 4.05 2.328 1.43 1.65 1.751 3.906 2.884 5.729.486.872.796 1.824 1.117 2.763.235.747 1.377 1.524.781 2.328-.701.426-1.414-.145-2.076-.318-.898-.093-.462.91.126 1.027.638.253.836 1.269-.076 1.21-.872-.103-1.738-.17-2.591-.304-.68-.369.182-1.05.563-1.297.51-.306 1.184-.714 1.084-1.408.01-1.256-.858-2.286-1.048-3.503-.227-.912-.444-1.842-.898-2.673-.393-1.958-2.152-3.308-3.96-3.907-.774-.398-1.6-.742-2.342-1.177l-.053-.113z" fill="#fff"/><path d="M891.78 178.154c.26.145.513.303.777.437.21.215.691.944.842 1.204.102.214.15.442.203.672.046.295.274.498.431.734.144.335.25.685.383 1.025.174.264.347.535.411.85.062.268.14.526.248.777.147.212.227.63-.14.65-.242-.063-.498-.187-.643-.406-.281-.255-.432-.614-.652-.92a2.412 2.412 0 01-.265-.697c-.15-.263-.187-.574-.294-.855-.133-.266-.18-.562-.335-.817-.17-.288-.234-.624-.417-.907-.154-.341-.714-1.187-.582-1.58.013-.055.025-.11.033-.167zm-5.866-2.184c-.204-.067-.35-.223-.487-.379-.156-.092-.439-.19-.551-.3-.38.15-.067-.25-.255-.19-.087-.146-.076-.252-.168-.407-.118-.139-.27-.246-.379-.392.008-.08-.16-.185.007-.185.202-.006.415-.026.598.069.2-.035.351.115.548.084.278-.02.558.004.837-.008.135-.048.155.127.3.078.097.018.124.1.236.064.226.01.258.25.381.381.169.104.242.29.284.461.038.045.073.25.06.204.024-.045.026.2-.081.19-.139.143-.336.161-.49.252-.198.016-.346.192-.547.15-.1-.016-.194-.053-.293-.072z" fill="#bca76b"/><path d="M885.427 175.592c-.284.124-.593.238-.908.192-.208.047-.364.203-.518.339-.181.116-.4.152-.606.191-.17-.035-.297-.171-.466-.216-.147-.057-.14-.255-.3-.303-.157-.11-.335-.177-.51-.25-.152-.065-.101-.25-.12-.382-.004-.15.018-.301.076-.44-.007-.21.181-.29.364-.25.346.004.691.001 1.037.002.172-.09.367-.189.566-.157.191.064.285.262.44.378.32.293.629.598.945.896zm1.554-.807c.23-.117.479-.23.732-.264.256-.011.49.097.736.15.264.08.53.145.77.288.277.091.521.243.788.363.24.131.475.273.722.39.227.112.449.24.652.387.219.173.437.356.602.582.153.175.004.502-.229.319-.229-.151-.485-.243-.743-.33-.24-.035-.472-.075-.69-.188-.251-.049-.48-.213-.736-.277-.324-.15-.669-.247-.99-.4-.14-.106-.323-.122-.472-.213-.299-.158-.606-.299-.906-.455-.09-.097-.276-.19-.236-.352z" fill="#fff"/><path d="M890.684 180.056c-.999-.078-2 .387-2.988.07-.746-.1-1.329.463-1.971.731-.833-.082-1.005 1.11-1.744 1.051-.633-.075-1.387-.565-1.96-.339 1.287.571 2.601 1.143 3.746 1.977.623.578 1.331 1.084 2.151 1.334.557.24 1.204.797.953 1.47-.25.787-1.427.926-1.473 1.818-.133.781-.992 1.114-1.27 1.82-.303.55-1.008.878-1.063 1.55.17.839 1.145.207 1.118-.41.146-.536.623-1.366 1.289-1.024.543.768 1.21-.539 1.863-.225.301.452 1.002.69 1.304.09.442-.173 1.137-.462.716-1.091-.014-.645.783-.602 1.146-.968.505-.229 1.034-.882.483-1.356-.495-.69.037-1.674-.583-2.314-.471-.733.014-1.65-.379-2.41-.333-.63-.594-1.522-1.266-1.795z"/><path d="M917.538 207.272c-1.143-.02-2.065.853-3.196.934-1.37.192.357.812.78 1.11 1.088.721 2.384.97 3.593 1.39 1.132.54 2.41.875 3.66.656 1.163-.272.3-1.427-.025-2.066-.696-.996-1.878-1.5-2.752-2.32-.632-.563-1.581-.36-2.06.296z" fill="#69737c"/><path d="M916.765 209.7c-.419.051-.83.188-1.258.14-.49.043-1.011.145-1.462-.122-.509-.13-1.029-.228-1.485-.505-.353-.234-.83-.328-1.04-.728-.3-.425.307-.46.587-.508.51-.103 1.05-.203 1.567-.097.563.29 1.178.444 1.738.737.464.204.928.436 1.269.813-.005-.015.078.173.084.27zm5.608-.34c.077.488-.786.024-1.093.185-.586.083-1.098-.1-1.634-.327-.85-.402-1.712-.798-2.629-1.004-.425-.11-1.294-.503-.667-.99.493-.38 1.129-.684 1.733-.764.647-.034 1.202.397 1.798.61.597.288 1.227.538 1.746.969.37.308.792.783.746 1.32z" fill="#fff"/><path d="M906.877 203.826a5.064 5.064 0 01-2.75.707c-.858.317-2.328-.458-2.633.682-.415.927.703 1.32 1.298 1.726 1.748 1.009 3.809.957 5.76 1.042.534.033 2.226-.2 1.33-.854-.979-.748-1.707-1.744-2.487-2.681-.194-.188-.408-.368-.518-.622zm9.79.636c-.39-.057-.76-.221-1.135-.332-.517-.173-.955-.517-1.449-.758-.665-.378-1.318-.785-2.007-1.111-.336-.119-.272-.485.097-.44.367.011.494-.574.852-.192.451.273.876.578 1.224.98.419.346.81.77 1.36.9.393.219 1.03.434 1.058.953zm-1.321 1.812s-1.771.46-2.596.121c-.607-.181-1.233-.299-1.799-.597-.691-.348-1.439-.66-1.983-1.23-.438-.552.105-1.423.808-1.196.431-.121.254-1.107.912-.67.904.409 1.809.856 2.587 1.477.469.447.996.836 1.443 1.303.221.253.628.791.628.791zm-13.21-12.449c1.182.303 2.555.856 3.279 1.898 1.038 1.263-.989 1.952-1.906 1.238-1.504-.736-3.018-1.494-4.631-1.952-1.545.2.684 1.093 1.115 1.5.681.405 1.266 1.18 1.256 1.955-1.018.79-2.325-.053-3.445-.163-1.226-.142-1.91-1.213-2.684-2.034-.56-.583-1.21-.932-1.958-.592 0 1.027.748 1.281 1.222 2.148.419.52 2.044 1.847.475 1.857-1.144-.314-2.2-1.066-2.812-2.11-.7-.722-1.245-2.221.195-2.41 1.238-.747 2.693-1.115 4.139-1.113 1.573-.145 3.17.11 4.714-.301.217.066 1.218-.451 1.04.08z" fill="#69737c"/><path d="M890.171 194.724c-.194.337-.335.661-.337 1.018-.024.43.02.824.058 1.221.11.319.192.687.324.992.192.364.499.582.792.836.24.264.487.4.792.568.234.141.466.231.73.321.234.104.61.204.928.267.349.06.597.006.738-.288.355-.223.067-.411-.173-.484-.273-.052-.511-.271-.755-.476a3.072 3.072 0 01-.623-.804c-.099-.269-.285-.517-.465-.774-.18-.213-.32-.429-.561-.645a5.864 5.864 0 01-.712-.767 8.729 8.729 0 00-.647-.763c-.048-.065-.094-.139-.089-.222zm10.392 4.1c-.658-.062-1.714-.338-2.5-.565-.886-.308-1.705-.835-2.258-1.603-.658-.611-1.3-1.263-2.067-1.739-.8-.243-1.127.883-.617 1.37.438.7 1.078 1.248 1.571 1.909.577.61 1.293 1.053 2.03 1.449.93.571 2.052.75 3.125.82.625-.078 1.376-.461 1.532-1.117.049-.423-.508-.513-.816-.524zm-2.303 5.28c-.574.104-1.21.108-1.696-.262-.488-.241-.822-.723-1.114-1.168-.399-.467-.86-.963-1.466-1.142-.536-.153-1.181.223-1.012.832.073.507.46.905.804 1.258.57.566 1.344.817 2.064 1.132.36.193.799.234 1.205.242.414-.007 1.072.15 1.213-.376.02-.172-.013-.344 0-.516zm5.785-1.685c.49.215.83.845.508 1.335a1.802 1.802 0 01-1.663.742c-.536-.019-1.078.06-1.602-.096-.598-.18-1.156-.453-1.7-.75-.605-.2-.671-.91-1.07-1.318-.249-.461.584-.685.93-.553.583.19.938.744 1.503.954.448.235.901.46 1.414.515.434.103 1.01.193 1.294-.247.106-.207.246-.397.386-.582zm5.054-1.266c.423.445.163 1.281-.436 1.42-.494.103-1.022.22-1.518.054-.734-.178-1.386-.576-2.016-.977-.38-.317-.975-.426-1.255-.867-.17-.6.487-1.077 1.044-.863.8.262 1.655.362 2.4.781.542.23 1.093.472 1.68.492z" fill="#fff"/><path d="M910.724 195.47c2.57 2.086 5.07 4.27 7.08 6.92 1.548 1.833 2.496 4.327 4.768 5.474 3.201 3.418 16.904 7.382 16.95 8.45-3.158-1.286-4.531 3.024-7.592 2.331-2.85.828-5.195-1.036-7.659-2.072-3.703-.132-7.56.06-10.857 1.939-1.8.979-3.944-.532-5.368-.035l-.164.31-.213.191m-17.466-6.566c-2.195-1.09-3.8-3.135-5.843-4.367-1.58-2.223-3.607-4.449-3.51-7.374-.248-3.023-1.04-7.204.395-10.078-1.03-2.253-2.477-2.86-3.617-5.08-.825-3.07-3.939-4.833-2.07-7.167 2.08-1.848 3.534-4.03 6.213-4.988 2.222-.515 4.475-.299 6.608.463 2.76.324 4.274 2.68 5.73 4.719a23.344 23.344 0 013.435 9.092c1.272 2.661 4.655 3.203 7.135 4.338 2.138 1.012 4.273 1.874 6.045 3.5" fill="none" stroke="#000" stroke-width=".729"/></svg>