<svg width="24" height="24" fill="none" xmlns="http://www.w3.org/2000/svg"><g clip-path="url(#clip0_1046_3754)"><path d="M24 12c0 6.627-5.373 12-12 12S0 18.627 0 12c.522 0 12-1.566 12-1.566L24 12z" fill="#338AF3"/><path d="M0 12C0 5.373 5.373 0 12 0s12 5.373 12 12" fill="#F0F0F0"/><path d="M16.763 8.28L12 13.045 7.237 8.281a5.706 5.706 0 00-.976 3.198v1.565a5.75 5.75 0 003.877 5.43c-.3.589-.25 1.324.191 1.875l1.706-1.367 1.705 1.367a1.736 1.736 0 00.18-1.897 5.749 5.749 0 003.819-5.408V11.48c0-1.183-.36-2.284-.976-3.198z" fill="#6DA544"/><path d="M12 17.218a4.179 4.179 0 01-4.174-4.174v-1.566A4.179 4.179 0 0112 7.306a4.179 4.179 0 014.174 4.174v1.565A4.179 4.179 0 0112 17.218z" fill="#FFDA44"/><path d="M14.609 13.043v-1.565A2.612 2.612 0 0012 8.87a2.612 2.612 0 00-2.608 2.61v1.564l2.608.522 2.609-.522z" fill="#338AF3"/><path d="M9.392 13.043A2.612 2.612 0 0012 15.652a2.612 2.612 0 002.609-2.609H9.392z" fill="#6DA544"/><path d="M15.13 7.304a1.565 1.565 0 00-2.609-1.166v-.921h.522V4.174h-.522v-.522h-1.043v.522h-.522v1.043h.522v.92A1.565 1.565 0 009.39 8.47v.92h5.217v-.92a1.56 1.56 0 00.522-1.166z" fill="#FFDA44"/></g><defs><clipPath id="clip0_1046_3754"><path fill="#fff" d="M0 0h24v24H0z"/></clipPath></defs></svg>