<svg width="24" height="24" fill="none" xmlns="http://www.w3.org/2000/svg"><g clip-path="url(#clip0_1046_3757)"><path d="M17.218 1.19A11.952 11.952 0 0012 0c-1.87 0-3.64.428-5.217 1.19L5.739 12l1.044 10.81A11.953 11.953 0 0012 24c1.87 0 3.64-.428 5.218-1.19L18.26 12 17.218 1.19z" fill="#FFDA44"/><path d="M12 7.826l1.036 3.189h3.353l-2.713 1.97 1.036 3.189L12 14.204l-2.712 1.97 1.036-3.189-2.713-1.97h3.353L12 7.825zM6.783 1.19A12 12 0 000 12a12 12 0 006.783 10.808V1.191z" fill="#496E2D"/><path d="M17.218 1.191V22.81A12 12 0 0024 12a12 12 0 00-6.782-10.809z" fill="#D80027"/></g><defs><clipPath id="clip0_1046_3757"><path fill="#fff" d="M0 0h24v24H0z"/></clipPath></defs></svg>