<svg width="24" height="24" fill="none" xmlns="http://www.w3.org/2000/svg"><g clip-path="url(#clip0_1046_3763)"><path d="M12 24c6.627 0 12-5.373 12-12S18.627 0 12 0 0 5.373 0 12s5.373 12 12 12z" fill="#F0F0F0"/><path d="M23.254 7.827H.746A11.975 11.975 0 000 12c0 1.468.264 2.874.746 4.174h22.508c.482-1.3.746-2.706.746-4.174 0-1.468-.264-2.874-.746-4.174z" fill="#A2001D"/><path d="M12.034 24.001c4.11 0 7.738-2.067 9.9-5.217h-19.8a11.986 11.986 0 009.9 5.217zm0-24.001c4.11 0 7.738 2.067 9.9 5.218h-19.8A11.986 11.986 0 0112.035 0z" fill="#6DA544"/><path d="M12 7.827l1.035 3.188h3.353l-2.713 1.971 1.036 3.189L12 14.204l-2.712 1.97 1.036-3.188-2.713-1.97h3.353L12 7.825z" fill="#FFDA44"/></g><defs><clipPath id="clip0_1046_3763"><path fill="#fff" d="M0 0h24v24H0z"/></clipPath></defs></svg>