<svg width="24" height="24" fill="none" xmlns="http://www.w3.org/2000/svg"><g clip-path="url(#clip0_1046_3755)"><path d="M12 24c6.627 0 12-5.373 12-12S18.627 0 12 0 0 5.373 0 12s5.373 12 12 12z" fill="#FFDA44"/><path d="M7.305 7.826h15.95C21.558 3.256 17.16 0 12 0a11.96 11.96 0 00-8.485 3.515l3.789 4.311zm-.001 8.349h15.95C21.557 20.745 17.158 24 11.998 24a11.96 11.96 0 01-8.484-3.515l3.789-4.311z" fill="#6DA544"/><path d="M3.515 3.514c-4.687 4.686-4.687 12.284 0 16.97L12 12 3.515 3.514z" fill="#D80027"/><path d="M15.238 9.913l.518 1.594h1.677l-1.357.985.518 1.595-1.356-.986-1.356.986.518-1.595-1.356-.985h1.676l.518-1.594zm5.218 0l.518 1.594h1.676l-1.356.985.518 1.595-1.356-.986-1.356.986.518-1.595-1.356-.985h1.676l.518-1.594z" fill="#000"/></g><defs><clipPath id="clip0_1046_3755"><path fill="#fff" d="M0 0h24v24H0z"/></clipPath></defs></svg>