<svg width="24" height="24" fill="none" xmlns="http://www.w3.org/2000/svg"><g clip-path="url(#clip0_1046_3752)"><path d="M12 24c6.627 0 12-5.373 12-12S18.627 0 12 0 0 5.373 0 12s5.373 12 12 12z" fill="#F0F0F0"/><path d="M12-.001A12 12 0 001.19 6.782h21.62A12 12 0 0012-.001zm0 24a12 12 0 0010.809-6.783H1.19A12 12 0 0012 24z" fill="#0052B4"/><path d="M9.59 12.523L12 8.349l2.41 4.174H9.59z" fill="#FFDA44"/><path d="M15.13 13.9L12 15.465 8.87 13.9v-2.087h6.26V13.9z" fill="#6DA544"/><path d="M14.951 8.527l-1.106 1.107a2.609 2.609 0 11-3.69 0L9.05 8.527a4.174 4.174 0 105.903 0z" fill="#FFDA44"/></g><defs><clipPath id="clip0_1046_3752"><path fill="#fff" d="M0 0h24v24H0z"/></clipPath></defs></svg>