<svg width="24" height="24" fill="none" xmlns="http://www.w3.org/2000/svg"><g clip-path="url(#clip0_1046_3700)"><path d="M10.957 13.043s-7.435-9.53-7.442-9.53A11.962 11.962 0 0112 0c6.627 0 12 5.373 12 12l-13.043 1.044z" fill="#D80027"/><path d="M10.957 12s-7.435 8.486-7.442 8.485A11.963 11.963 0 0012 24c6.627 0 12-5.373 12-12H10.957z" fill="#0052B4"/><path d="M3.515 3.515c-4.687 4.686-4.687 12.284 0 16.97L12 12 3.515 3.515z" fill="#F0F0F0"/><path d="M1.316 12a3.391 3.391 0 106.76 0h-6.76zm3.38-1.566a1.044 1.044 0 100-2.087 1.044 1.044 0 000 2.087z" fill="#FFDA44"/><path d="M2.348 9.13v3.392c0 1.797 2.347 2.347 2.347 2.347s2.348-.55 2.348-2.347V9.13H2.348z" fill="#D80027"/><path d="M4.697 13.778c-.435-.157-1.305-.558-1.305-1.256v-2.348H6v2.348c0 .7-.87 1.1-1.303 1.256z" fill="#338AF3"/><path d="M5.217 11.478v-.522l-.521-.26-.522.26v.522l-.26.26v1.044h1.564v-1.043l-.26-.261z" fill="#F3F3F3"/></g><defs><clipPath id="clip0_1046_3700"><path fill="#fff" d="M0 0h24v24H0z"/></clipPath></defs></svg>