<svg width="24" height="24" fill="none" xmlns="http://www.w3.org/2000/svg"><g clip-path="url(#clip0_1046_3764)"><path d="M22.81 17.216A11.953 11.953 0 0024 12c0-1.87-.428-3.64-1.19-5.217L12 6.26l-10.81.522A11.953 11.953 0 000 11.999c0 1.87.428 3.64 1.19 5.217l10.81.522 10.81-.521z" fill="#FFDA44"/><path d="M12 0A12 12 0 001.19 6.783h21.62A12 12 0 0011.999 0z" fill="#000"/><path d="M12 24a12 12 0 01-10.81-6.783h21.62A12 12 0 0112 23.999z" fill="#0052B4"/><path d="M23.433 8.348H.567A11.991 11.991 0 000 12c0 1.274.2 2.5.567 3.652h22.866A11.99 11.99 0 0024 12c0-1.274-.2-2.5-.567-3.652z" fill="#A2001D"/><path d="M19.826 11.48H4.174v1.043h15.652v-1.044zm-2.087-2.089H6.261v1.044h11.478V9.39z" fill="#FFDA44"/><path d="M17.813 12S15.13 15.13 12 15.13 8.87 12 8.87 12s0-3.13 3.13-3.13S17.813 12 17.813 12z" fill="#F0F0F0"/><path d="M12 15.13C8.868 15.13 6.185 12 6.185 12s2.683-3.13 5.813-3.13" fill="#000"/><path d="M10.957 10.957H9.913v2.087h1.044v-2.087z" fill="#F0F0F0"/><path d="M14.086 10.957h-1.043v2.087h1.043v-2.087z" fill="#000"/><path d="M4.174 13.044a1.043 1.043 0 100-2.086 1.043 1.043 0 000 2.086zm15.653 0a1.044 1.044 0 100-2.087 1.044 1.044 0 000 2.087z" fill="#0052B4"/></g><defs><clipPath id="clip0_1046_3764"><path fill="#fff" d="M0 0h24v24H0z"/></clipPath></defs></svg>