<svg width="24" height="24" fill="none" xmlns="http://www.w3.org/2000/svg"><g clip-path="url(#clip0_1046_3717)"><path d="M24 12c0 6.627-5.373 12-12 12S0 18.627 0 12C0 12.003 12 .001 12 0c6.627 0 12 5.373 12 12z" fill="#0052B4"/><path d="M11.969 12H12v-.033l-.032.033z" fill="#F0F0F0"/><path d="M12.001 6.261V.001h-.002C5.372 0 .001 5.373.001 12h6.26V8.474L9.788 12h2.182l.032-.032V9.787L8.475 6.26h3.526z" fill="#F0F0F0"/><path d="M6.071 1.565a12.057 12.057 0 00-4.506 4.506v5.93h3.13V4.695H12v-3.13H6.071z" fill="#D80027"/><path d="M12 10.524L7.738 6.261H6.262L12 12v-1.476z" fill="#D80027"/><path d="M13.565 6.26V12c0 2.795 3.653 3.652 3.653 3.652S20.87 14.795 20.87 12V6.26h-7.305z" fill="#FFDA44"/><path d="M16.695 8.348c0 .576-.467 2.087-1.043 2.087-.576 0-1.044-1.511-1.044-2.087 0-.577 1.044-1.044 1.044-1.044s1.043.467 1.043 1.044z" fill="#FF9811"/><path d="M19.464 9.484c.169-.41.3-1.011.3-1.31 0-.48-.627-.87-.627-.87s-.626.39-.626.87c0 .299.131.9.3 1.31l-.362.816a1.825 1.825 0 001.377 0l-.362-.816z" fill="#A2001D"/><path d="M16.435 12s-.522 1.043-.522 2.087h2.609C18.522 13.044 18 12 18 12l-.783-.522-.782.522z" fill="#6DA544"/><path d="M18 12v-.26a.783.783 0 00-1.564 0V12H18z" fill="#D80027"/></g><defs><clipPath id="clip0_1046_3717"><path fill="#fff" d="M0 0h24v24H0z"/></clipPath></defs></svg>