<svg width="24" height="24" fill="none" xmlns="http://www.w3.org/2000/svg"><g clip-path="url(#clip0_1046_3772)"><path d="M12 24c6.627 0 12-5.373 12-12S18.627 0 12 0 0 5.373 0 12s5.373 12 12 12z" fill="#FFDA44"/><path d="M12 0c-.008 0-.521 4.8-.521 4.8H21.6A11.982 11.982 0 0012 0zm0 24c3.926 0 7.411-1.885 9.6-4.8H2.4A11.981 11.981 0 0012 24zM23.76 9.6H11.478L12 14.4h11.76a12.047 12.047 0 000-4.8z" fill="#496E2D"/><path d="M12 14.4V0C5.373 0 0 5.373 0 12c0 .822.083 1.624.24 2.4H12z" fill="#D80027"/><path d="M6.622 5.738l.777 2.392h2.514L7.88 9.608l.777 2.391-2.034-1.478L4.587 12l.777-2.391L3.33 8.13h2.515l.777-2.392z" fill="#F0F0F0"/></g><defs><clipPath id="clip0_1046_3772"><path fill="#fff" d="M0 0h24v24H0z"/></clipPath></defs></svg>