<svg width="24" height="24" fill="none" xmlns="http://www.w3.org/2000/svg"><g clip-path="url(#clip0_1046_3769)"><path d="M1.19 6.782A11.952 11.952 0 000 11.999c0 1.87.428 3.64 1.19 5.217L12 18.26l10.81-1.044A11.953 11.953 0 0024 12c0-1.87-.428-3.64-1.19-5.217L12 5.738 1.19 6.782z" fill="#F0F0F0"/><path d="M1.191 17.218A12 12 0 0012.001 24a12 12 0 0010.808-6.782H1.191z" fill="#6DA544"/><path d="M1.191 6.782H22.81A12 12 0 0012-.001 12 12 0 001.191 6.782z" fill="#D80027"/><path d="M9.913 15.132h4.174v-1.774l-.835.417L12 12.523l-1.252 1.252-.835-.417v1.774zm-2.388-2.088l.194.598h.629l-.509.37.195.597-.509-.37-.509.37.195-.598-.509-.37h.629l.194-.597zm.603-2.086l.194.598h.628l-.508.37.194.597-.508-.37-.509.37.194-.598-.508-.37h.628l.195-.597zM9.85 9.393l.194.598h.628l-.508.37.194.597-.509-.37-.508.37.194-.598-.509-.37h.629l.194-.597zm6.625 3.651l-.194.598h-.629l.509.37-.194.597.508-.37.509.37-.195-.598.51-.37h-.63l-.194-.597zm-.602-2.086l-.195.598h-.628l.508.37-.194.597.509-.37.508.37-.194-.598.509-.37h-.629l-.194-.597zm-1.722-1.565l-.194.598h-.629l.509.37-.195.597.509-.37.508.37-.194-.598.509-.37h-.629l-.194-.597zM12 8.61l.195.597h.628l-.508.37.194.598-.508-.37-.509.37.194-.598-.508-.37h.628l.195-.598z" fill="#FFDA44"/></g><defs><clipPath id="clip0_1046_3769"><path fill="#fff" d="M0 0h24v24H0z"/></clipPath></defs></svg>