<svg width="24" height="24" fill="none" xmlns="http://www.w3.org/2000/svg"><g clip-path="url(#clip0_1046_3611)"><path d="M12 24c6.627 0 12-5.373 12-12S18.627 0 12 0 0 5.373 0 12s5.373 12 12 12z" fill="#FFDA44"/><path d="M12 0a11.95 11.95 0 00-7.715 2.809l12.933 9.19L4.285 21.19A11.95 11.95 0 0012 24c6.628 0 12-5.373 12-12 0-6.628-5.372-12-12-12z" fill="#D80027"/><path d="M3.515 3.515c-4.687 4.687-4.687 12.285 0 16.971L12 12.001 3.515 3.515z" fill="#000"/><path d="M3.327 9.251l1.826 1.729L7.36 9.777l-1.08 2.27 1.827 1.73-2.493-.325-1.08 2.27-.461-2.471-2.494-.325 2.208-1.203-.461-2.472z" fill="#F0F0F0"/></g><defs><clipPath id="clip0_1046_3611"><path fill="#fff" d="M0 0h24v24H0z"/></clipPath></defs></svg>