<svg width="24" height="24" fill="none" xmlns="http://www.w3.org/2000/svg"><g clip-path="url(#clip0_1046_3716)"><path d="M12 0c-.896 0-1.77.098-2.61.285l-.52 11.714.52 11.715c.84.186 1.714.285 2.61.285 6.627 0 12-5.372 12-12 0-6.627-5.373-12-12-12zM3.13 3.917A11.956 11.956 0 000 12c0 3.113 1.186 5.95 3.13 8.082L3.652 12 3.13 3.917z" fill="#496E2D"/><path d="M17.551 9.052a3.653 3.653 0 00-1.496-4.327 3.652 3.652 0 11-2.41 6.715 3.653 3.653 0 003.906-2.388zm-3.274-4.778l-.513.663-.79-.283.473.693-.513.663.804-.235.472.693.025-.838.805-.235-.789-.283.026-.838z" fill="#F0F0F0"/><path d="M15.662 6.435l-.513.663-.789-.283.472.693-.513.663.805-.235.472.693.025-.838.805-.235-.789-.283.025-.838zM11.833 5.06l-.513.663-.789-.283.472.693-.513.663.805-.235.472.693.025-.838.805-.235-.79-.283.026-.838zm-.055 2.475l-.513.662-.79-.283.473.693-.513.663.804-.235.472.693.025-.838.805-.235-.789-.283.026-.837zm2.354.845l-.513.663-.789-.283.472.693-.513.662.805-.234.472.692.025-.838.805-.234-.79-.283.026-.838z" fill="#F0F0F0"/><path d="M3.13 3.917v16.166a11.987 11.987 0 006.26 3.632V.285a11.987 11.987 0 00-6.26 3.632z" fill="#D80027"/><path d="M5.52 6.318l-1.048-.781V4.433l1.048-.781h1.482l1.048.78v1.105l-1.048.78H5.52z" fill="#F0F0F0"/><path d="M6.261 3.652H5.52l-1.048.78v.54h1.79v-1.32zM6.26 6.317h.742l1.048-.781v-.563H6.26v1.344z" fill="#FF9811"/><path d="M5.52 20.349l-1.048-.781v-1.105l1.048-.78h1.482l1.048.78v1.105l-1.048.78H5.52z" fill="#F0F0F0"/><path d="M6.261 17.683H5.52l-1.048.78v.54h1.79v-1.32zM6.26 20.35h.742l1.048-.782v-.563H6.26v1.344z" fill="#FF9811"/><path d="M5.52 13.332l-1.048-.78v-1.105l1.048-.78h1.482l1.048.78v1.105l-1.048.78H5.52zm2.567 1.719H7.63v-.456h-.802l-.567-.567-.568.567h-.802v.456h-.456v.913h.456v.457h.802l.568.567.567-.567h.802v-.457h.457v-.913zm0-7.015H7.63v-.457h-.802l-.567-.567-.568.567h-.802v.457h-.456v.913h.456v.457h.802l.568.567.567-.567h.802v-.457h.457v-.913z" fill="#496E2D"/><path d="M6.783 11.48H5.739v1.043h1.044v-1.044zm-.522-2.465a.522.522 0 100-1.044.522.522 0 000 1.044zm0 7.015a.522.522 0 100-1.043.522.522 0 000 1.044z" fill="#D80027"/></g><defs><clipPath id="clip0_1046_3716"><path fill="#fff" d="M0 0h24v24H0z"/></clipPath></defs></svg>