<svg width="24" height="24" fill="none" xmlns="http://www.w3.org/2000/svg"><g clip-path="url(#clip0_1046_3715)"><path d="M12 24c6.627 0 12-5.373 12-12S18.627 0 12 0 0 5.373 0 12s5.373 12 12 12z" fill="#D80027"/><path d="M11.509 9.805l.984 1.357 1.595-.517L13.102 12l.984 1.357-1.594-.519-.986 1.356.001-1.677L9.913 12l1.595-.518V9.806z" fill="#F0F0F0"/><path d="M8.822 15.39a3.391 3.391 0 111.613-6.374 4.174 4.174 0 100 5.967c-.48.26-1.029.408-1.613.408z" fill="#F0F0F0"/></g><defs><clipPath id="clip0_1046_3715"><path fill="#fff" d="M0 0h24v24H0z"/></clipPath></defs></svg>