<svg width="24" height="24" fill="none" xmlns="http://www.w3.org/2000/svg"><g clip-path="url(#clip0_1046_3718)"><path d="M24 12c0 6.627-5.373 12-12 12S0 18.627 0 12C0 12.003 12 .001 12 0c6.627 0 12 5.373 12 12z" fill="#338AF3"/><path d="M5.74 12.001h4.047L6.26 7.827l-.522 1.565v2.61zM12 9.787L7.826 5.739H12v4.048z" fill="#0052B4"/><path d="M11.968 12H12v-.033l-.032.033z" fill="#F0F0F0"/><path d="M12 6.261V.001h-.002C5.372 0 0 5.373 0 12h6.26V8.474L9.787 12h2.182l.032-.032V9.787L8.474 6.26H12z" fill="#F0F0F0"/><path d="M6.071 1.565a12.057 12.057 0 00-4.506 4.506v5.93h3.13V4.695H12v-3.13H6.071z" fill="#D80027"/><path d="M12 10.524L7.738 6.261H6.262L12 12v-1.476z" fill="#D80027"/><path d="M13.097 19.825l.26.797h.837l-.678.493.26.797-.679-.492-.678.492.26-.797-.679-.493h.838l.26-.797zm6.676-5.215l.259.796h.838l-.678.493.26.797-.679-.492-.678.492.259-.797-.678-.492h.838l.259-.798zm1.672-7.827l.259.797h.838l-.678.492.259.798-.678-.493-.678.493.259-.798-.678-.492h.838l.259-.797zm.415 5.738l.259.798h.838l-.678.492.259.797-.678-.492-.678.492.259-.797-.678-.492h.838l.259-.798zm-7.561 5.43l.747.38.593-.592-.131.828.746.38-.828.132-.13.828-.381-.747-.828.13.593-.592-.381-.747zm0-3.129l.747.38.593-.593-.131.828.746.38-.828.132-.13.828-.381-.747-.828.131.593-.593-.381-.746zm2.609 2.005l.747.38.593-.592-.131.828.747.38-.828.132-.131.827-.38-.747-.829.132.593-.593-.38-.747zm0-6.702l.747.38.593-.592-.131.828.747.38-.828.131-.131.828-.38-.747-.829.131.593-.592-.38-.747zm2.529-.081l.747.381.592-.593-.13.828.746.38-.828.132-.131.828-.38-.747-.828.131.592-.593-.38-.747z" fill="#FFDA44"/></g><defs><clipPath id="clip0_1046_3718"><path fill="#fff" d="M0 0h24v24H0z"/></clipPath></defs></svg>