<svg width="24" height="24" fill="none" xmlns="http://www.w3.org/2000/svg"><g clip-path="url(#clip0_1046_3768)"><path d="M24 12c0 6.627-5.373 12-12 12S0 18.627 0 12L12 0c6.627 0 12 5.373 12 12z" fill="#D80027"/><path d="M12 12V0C5.373 0 0 5.373 0 12h12z" fill="#0052B4"/><path d="M10.435 7.023l-1.466.69.78 1.419-1.59-.305-.202 1.608-1.109-1.182-1.108 1.182-.202-1.608-1.591.305.78-1.42-1.465-.689 1.465-.69-.78-1.419 1.591.305.202-1.608 1.108 1.183L7.957 3.61l.201 1.608 1.592-.305-.78 1.42 1.465.689z" fill="#F0F0F0"/><path d="M6.849 9.257a2.234 2.234 0 100-4.468 2.234 2.234 0 000 4.468z" fill="#0052B4"/><path d="M6.848 8.214a1.19 1.19 0 111.19-1.19 1.19 1.19 0 01-1.19 1.19z" fill="#F0F0F0"/></g><defs><clipPath id="clip0_1046_3768"><path fill="#fff" d="M0 0h24v24H0z"/></clipPath></defs></svg>