<svg width="24" height="24" fill="none" xmlns="http://www.w3.org/2000/svg"><g clip-path="url(#clip0_1046_3719)"><path d="M20.943 20A11.954 11.954 0 0024 12c0-3.074-1.156-5.877-3.057-8L12 3.13 3.057 4A11.954 11.954 0 000 12c0 3.074 1.156 5.877 3.057 8l8.943.87 8.943-.87z" fill="#FFDA44"/><path d="M3.057 4h17.886A11.97 11.97 0 0012 0a11.97 11.97 0 00-8.943 4z" fill="#000"/><path d="M0 12l12 1.044 12-1.043c0-1.403-.241-2.75-.684-4H.684A11.977 11.977 0 000 12z" fill="#D80027"/><path d="M.684 16h22.632A11.98 11.98 0 0024 12H0c0 1.402.241 2.748.684 4z" fill="#000"/><path d="M20.944 20H3.056c2.197 2.454 5.39 4 8.943 4 3.554 0 6.746-1.546 8.944-4z" fill="#D80027"/><path d="M16.004 12a4.004 4.004 0 11-8.008.001 4.004 4.004 0 018.008 0z" fill="#F0F0F0"/><path d="M13.467 12.204L12 11.568s.343-1.14.361-1.217a.78.78 0 00-.209-.73l.37-.37a1.3 1.3 0 00-1.845 0l.369.37a.78.78 0 00-.196.78l-.555.555h1.01s-.418.627-.646 1.142a1.053 1.053 0 00.53 1.377l.304.135.507.476v.522l-.522.522h1.044v-1.044l.476-.476h.985l.014-.03a1.044 1.044 0 00-.53-1.376z" fill="#000"/></g><defs><clipPath id="clip0_1046_3719"><path fill="#fff" d="M0 0h24v24H0z"/></clipPath></defs></svg>