<svg width="24" height="24" fill="none" xmlns="http://www.w3.org/2000/svg"><g clip-path="url(#clip0_1046_3724)"><path d="M12 24c6.627 0 12-5.373 12-12S18.627 0 12 0 0 5.373 0 12s5.373 12 12 12z" fill="#F0F0F0"/><path d="M12 8.869h11.587a11.932 11.932 0 00-1.348-3.13H12v3.13zM4.53 21.39h14.94a12.06 12.06 0 002.768-3.13H1.761a12.062 12.062 0 002.769 3.13zM12 0v2.608h7.47A11.949 11.949 0 0012-.001z" fill="#338AF3"/><path d="M12 8.869h11.587a11.932 11.932 0 00-1.348-3.13H12v3.13zM0 12c0 1.083.144 2.132.413 3.13h23.174A12.01 12.01 0 0024 12H0z" fill="#338AF3"/><path d="M10.435 7.023l-1.466.69.78 1.419-1.59-.304-.202 1.607-1.109-1.182-1.108 1.182-.202-1.607-1.591.304.78-1.42-1.465-.689 1.465-.69-.78-1.418 1.591.304.202-1.608 1.108 1.183L7.957 3.61l.201 1.608 1.592-.304-.78 1.419 1.465.69z" fill="#FFDA44"/></g><defs><clipPath id="clip0_1046_3724"><path fill="#fff" d="M0 0h24v24H0z"/></clipPath></defs></svg>