<svg width="24" height="24" fill="none" xmlns="http://www.w3.org/2000/svg"><g clip-path="url(#clip0_1046_3725)"><path d="M.567 8.348A11.988 11.988 0 000 12c0 1.274.2 2.5.567 3.652L12 16.174l11.433-.522A11.99 11.99 0 0024 12c0-1.274-.2-2.5-.567-3.652L12 7.826.567 8.348z" fill="#F0F0F0"/><path d="M23.433 8.348L12 7.826.566 8.348c-.108.341-.202.69-.28 1.043h23.428a11.936 11.936 0 00-.28-1.043zM.285 14.609c.079.354.172.702.281 1.043h.002L12 16.174l11.433-.521c.109-.342.203-.69.281-1.044H.285z" fill="#D80027"/><path d="M12 24c5.355 0 9.889-3.506 11.434-8.347H.567C2.113 20.494 6.647 24 12.001 24z" fill="#6DA544"/><path d="M12 0C6.646 0 2.112 3.505.566 8.346h22.867C21.888 3.506 17.353-.001 12-.001z" fill="#338AF3"/><path d="M5.484 4.956c0-1.124.79-2.063 1.844-2.293a2.348 2.348 0 100 4.586 2.348 2.348 0 01-1.844-2.293zm3.231 1.066l.16.49h.514l-.417.302.16.49L8.714 7l-.416.302.16-.489-.417-.302h.514l.16-.49zm1.643 0l.159.49h.514l-.416.302.159.49L10.358 7l-.416.302.159-.489-.416-.302h.514l.159-.49zm1.642 0l.158.49h.515l-.416.302.159.49L11.999 7l-.416.302.16-.489-.417-.302h.514l.16-.49zm1.641 0l.159.49h.514l-.416.302.16.49L13.64 7l-.416.302.159-.489-.416-.302h.514l.16-.49zm1.642 0l.159.49h.514l-.416.302.159.49L15.283 7l-.416.302.158-.489-.416-.302h.515l.159-.49zm-4.925-1.707l.159.49h.514l-.416.302.159.489-.416-.303-.416.303.159-.49-.416-.302h.514l.159-.489zm1.642 0l.158.49h.515l-.416.302.159.489-.417-.303-.416.303.16-.49-.417-.302h.514l.16-.489zm1.641 0l.159.49h.514l-.416.302.16.489-.417-.303-.416.303.159-.49-.416-.302h.514l.16-.489zm1.642 0l.159.49h.514l-.416.302.159.489-.416-.303-.416.303.158-.49-.416-.302h.515l.159-.489zM12 2.608l.158.49h.515l-.416.302.159.489-.417-.303-.416.303.16-.49-.417-.302h.514l.16-.489zm1.641 0l.159.49h.514l-.416.302.16.489-.417-.303-.416.303.159-.49-.416-.302h.514l.16-.489zm1.642 0l.159.49h.514l-.416.302.159.489-.416-.303-.416.303.158-.49-.416-.302h.515l.159-.489z" fill="#F0F0F0"/></g><defs><clipPath id="clip0_1046_3725"><path fill="#fff" d="M0 0h24v24H0z"/></clipPath></defs></svg>