<svg width="24" height="24" fill="none" xmlns="http://www.w3.org/2000/svg"><g clip-path="url(#clip0_1046_3712)"><path d="M17.74 1.46A11.946 11.946 0 0012 0C9.921 0 7.966.53 6.261 1.46L5.218 12 6.26 22.541a11.95 11.95 0 005.74 1.46c2.078 0 4.034-.53 5.739-1.46l1.043-10.54-1.044-10.542z" fill="#FFDA44"/><path d="M6.26 22.54V1.46A11.997 11.997 0 000 12c0 4.549 2.53 8.506 6.26 10.54z" fill="#338AF3"/><path d="M24 12c0-4.548-2.53-8.505-6.26-10.54v21.08A11.997 11.997 0 0024 12.001zM9.392 15.13L7.305 12l2.087-3.131 2.087 3.13-2.087 3.13zm5.218 0L12.522 12l2.086-3.131 2.087 3.13-2.087 3.13zm-2.609 4.174l-2.087-3.13 2.087-3.131 2.087 3.13-2.087 3.13z" fill="#6DA544"/></g><defs><clipPath id="clip0_1046_3712"><path fill="#fff" d="M0 0h24v24H0z"/></clipPath></defs></svg>