<svg width="24" height="24" fill="none" xmlns="http://www.w3.org/2000/svg"><g clip-path="url(#clip0_1046_3777)"><path d="M22.81 17.217A11.951 11.951 0 0024 11.999c0-1.87-.428-3.64-1.19-5.217L12 5.738 1.19 6.782A11.952 11.952 0 000 11.999c0 1.87.428 3.64 1.19 5.218L12 18.26l10.81-1.043z" fill="#0052B4"/><path d="M12 24a12 12 0 0010.809-6.782H1.19A12 12 0 0012 24z" fill="#D80027"/><path d="M20.782 14.356l-.633.495.275.756-.667-.45-.634.495.221-.773-.666-.45.804-.027.221-.774.276.756.803-.028zm-1.623-2.812l-.427.683.518.616-.781-.195-.426.682-.056-.802-.78-.195.745-.301-.056-.803.517.617.745-.302zm-2.487-2.086l-.167.787.697.402-.8.085-.167.786-.328-.735-.8.085.598-.539-.327-.734.697.402.597-.539zm-3.05-1.11l.112.797.792.14-.723.352.112.796-.559-.578-.723.352.378-.71-.559-.578.792.14.378-.711zm-3.245 0l.377.71.792-.14-.558.58.377.71-.723-.353-.558.578.112-.796-.723-.353.792-.14.112-.796zm-3.051 1.11l.598.539.696-.402-.327.734.598.539-.8-.085-.327.735-.167-.787-.8-.083.696-.403-.167-.787zM4.84 11.544l.746.302.516-.616-.055.802.745.302-.78.194-.056.802-.426-.682-.781.195.517-.616-.426-.683zm-1.623 2.812l.804.028.275-.756.222.774.803.028-.666.45.221.773-.633-.495-.667.45.275-.757-.634-.495z" fill="#F0F0F0"/><path d="M22.809 6.782A12 12 0 0011.999 0 12 12 0 001.19 6.782h21.62z" fill="#FFDA44"/></g><defs><clipPath id="clip0_1046_3777"><path fill="#fff" d="M0 0h24v24H0z"/></clipPath></defs></svg>