<svg width="24" height="24" fill="none" xmlns="http://www.w3.org/2000/svg"><g clip-path="url(#clip0_1046_3779)"><path d="M12 24c6.627 0 12-5.373 12-12S18.627 0 12 0 0 5.373 0 12s5.373 12 12 12z" fill="#FCFCFC"/><path d="M14.037 8.383a2.038 2.038 0 10-4.076 0H5.478c0 1.109.965 2.007 2.073 2.007h-.067c0 1.108.899 2.007 2.007 2.007 0 .981.705 1.796 1.635 1.97l-.005.012h1.756l-.005-.011a2.006 2.006 0 001.636-1.971 2.007 2.007 0 002.006-2.007h-.067c1.109 0 2.074-.898 2.074-2.007h-4.484z" fill="#FFDA44"/><path d="M11.104 14.172L9.84 17.025a5.72 5.72 0 002.16.422 5.72 5.72 0 002.159-.422l-1.264-2.853h-1.791z" fill="#FFDA44"/><path d="M9.392 9.386v3.51c0 1.997 2.608 2.609 2.608 2.609s2.609-.612 2.609-2.609v-3.51H9.392z" fill="#F0F0F0"/><path d="M2.91 12.085l1.411 3.946 1.396-3.946h1.066l-2.036 5.217h-.852l-2.05-5.217H2.91zm16.395 5.217v-5.217h1.014v5.217h-1.014z" fill="#338AF3"/><path d="M10.435 10.52v4.254a4.59 4.59 0 001.043.561V10.52h-1.043zm3.13 0v4.254a4.593 4.593 0 01-1.043.561V10.52h1.043z" fill="#D80027"/><path d="M14.609 9.386H9.392v1.655h5.217V9.386z" fill="#0052B4"/></g><defs><clipPath id="clip0_1046_3779"><path fill="#fff" d="M0 0h24v24H0z"/></clipPath></defs></svg>