<svg width="24" height="24" fill="none" xmlns="http://www.w3.org/2000/svg"><g clip-path="url(#clip0_1046_3776)"><path d="M24 12c0-.53-.035-1.053-.102-1.565H10.435l-6.92-6.92c-4.687 4.686-4.687 12.284 0 16.97l6.92-6.92h13.463c.067-.512.102-1.034.102-1.565z" fill="#000"/><path d="M23.997 12.273l-.002.07.002-.07zm-.012.327c0 .023-.002.046-.004.069l.004-.069zm-.017.263l-.007.101.007-.1zm-.039-2.171l.013.12-.013-.12zm.051.638l.004.069c0-.023-.002-.046-.004-.07zm.015.327l.002.07-.002-.07zm-.035-.621c.004.033.006.067.008.1l-.007-.1z" fill="#F0F0F0"/><path d="M23.898 10.434l.015.124C23.201 4.61 18.14 0 12 0a11.962 11.962 0 00-8.485 3.514l6.92 6.92h13.463z" fill="#D80027"/><path d="M23.898 13.565H10.435l-6.92 6.92A11.963 11.963 0 0012 24c6.14 0 11.201-4.61 11.913-10.559-.004.042-.01.083-.015.124z" fill="#6DA544"/><path d="M23.942 13.188l-.013.12.013-.12z" fill="#F0F0F0"/><path d="M23.969 11.137zm-.056-.579zm.028.254zM24 12zm-.019.669zm-.02.295zm-.033.344zm.069-1.581zm-.012-.329zm.01.944z" fill="#000"/><path d="M23.99 11.473H9.994l-7.19-7.187a6.131 6.131 0 00-.64.83l6.876 6.879-6.88 6.88c.135.243.432.602.64.835l7.194-7.193H23.99a12.055 12.055 0 00-.002-1.044z" fill="#FFDA44"/><path d="M2.915 14.557v-1.005a1.821 1.821 0 001.82-1.819c0-.71-.578-1.287-1.288-1.287a.878.878 0 00-.877.877c0 .31.252.56.561.56a.317.317 0 00.317-.316h1.005c0 .729-.593 1.322-1.322 1.322a1.567 1.567 0 01-1.566-1.566c0-1.037.845-1.882 1.882-1.882a2.295 2.295 0 012.292 2.292 2.827 2.827 0 01-2.824 2.824z" fill="#FFDA44"/></g><defs><clipPath id="clip0_1046_3776"><path fill="#fff" d="M0 0h24v24H0z"/></clipPath></defs></svg>