<svg width="24" height="24" fill="none" xmlns="http://www.w3.org/2000/svg"><g clip-path="url(#clip0_1046_3782)"><path d="M12 24c6.627 0 12-5.373 12-12S18.627 0 12 0 0 5.373 0 12s5.373 12 12 12z" fill="#496E2D"/><path d="M16.696 12H12v12a11.98 11.98 0 004-.684l.696-11.317z" fill="#D80027"/><path d="M20 20.943a11.97 11.97 0 004-8.944h-4.695L20 20.943z" fill="#FF9811"/><path d="M16 12v11.316a11.991 11.991 0 004-2.373v-8.944h-4z" fill="#000"/><path d="M22.174 7.827h-3.13a1.044 1.044 0 00-2.087 0h-3.13c0 .576.501 1.043 1.077 1.043h-.034c0 .577.467 1.044 1.043 1.044 0 .576.467 1.043 1.044 1.043h2.087c.576 0 1.043-.467 1.043-1.043.576 0 1.044-.467 1.044-1.044h-.035c.576 0 1.078-.467 1.078-1.043z" fill="#FF9811"/></g><defs><clipPath id="clip0_1046_3782"><path fill="#fff" d="M0 0h24v24H0z"/></clipPath></defs></svg>